<svg width="200" height="200" viewBox="0 0 200 200" fill="none" xmlns="http://www.w3.org/2000/svg">
<rect x="2.5" y="2.5" width="195" height="195" rx="2.5" fill="white" stroke="#5E031F" stroke-width="5"/>
<path d="M22.2159 12.7273V36H19.3977V15.6818H19.2614L13.5795 19.4545V16.5909L19.3977 12.7273H22.2159ZM37.0909 12.7273V36H34.2727V15.6818H34.1364L28.4545 19.4545V16.5909L34.2727 12.7273H37.0909Z" fill="#5E031F"/>
<path d="M120.241 60.5909H113.151C112.878 59.0758 112.37 57.7424 111.628 56.5909C110.885 55.4394 109.976 54.4621 108.901 53.6591C107.825 52.8561 106.62 52.25 105.287 51.8409C103.969 51.4318 102.567 51.2273 101.082 51.2273C98.4006 51.2273 95.9991 51.9015 93.8778 53.25C91.7718 54.5985 90.1051 56.5758 88.8778 59.1818C87.6657 61.7879 87.0597 64.9697 87.0597 68.7273C87.0597 72.5152 87.6657 75.7121 88.8778 78.3182C90.1051 80.9242 91.7794 82.8939 93.9006 84.2273C96.0218 85.5606 98.4081 86.2273 101.06 86.2273C102.529 86.2273 103.923 86.0303 105.241 85.6364C106.575 85.2273 107.779 84.6288 108.855 83.8409C109.931 83.053 110.84 82.0909 111.582 80.9545C112.34 79.803 112.863 78.4848 113.151 77L120.241 77.0227C119.863 79.3106 119.128 81.4167 118.037 83.3409C116.961 85.25 115.575 86.9015 113.878 88.2955C112.196 89.6742 110.272 90.7424 108.105 91.5C105.938 92.2576 103.575 92.6364 101.014 92.6364C96.9839 92.6364 93.393 91.6818 90.2415 89.7727C87.09 87.8485 84.6051 85.0985 82.7869 81.5227C80.9839 77.947 80.0824 73.6818 80.0824 68.7273C80.0824 63.7576 80.9915 59.4924 82.8097 55.9318C84.6278 52.3561 87.1127 49.6136 90.2642 47.7045C93.4157 45.7803 96.9991 44.8182 101.014 44.8182C103.484 44.8182 105.787 45.1742 107.923 45.8864C110.075 46.5833 112.007 47.6136 113.719 48.9773C115.431 50.3258 116.848 51.9773 117.969 53.9318C119.09 55.8712 119.848 58.0909 120.241 60.5909Z" fill="#5E031F"/>
<path d="M65.652 118.295H62.1065C61.9702 117.538 61.7164 116.871 61.3452 116.295C60.974 115.72 60.5194 115.231 59.9815 114.83C59.4437 114.428 58.8414 114.125 58.1747 113.92C57.5156 113.716 56.8149 113.614 56.0724 113.614C54.7315 113.614 53.5308 113.951 52.4702 114.625C51.4171 115.299 50.5838 116.288 49.9702 117.591C49.3641 118.894 49.0611 120.485 49.0611 122.364C49.0611 124.258 49.3641 125.856 49.9702 127.159C50.5838 128.462 51.4209 129.447 52.4815 130.114C53.5421 130.78 54.7353 131.114 56.0611 131.114C56.7959 131.114 57.4929 131.015 58.152 130.818C58.8187 130.614 59.4209 130.314 59.9588 129.92C60.4967 129.527 60.9512 129.045 61.3224 128.477C61.7012 127.902 61.9626 127.242 62.1065 126.5L65.652 126.511C65.4626 127.655 65.0952 128.708 64.5497 129.67C64.0118 130.625 63.3187 131.451 62.4702 132.148C61.6293 132.837 60.6671 133.371 59.5838 133.75C58.5005 134.129 57.3187 134.318 56.0384 134.318C54.0232 134.318 52.2277 133.841 50.652 132.886C49.0762 131.924 47.8338 130.549 46.9247 128.761C46.0232 126.973 45.5724 124.841 45.5724 122.364C45.5724 119.879 46.027 117.746 46.9361 115.966C47.8452 114.178 49.0876 112.807 50.6634 111.852C52.2391 110.89 54.0308 110.409 56.0384 110.409C57.2732 110.409 58.4247 110.587 59.4929 110.943C60.5687 111.292 61.5346 111.807 62.3906 112.489C63.2467 113.163 63.955 113.989 64.5156 114.966C65.0762 115.936 65.455 117.045 65.652 118.295ZM74.6605 134.386C73.5545 134.386 72.5545 134.182 71.6605 133.773C70.7666 133.356 70.0582 132.754 69.5355 131.966C69.0204 131.178 68.7628 130.212 68.7628 129.068C68.7628 128.083 68.9522 127.273 69.331 126.636C69.7098 126 70.2211 125.496 70.8651 125.125C71.509 124.754 72.2287 124.473 73.0241 124.284C73.8196 124.095 74.6302 123.951 75.456 123.852C76.5014 123.731 77.3499 123.633 78.0014 123.557C78.6529 123.473 79.1264 123.341 79.4219 123.159C79.7173 122.977 79.8651 122.682 79.8651 122.273V122.193C79.8651 121.201 79.5848 120.432 79.0241 119.886C78.4711 119.341 77.6454 119.068 76.5469 119.068C75.4029 119.068 74.5014 119.322 73.8423 119.83C73.1908 120.33 72.7401 120.886 72.4901 121.5L69.2969 120.773C69.6757 119.712 70.2287 118.856 70.956 118.205C71.6908 117.545 72.5355 117.068 73.4901 116.773C74.4446 116.47 75.4484 116.318 76.5014 116.318C77.1984 116.318 77.937 116.402 78.7173 116.568C79.5052 116.727 80.2401 117.023 80.9219 117.455C81.6113 117.886 82.1757 118.504 82.6151 119.307C83.0545 120.102 83.2741 121.136 83.2741 122.409V134H79.956V131.614H79.8196C79.5999 132.053 79.2704 132.485 78.831 132.909C78.3916 133.333 77.8272 133.686 77.1378 133.966C76.4484 134.246 75.6226 134.386 74.6605 134.386ZM75.3991 131.659C76.3385 131.659 77.1416 131.473 77.8082 131.102C78.4825 130.731 78.9938 130.246 79.3423 129.648C79.6984 129.042 79.8764 128.394 79.8764 127.705V125.455C79.7552 125.576 79.5204 125.689 79.1719 125.795C78.831 125.894 78.4408 125.981 78.0014 126.057C77.562 126.125 77.134 126.189 76.7173 126.25C76.3007 126.303 75.9522 126.348 75.6719 126.386C75.0128 126.47 74.4105 126.61 73.8651 126.807C73.3272 127.004 72.8954 127.288 72.5696 127.659C72.2514 128.023 72.0923 128.508 72.0923 129.114C72.0923 129.955 72.4029 130.591 73.0241 131.023C73.6454 131.447 74.437 131.659 75.3991 131.659ZM87.7997 134V116.545H91.0838V119.318H91.2656C91.5838 118.379 92.1444 117.64 92.9474 117.102C93.758 116.557 94.6747 116.284 95.6974 116.284C95.9096 116.284 96.1596 116.292 96.4474 116.307C96.7429 116.322 96.974 116.341 97.1406 116.364V119.614C97.0043 119.576 96.7618 119.534 96.4134 119.489C96.0649 119.436 95.7164 119.409 95.3679 119.409C94.5649 119.409 93.849 119.58 93.2202 119.92C92.599 120.254 92.1065 120.72 91.7429 121.318C91.3793 121.909 91.1974 122.583 91.1974 123.341V134H87.7997ZM100.354 134V110.727H103.751V119.375H103.956C104.153 119.011 104.437 118.591 104.808 118.114C105.179 117.636 105.695 117.22 106.354 116.864C107.013 116.5 107.884 116.318 108.967 116.318C110.376 116.318 111.634 116.674 112.74 117.386C113.846 118.098 114.714 119.125 115.342 120.466C115.979 121.807 116.297 123.42 116.297 125.307C116.297 127.193 115.982 128.811 115.354 130.159C114.725 131.5 113.861 132.534 112.763 133.261C111.664 133.981 110.411 134.341 109.001 134.341C107.941 134.341 107.073 134.163 106.399 133.807C105.732 133.451 105.21 133.034 104.831 132.557C104.452 132.08 104.161 131.655 103.956 131.284H103.672V134H100.354ZM103.683 125.273C103.683 126.5 103.861 127.576 104.217 128.5C104.573 129.424 105.089 130.148 105.763 130.67C106.437 131.186 107.263 131.443 108.24 131.443C109.255 131.443 110.104 131.174 110.786 130.636C111.467 130.091 111.982 129.352 112.331 128.42C112.687 127.489 112.865 126.439 112.865 125.273C112.865 124.121 112.691 123.087 112.342 122.17C112.001 121.254 111.486 120.53 110.797 120C110.115 119.47 109.263 119.205 108.24 119.205C107.255 119.205 106.422 119.458 105.74 119.966C105.066 120.473 104.554 121.182 104.206 122.091C103.857 123 103.683 124.061 103.683 125.273ZM127.464 134.352C125.828 134.352 124.4 133.977 123.18 133.227C121.961 132.477 121.014 131.428 120.339 130.08C119.665 128.731 119.328 127.155 119.328 125.352C119.328 123.542 119.665 121.958 120.339 120.602C121.014 119.246 121.961 118.193 123.18 117.443C124.4 116.693 125.828 116.318 127.464 116.318C129.101 116.318 130.529 116.693 131.749 117.443C132.968 118.193 133.915 119.246 134.589 120.602C135.264 121.958 135.601 123.542 135.601 125.352C135.601 127.155 135.264 128.731 134.589 130.08C133.915 131.428 132.968 132.477 131.749 133.227C130.529 133.977 129.101 134.352 127.464 134.352ZM127.476 131.5C128.536 131.5 129.415 131.22 130.112 130.659C130.809 130.098 131.324 129.352 131.658 128.42C131.999 127.489 132.169 126.462 132.169 125.341C132.169 124.227 131.999 123.205 131.658 122.273C131.324 121.333 130.809 120.58 130.112 120.011C129.415 119.443 128.536 119.159 127.476 119.159C126.408 119.159 125.521 119.443 124.817 120.011C124.12 120.58 123.601 121.333 123.26 122.273C122.927 123.205 122.76 124.227 122.76 125.341C122.76 126.462 122.927 127.489 123.26 128.42C123.601 129.352 124.12 130.098 124.817 130.659C125.521 131.22 126.408 131.5 127.476 131.5ZM142.791 123.636V134H139.393V116.545H142.655V119.386H142.871C143.272 118.462 143.901 117.72 144.757 117.159C145.621 116.598 146.708 116.318 148.018 116.318C149.208 116.318 150.25 116.568 151.143 117.068C152.037 117.561 152.731 118.295 153.223 119.273C153.715 120.25 153.962 121.458 153.962 122.898V134H150.564V123.307C150.564 122.042 150.234 121.053 149.575 120.341C148.916 119.621 148.011 119.261 146.859 119.261C146.071 119.261 145.371 119.432 144.757 119.773C144.151 120.114 143.67 120.614 143.314 121.273C142.965 121.924 142.791 122.712 142.791 123.636Z" fill="#5E031F"/>
<path d="M70.2575 168.455V183H68.0558V170.656H67.9705L64.4904 172.929V170.827L68.1197 168.455H70.2575ZM74.1921 183V181.409L79.114 176.31C79.6396 175.756 80.0728 175.27 80.4137 174.854C80.7594 174.432 81.0174 174.032 81.1879 173.653C81.3583 173.275 81.4435 172.872 81.4435 172.446C81.4435 171.963 81.3299 171.546 81.1026 171.196C80.8754 170.841 80.5652 170.569 80.1722 170.379C79.7792 170.185 79.3365 170.088 78.8441 170.088C78.3233 170.088 77.8687 170.195 77.4805 170.408C77.0922 170.621 76.7939 170.921 76.5856 171.31C76.3772 171.698 76.2731 172.152 76.2731 172.673H74.1779C74.1779 171.788 74.3815 171.014 74.7887 170.351C75.1959 169.688 75.7546 169.174 76.4648 168.81C77.1751 168.44 77.9824 168.256 78.8867 168.256C79.8005 168.256 80.6055 168.438 81.3015 168.803C82.0022 169.162 82.5491 169.655 82.9421 170.28C83.3351 170.9 83.5316 171.601 83.5316 172.382C83.5316 172.922 83.4298 173.45 83.2262 173.966C83.0273 174.482 82.6793 175.057 82.1822 175.692C81.685 176.321 80.9937 177.086 80.1083 177.986L77.2177 181.011V181.118H83.766V183H74.1921ZM87.8853 183.135C87.497 183.135 87.1632 182.998 86.8839 182.723C86.6045 182.444 86.4648 182.107 86.4648 181.714C86.4648 181.326 86.6045 180.995 86.8839 180.72C87.1632 180.441 87.497 180.301 87.8853 180.301C88.2736 180.301 88.6074 180.441 88.8867 180.72C89.1661 180.995 89.3058 181.326 89.3058 181.714C89.3058 181.975 89.2395 182.214 89.1069 182.432C88.979 182.645 88.8086 182.815 88.5955 182.943C88.3825 183.071 88.1457 183.135 87.8853 183.135ZM96.6584 183.241C95.5362 183.237 94.5774 182.941 93.782 182.354C92.9865 181.767 92.3781 180.912 91.9567 179.79C91.5353 178.668 91.3246 177.316 91.3246 175.734C91.3246 174.158 91.5353 172.811 91.9567 171.693C92.3828 170.576 92.9936 169.723 93.7891 169.136C94.5893 168.549 95.5457 168.256 96.6584 168.256C97.7711 168.256 98.7251 168.552 99.5206 169.143C100.316 169.731 100.924 170.583 101.346 171.7C101.772 172.813 101.985 174.158 101.985 175.734C101.985 177.321 101.774 178.675 101.353 179.797C100.932 180.914 100.323 181.769 99.5277 182.361C98.7322 182.948 97.7758 183.241 96.6584 183.241ZM96.6584 181.345C97.6432 181.345 98.4126 180.865 98.9666 179.903C99.5253 178.942 99.8047 177.553 99.8047 175.734C99.8047 174.527 99.6768 173.507 99.4212 172.673C99.1702 171.835 98.808 171.201 98.3345 170.77C97.8658 170.334 97.3071 170.116 96.6584 170.116C95.6783 170.116 94.9089 170.599 94.3501 171.565C93.7914 172.531 93.5097 173.921 93.505 175.734C93.505 176.946 93.6304 177.972 93.8814 178.81C94.1371 179.643 94.4993 180.275 94.968 180.706C95.4368 181.132 96.0002 181.345 96.6584 181.345ZM110.023 168.455V183H107.821V170.656H107.736L104.256 172.929V170.827L107.885 168.455H110.023ZM119.022 183.241C117.9 183.237 116.941 182.941 116.145 182.354C115.35 181.767 114.741 180.912 114.32 179.79C113.899 178.668 113.688 177.316 113.688 175.734C113.688 174.158 113.899 172.811 114.32 171.693C114.746 170.576 115.357 169.723 116.152 169.136C116.953 168.549 117.909 168.256 119.022 168.256C120.134 168.256 121.088 168.552 121.884 169.143C122.679 169.731 123.288 170.583 123.709 171.7C124.135 172.813 124.348 174.158 124.348 175.734C124.348 177.321 124.138 178.675 123.716 179.797C123.295 180.914 122.686 181.769 121.891 182.361C121.096 182.948 120.139 183.241 119.022 183.241ZM119.022 181.345C120.007 181.345 120.776 180.865 121.33 179.903C121.889 178.942 122.168 177.553 122.168 175.734C122.168 174.527 122.04 173.507 121.784 172.673C121.533 171.835 121.171 171.201 120.698 170.77C120.229 170.334 119.67 170.116 119.022 170.116C118.042 170.116 117.272 170.599 116.713 171.565C116.155 172.531 115.873 173.921 115.868 175.734C115.868 176.946 115.994 177.972 116.245 178.81C116.5 179.643 116.863 180.275 117.331 180.706C117.8 181.132 118.364 181.345 119.022 181.345ZM126.967 183L133.317 170.443V170.337H125.973V168.455H135.589V170.401L129.261 183H126.967Z" fill="#5E031F"/>
</svg>
