<svg width="200" height="200" viewBox="0 0 200 200" fill="none" xmlns="http://www.w3.org/2000/svg">
<rect x="2.5" y="2.5" width="195" height="195" rx="2.5" fill="white" stroke="#5E031F" stroke-width="5"/>
<path d="M11.0653 36V33.9545L18.7472 25.5455C19.6487 24.5606 20.3911 23.7045 20.9744 22.9773C21.5578 22.2424 21.9896 21.553 22.2699 20.9091C22.5578 20.2576 22.7017 19.5758 22.7017 18.8636C22.7017 18.0455 22.5047 17.3371 22.1108 16.7386C21.7244 16.1402 21.1941 15.678 20.5199 15.3523C19.8456 15.0265 19.0881 14.8636 18.2472 14.8636C17.3532 14.8636 16.5729 15.0492 15.9062 15.4205C15.2472 15.7841 14.7358 16.2955 14.3722 16.9545C14.0161 17.6136 13.8381 18.3864 13.8381 19.2727H11.1562C11.1562 17.9091 11.4706 16.7121 12.0994 15.6818C12.7282 14.6515 13.5843 13.8485 14.6676 13.2727C15.7585 12.697 16.982 12.4091 18.3381 12.4091C19.7017 12.4091 20.91 12.697 21.9631 13.2727C23.0161 13.8485 23.8419 14.625 24.4403 15.6023C25.0388 16.5795 25.3381 17.6667 25.3381 18.8636C25.3381 19.7197 25.1828 20.5568 24.8722 21.375C24.5691 22.1856 24.0388 23.0909 23.2812 24.0909C22.5312 25.0833 21.4896 26.2955 20.1562 27.7273L14.929 33.3182V33.5H25.7472V36H11.0653ZM37.8494 12.4091C38.804 12.4167 39.7585 12.5985 40.7131 12.9545C41.6676 13.3106 42.5388 13.9015 43.3267 14.7273C44.1146 15.5455 44.7472 16.6629 45.2244 18.0795C45.7017 19.4962 45.9403 21.2727 45.9403 23.4091C45.9403 25.4773 45.7434 27.3144 45.3494 28.9205C44.9631 30.5189 44.4025 31.8674 43.6676 32.9659C42.9403 34.0644 42.054 34.8977 41.0085 35.4659C39.9706 36.0341 38.7964 36.3182 37.4858 36.3182C36.1828 36.3182 35.0199 36.0606 33.9972 35.5455C32.982 35.0227 32.1487 34.2992 31.4972 33.375C30.8532 32.4432 30.4403 31.3636 30.2585 30.1364H33.0312C33.2812 31.2045 33.7775 32.0871 34.5199 32.7841C35.2699 33.4735 36.2585 33.8182 37.4858 33.8182C39.2813 33.8182 40.6979 33.0341 41.7358 31.4659C42.7813 29.8977 43.304 27.6818 43.304 24.8182H43.1222C42.6979 25.4545 42.1941 26.0038 41.6108 26.4659C41.0275 26.928 40.3797 27.2841 39.6676 27.5341C38.9555 27.7841 38.1979 27.9091 37.3949 27.9091C36.0616 27.9091 34.8381 27.5795 33.7244 26.9205C32.6184 26.2538 31.732 25.3409 31.0653 24.1818C30.4062 23.0152 30.0767 21.6818 30.0767 20.1818C30.0767 18.7576 30.3949 17.4545 31.0312 16.2727C31.6752 15.0833 32.5767 14.1364 33.7358 13.4318C34.9025 12.7273 36.2737 12.3864 37.8494 12.4091ZM37.8494 14.9091C36.8949 14.9091 36.035 15.1477 35.2699 15.625C34.5123 16.0947 33.91 16.7311 33.4631 17.5341C33.0237 18.3295 32.804 19.2121 32.804 20.1818C32.804 21.1515 33.0161 22.0341 33.4403 22.8295C33.8722 23.6174 34.4593 24.2462 35.2017 24.7159C35.9517 25.178 36.804 25.4091 37.7585 25.4091C38.4782 25.4091 39.1487 25.2689 39.7699 24.9886C40.3911 24.7008 40.9328 24.3106 41.3949 23.8182C41.8646 23.3182 42.232 22.7538 42.4972 22.125C42.7623 21.4886 42.8949 20.8258 42.8949 20.1364C42.8949 19.2273 42.6752 18.375 42.2358 17.5795C41.804 16.7841 41.2055 16.1402 40.4403 15.6477C39.6828 15.1553 38.8191 14.9091 37.8494 14.9091Z" fill="#5E031F"/>
<path d="M101.21 60.5909H94.1193C93.8466 59.0758 93.339 57.7424 92.5966 56.5909C91.8542 55.4394 90.9451 54.4621 89.8693 53.6591C88.7936 52.8561 87.589 52.25 86.2557 51.8409C84.9375 51.4318 83.536 51.2273 82.0511 51.2273C79.3693 51.2273 76.9678 51.9015 74.8466 53.25C72.7405 54.5985 71.0739 56.5758 69.8466 59.1818C68.6345 61.7879 68.0284 64.9697 68.0284 68.7273C68.0284 72.5152 68.6345 75.7121 69.8466 78.3182C71.0739 80.9242 72.7481 82.8939 74.8693 84.2273C76.9905 85.5606 79.3769 86.2273 82.0284 86.2273C83.4981 86.2273 84.892 86.0303 86.2102 85.6364C87.5436 85.2273 88.7481 84.6288 89.8239 83.8409C90.8996 83.053 91.8087 82.0909 92.5511 80.9545C93.3087 79.803 93.8314 78.4848 94.1193 77L101.21 77.0227C100.831 79.3106 100.097 81.4167 99.0057 83.3409C97.9299 85.25 96.5436 86.9015 94.8466 88.2955C93.1648 89.6742 91.2405 90.7424 89.0739 91.5C86.9072 92.2576 84.5436 92.6364 81.983 92.6364C77.9527 92.6364 74.3617 91.6818 71.2102 89.7727C68.0587 87.8485 65.5739 85.0985 63.7557 81.5227C61.9527 77.947 61.0511 73.6818 61.0511 68.7273C61.0511 63.7576 61.9602 59.4924 63.7784 55.9318C65.5966 52.3561 68.0814 49.6136 71.233 47.7045C74.3845 45.7803 77.9678 44.8182 81.983 44.8182C84.4527 44.8182 86.7557 45.1742 88.892 45.8864C91.0436 46.5833 92.9754 47.6136 94.6875 48.9773C96.3996 50.3258 97.8163 51.9773 98.9375 53.9318C100.059 55.8712 100.816 58.0909 101.21 60.5909ZM131.182 77.5227V57.0909H138V92H131.318V85.9545H130.955C130.152 87.8182 128.864 89.3712 127.091 90.6136C125.333 91.8409 123.144 92.4545 120.523 92.4545C118.28 92.4545 116.295 91.9621 114.568 90.9773C112.856 89.9773 111.508 88.5 110.523 86.5455C109.553 84.5909 109.068 82.1742 109.068 79.2955V57.0909H115.864V78.4773C115.864 80.8561 116.523 82.75 117.841 84.1591C119.159 85.5682 120.871 86.2727 122.977 86.2727C124.25 86.2727 125.515 85.9545 126.773 85.3182C128.045 84.6818 129.098 83.7197 129.932 82.4318C130.78 81.1439 131.197 79.5076 131.182 77.5227Z" fill="#5E031F"/>
<path d="M65.1989 118.295H61.6534C61.517 117.538 61.2633 116.871 60.892 116.295C60.5208 115.72 60.0663 115.231 59.5284 114.83C58.9905 114.428 58.3883 114.125 57.7216 113.92C57.0625 113.716 56.3617 113.614 55.6193 113.614C54.2784 113.614 53.0777 113.951 52.017 114.625C50.964 115.299 50.1307 116.288 49.517 117.591C48.911 118.894 48.608 120.485 48.608 122.364C48.608 124.258 48.911 125.856 49.517 127.159C50.1307 128.462 50.9678 129.447 52.0284 130.114C53.089 130.78 54.2822 131.114 55.608 131.114C56.3428 131.114 57.0398 131.015 57.6989 130.818C58.3655 130.614 58.9678 130.314 59.5057 129.92C60.0436 129.527 60.4981 129.045 60.8693 128.477C61.2481 127.902 61.5095 127.242 61.6534 126.5L65.1989 126.511C65.0095 127.655 64.642 128.708 64.0966 129.67C63.5587 130.625 62.8655 131.451 62.017 132.148C61.1761 132.837 60.214 133.371 59.1307 133.75C58.0473 134.129 56.8655 134.318 55.5852 134.318C53.5701 134.318 51.7746 133.841 50.1989 132.886C48.6231 131.924 47.3807 130.549 46.4716 128.761C45.5701 126.973 45.1193 124.841 45.1193 122.364C45.1193 119.879 45.5739 117.746 46.483 115.966C47.392 114.178 48.6345 112.807 50.2102 111.852C51.786 110.89 53.5777 110.409 55.5852 110.409C56.8201 110.409 57.9716 110.587 59.0398 110.943C60.1155 111.292 61.0814 111.807 61.9375 112.489C62.7936 113.163 63.5019 113.989 64.0625 114.966C64.6231 115.936 65.0019 117.045 65.1989 118.295ZM76.4801 134.352C74.8438 134.352 73.4157 133.977 72.196 133.227C70.9763 132.477 70.0294 131.428 69.3551 130.08C68.6809 128.731 68.3438 127.155 68.3438 125.352C68.3438 123.542 68.6809 121.958 69.3551 120.602C70.0294 119.246 70.9763 118.193 72.196 117.443C73.4157 116.693 74.8438 116.318 76.4801 116.318C78.1165 116.318 79.5445 116.693 80.7642 117.443C81.9839 118.193 82.9309 119.246 83.6051 120.602C84.2794 121.958 84.6165 123.542 84.6165 125.352C84.6165 127.155 84.2794 128.731 83.6051 130.08C82.9309 131.428 81.9839 132.477 80.7642 133.227C79.5445 133.977 78.1165 134.352 76.4801 134.352ZM76.4915 131.5C77.5521 131.5 78.4309 131.22 79.1278 130.659C79.8248 130.098 80.34 129.352 80.6733 128.42C81.0142 127.489 81.1847 126.462 81.1847 125.341C81.1847 124.227 81.0142 123.205 80.6733 122.273C80.34 121.333 79.8248 120.58 79.1278 120.011C78.4309 119.443 77.5521 119.159 76.4915 119.159C75.4233 119.159 74.5369 119.443 73.8324 120.011C73.1354 120.58 72.6165 121.333 72.2756 122.273C71.9422 123.205 71.7756 124.227 71.7756 125.341C71.7756 126.462 71.9422 127.489 72.2756 128.42C72.6165 129.352 73.1354 130.098 73.8324 130.659C74.5369 131.22 75.4233 131.5 76.4915 131.5ZM88.4091 140.545V116.545H91.7273V119.375H92.0114C92.2083 119.011 92.4924 118.591 92.8636 118.114C93.2348 117.636 93.75 117.22 94.4091 116.864C95.0682 116.5 95.9394 116.318 97.0227 116.318C98.4318 116.318 99.6894 116.674 100.795 117.386C101.902 118.098 102.769 119.125 103.398 120.466C104.034 121.807 104.352 123.42 104.352 125.307C104.352 127.193 104.038 128.811 103.409 130.159C102.78 131.5 101.917 132.534 100.818 133.261C99.7197 133.981 98.4659 134.341 97.0568 134.341C95.9962 134.341 95.1288 134.163 94.4545 133.807C93.7879 133.451 93.2652 133.034 92.8864 132.557C92.5076 132.08 92.2159 131.655 92.0114 131.284H91.8068V140.545H88.4091ZM91.7386 125.273C91.7386 126.5 91.9167 127.576 92.2727 128.5C92.6288 129.424 93.1439 130.148 93.8182 130.67C94.4924 131.186 95.3182 131.443 96.2955 131.443C97.3106 131.443 98.1591 131.174 98.8409 130.636C99.5227 130.091 100.038 129.352 100.386 128.42C100.742 127.489 100.92 126.439 100.92 125.273C100.92 124.121 100.746 123.087 100.398 122.17C100.057 121.254 99.5417 120.53 98.8523 120C98.1705 119.47 97.3182 119.205 96.2955 119.205C95.3106 119.205 94.4773 119.458 93.7955 119.966C93.1212 120.473 92.6098 121.182 92.2614 122.091C91.9129 123 91.7386 124.061 91.7386 125.273ZM108.159 140.545V116.545H111.477V119.375H111.761C111.958 119.011 112.242 118.591 112.614 118.114C112.985 117.636 113.5 117.22 114.159 116.864C114.818 116.5 115.689 116.318 116.773 116.318C118.182 116.318 119.439 116.674 120.545 117.386C121.652 118.098 122.519 119.125 123.148 120.466C123.784 121.807 124.102 123.42 124.102 125.307C124.102 127.193 123.788 128.811 123.159 130.159C122.53 131.5 121.667 132.534 120.568 133.261C119.47 133.981 118.216 134.341 116.807 134.341C115.746 134.341 114.879 134.163 114.205 133.807C113.538 133.451 113.015 133.034 112.636 132.557C112.258 132.08 111.966 131.655 111.761 131.284H111.557V140.545H108.159ZM111.489 125.273C111.489 126.5 111.667 127.576 112.023 128.5C112.379 129.424 112.894 130.148 113.568 130.67C114.242 131.186 115.068 131.443 116.045 131.443C117.061 131.443 117.909 131.174 118.591 130.636C119.273 130.091 119.788 129.352 120.136 128.42C120.492 127.489 120.67 126.439 120.67 125.273C120.67 124.121 120.496 123.087 120.148 122.17C119.807 121.254 119.292 120.53 118.602 120C117.92 119.47 117.068 119.205 116.045 119.205C115.061 119.205 114.227 119.458 113.545 119.966C112.871 120.473 112.36 121.182 112.011 122.091C111.663 123 111.489 124.061 111.489 125.273ZM135.432 134.352C133.712 134.352 132.231 133.985 130.989 133.25C129.754 132.508 128.799 131.466 128.125 130.125C127.458 128.777 127.125 127.197 127.125 125.386C127.125 123.598 127.458 122.023 128.125 120.659C128.799 119.295 129.739 118.231 130.943 117.466C132.155 116.701 133.572 116.318 135.193 116.318C136.178 116.318 137.133 116.481 138.057 116.807C138.981 117.133 139.811 117.644 140.545 118.341C141.28 119.038 141.86 119.943 142.284 121.057C142.708 122.163 142.92 123.508 142.92 125.091V126.295H129.045V123.75H139.591C139.591 122.856 139.409 122.064 139.045 121.375C138.682 120.678 138.17 120.129 137.511 119.727C136.86 119.326 136.095 119.125 135.216 119.125C134.261 119.125 133.428 119.36 132.716 119.83C132.011 120.292 131.466 120.898 131.08 121.648C130.701 122.39 130.511 123.197 130.511 124.068V126.057C130.511 127.223 130.716 128.216 131.125 129.034C131.542 129.852 132.121 130.477 132.864 130.909C133.606 131.333 134.473 131.545 135.466 131.545C136.11 131.545 136.697 131.455 137.227 131.273C137.758 131.083 138.216 130.803 138.602 130.432C138.989 130.061 139.284 129.602 139.489 129.057L142.705 129.636C142.447 130.583 141.985 131.413 141.318 132.125C140.659 132.83 139.83 133.379 138.83 133.773C137.837 134.159 136.705 134.352 135.432 134.352ZM146.69 134V116.545H149.974V119.318H150.156C150.474 118.379 151.035 117.64 151.838 117.102C152.649 116.557 153.565 116.284 154.588 116.284C154.8 116.284 155.05 116.292 155.338 116.307C155.634 116.322 155.865 116.341 156.031 116.364V119.614C155.895 119.576 155.652 119.534 155.304 119.489C154.955 119.436 154.607 119.409 154.259 119.409C153.455 119.409 152.74 119.58 152.111 119.92C151.49 120.254 150.997 120.72 150.634 121.318C150.27 121.909 150.088 122.583 150.088 123.341V134H146.69Z" fill="#5E031F"/>
<path d="M72.073 183.199C71.4243 183.189 70.7851 183.071 70.1554 182.844C69.5304 182.616 68.9622 182.238 68.4508 181.707C67.9395 181.177 67.5299 180.464 67.2221 179.57C66.9191 178.675 66.7676 177.557 66.7676 176.217C66.7676 174.948 66.8931 173.821 67.144 172.837C67.3997 171.852 67.7666 171.021 68.2449 170.344C68.7231 169.662 69.3007 169.143 69.9778 168.788C70.6549 168.433 71.4148 168.256 72.2576 168.256C73.1241 168.256 73.8935 168.426 74.5659 168.767C75.2382 169.108 75.7827 169.579 76.1994 170.18C76.6208 170.782 76.8883 171.466 77.002 172.233H74.8358C74.689 171.627 74.3978 171.132 73.9622 170.749C73.5266 170.365 72.9584 170.173 72.2576 170.173C71.1923 170.173 70.3613 170.637 69.7647 171.565C69.1729 172.493 68.8746 173.784 68.8699 175.436H68.9764C69.2273 175.024 69.5351 174.674 69.8997 174.385C70.269 174.091 70.6809 173.866 71.1355 173.71C71.5948 173.549 72.0777 173.469 72.5843 173.469C73.4271 173.469 74.1895 173.675 74.8713 174.087C75.5578 174.494 76.1047 175.057 76.5119 175.777C76.9191 176.497 77.1227 177.321 77.1227 178.249C77.1227 179.177 76.912 180.017 76.4906 180.77C76.0739 181.523 75.4868 182.119 74.7292 182.56C73.9717 182.995 73.0862 183.208 72.073 183.199ZM72.0659 181.352C72.6246 181.352 73.1241 181.215 73.5645 180.94C74.0048 180.666 74.3528 180.296 74.6085 179.832C74.8642 179.368 74.992 178.85 74.992 178.277C74.992 177.718 74.8665 177.209 74.6156 176.75C74.3694 176.291 74.0285 175.926 73.5929 175.656C73.162 175.386 72.6696 175.251 72.1156 175.251C71.6942 175.251 71.3036 175.332 70.9437 175.493C70.5886 175.654 70.2761 175.876 70.0062 176.161C69.7363 176.445 69.5233 176.771 69.367 177.141C69.2155 177.505 69.1397 177.891 69.1397 178.298C69.1397 178.843 69.2652 179.347 69.5162 179.811C69.7718 180.275 70.1199 180.649 70.5602 180.933C71.0053 181.213 71.5072 181.352 72.0659 181.352ZM84.7736 183.199C83.7982 183.199 82.927 183.031 82.16 182.695C81.3977 182.358 80.794 181.892 80.3489 181.295C79.9086 180.694 79.6718 179.998 79.6387 179.207H81.8688C81.8972 179.638 82.0416 180.012 82.302 180.33C82.5672 180.642 82.9128 180.884 83.339 181.054C83.7651 181.224 84.2386 181.31 84.7594 181.31C85.3323 181.31 85.839 181.21 86.2793 181.011C86.7244 180.812 87.0724 180.536 87.3233 180.18C87.5743 179.821 87.6998 179.406 87.6998 178.938C87.6998 178.45 87.5743 178.021 87.3233 177.652C87.0771 177.278 86.7149 176.984 86.2367 176.771C85.7632 176.558 85.1903 176.452 84.5179 176.452H83.2892V174.662H84.5179C85.0577 174.662 85.5312 174.565 85.9384 174.371C86.3503 174.177 86.6723 173.907 86.9043 173.561C87.1363 173.211 87.2523 172.801 87.2523 172.332C87.2523 171.883 87.1505 171.492 86.9469 171.161C86.748 170.824 86.464 170.562 86.0946 170.372C85.7301 170.183 85.2992 170.088 84.802 170.088C84.3285 170.088 83.8858 170.176 83.4739 170.351C83.0667 170.521 82.7353 170.768 82.4796 171.089C82.2239 171.407 82.0866 171.788 82.0676 172.233H79.9441C79.9677 171.447 80.1998 170.756 80.6401 170.159C81.0852 169.562 81.6723 169.096 82.4015 168.76C83.1306 168.424 83.9403 168.256 84.8304 168.256C85.7632 168.256 86.5681 168.438 87.2452 168.803C87.927 169.162 88.4526 169.643 88.8219 170.244C89.196 170.846 89.3806 171.504 89.3759 172.219C89.3806 173.033 89.1534 173.724 88.6941 174.293C88.2395 174.861 87.6335 175.242 86.8759 175.436V175.55C87.8418 175.696 88.5899 176.08 89.1202 176.7C89.6552 177.321 89.9204 178.09 89.9157 179.009C89.9204 179.809 89.6979 180.526 89.248 181.161C88.803 181.795 88.1945 182.295 87.4228 182.659C86.651 183.019 85.7679 183.199 84.7736 183.199ZM93.5982 183.135C93.2099 183.135 92.8761 182.998 92.5968 182.723C92.3174 182.444 92.1777 182.107 92.1777 181.714C92.1777 181.326 92.3174 180.995 92.5968 180.72C92.8761 180.441 93.2099 180.301 93.5982 180.301C93.9864 180.301 94.3203 180.441 94.5996 180.72C94.879 180.995 95.0186 181.326 95.0186 181.714C95.0186 181.975 94.9524 182.214 94.8198 182.432C94.6919 182.645 94.5215 182.815 94.3084 182.943C94.0953 183.071 93.8586 183.135 93.5982 183.135ZM102.401 183.199C101.511 183.199 100.711 183.028 100.001 182.688C99.2954 182.342 98.7319 181.868 98.3105 181.267C97.8891 180.666 97.6642 179.979 97.6358 179.207H99.7665C99.8186 179.832 100.096 180.346 100.597 180.749C101.099 181.151 101.701 181.352 102.401 181.352C102.96 181.352 103.455 181.224 103.886 180.969C104.321 180.708 104.662 180.351 104.909 179.896C105.16 179.442 105.285 178.923 105.285 178.341C105.285 177.749 105.157 177.221 104.901 176.757C104.646 176.293 104.293 175.929 103.843 175.663C103.398 175.398 102.887 175.263 102.309 175.259C101.869 175.259 101.426 175.334 100.981 175.486C100.536 175.637 100.176 175.836 99.9015 176.082L97.8915 175.784L98.7083 168.455H106.705V170.337H100.534L100.072 174.406H100.157C100.441 174.132 100.818 173.902 101.286 173.717C101.76 173.533 102.267 173.44 102.806 173.44C103.692 173.44 104.48 173.651 105.171 174.072C105.867 174.494 106.414 175.069 106.812 175.798C107.214 176.523 107.413 177.356 107.409 178.298C107.413 179.241 107.2 180.081 106.769 180.82C106.343 181.558 105.751 182.141 104.994 182.567C104.241 182.988 103.377 183.199 102.401 183.199ZM109.697 180.159V178.384L115.983 168.455H117.382V171.068H116.494L111.998 178.185V178.298H120.613V180.159H109.697ZM116.594 183V179.619L116.608 178.81V168.455H118.689V183H116.594ZM128.167 183.199C127.518 183.189 126.879 183.071 126.249 182.844C125.624 182.616 125.056 182.238 124.545 181.707C124.033 181.177 123.624 180.464 123.316 179.57C123.013 178.675 122.861 177.557 122.861 176.217C122.861 174.948 122.987 173.821 123.238 172.837C123.493 171.852 123.86 171.021 124.339 170.344C124.817 169.662 125.394 169.143 126.072 168.788C126.749 168.433 127.509 168.256 128.351 168.256C129.218 168.256 129.987 168.426 130.66 168.767C131.332 169.108 131.876 169.579 132.293 170.18C132.715 170.782 132.982 171.466 133.096 172.233H130.93C130.783 171.627 130.492 171.132 130.056 170.749C129.62 170.365 129.052 170.173 128.351 170.173C127.286 170.173 126.455 170.637 125.858 171.565C125.267 172.493 124.968 173.784 124.964 175.436H125.07C125.321 175.024 125.629 174.674 125.993 174.385C126.363 174.091 126.775 173.866 127.229 173.71C127.689 173.549 128.171 173.469 128.678 173.469C129.521 173.469 130.283 173.675 130.965 174.087C131.652 174.494 132.198 175.057 132.606 175.777C133.013 176.497 133.216 177.321 133.216 178.249C133.216 179.177 133.006 180.017 132.584 180.77C132.168 181.523 131.581 182.119 130.823 182.56C130.065 182.995 129.18 183.208 128.167 183.199ZM128.16 181.352C128.718 181.352 129.218 181.215 129.658 180.94C130.099 180.666 130.447 180.296 130.702 179.832C130.958 179.368 131.086 178.85 131.086 178.277C131.086 177.718 130.96 177.209 130.709 176.75C130.463 176.291 130.122 175.926 129.687 175.656C129.256 175.386 128.763 175.251 128.209 175.251C127.788 175.251 127.397 175.332 127.037 175.493C126.682 175.654 126.37 175.876 126.1 176.161C125.83 176.445 125.617 176.771 125.461 177.141C125.309 177.505 125.233 177.891 125.233 178.298C125.233 178.843 125.359 179.347 125.61 179.811C125.866 180.275 126.214 180.649 126.654 180.933C127.099 181.213 127.601 181.352 128.16 181.352Z" fill="#5E031F"/>
</svg>
