<svg width="200" height="200" viewBox="0 0 200 200" fill="none" xmlns="http://www.w3.org/2000/svg">
<rect x="2.5" y="2.5" width="195" height="195" rx="2.5" fill="white" stroke="#5E031F" stroke-width="5"/>
<path d="M18.8494 12.4091C19.804 12.4167 20.7585 12.5985 21.7131 12.9545C22.6676 13.3106 23.5388 13.9015 24.3267 14.7273C25.1146 15.5455 25.7472 16.6629 26.2244 18.0795C26.7017 19.4962 26.9403 21.2727 26.9403 23.4091C26.9403 25.4773 26.7434 27.3144 26.3494 28.9205C25.9631 30.5189 25.4025 31.8674 24.6676 32.9659C23.9403 34.0644 23.054 34.8977 22.0085 35.4659C20.9706 36.0341 19.7964 36.3182 18.4858 36.3182C17.1828 36.3182 16.0199 36.0606 14.9972 35.5455C13.982 35.0227 13.1487 34.2992 12.4972 33.375C11.8532 32.4432 11.4403 31.3636 11.2585 30.1364H14.0312C14.2812 31.2045 14.7775 32.0871 15.5199 32.7841C16.2699 33.4735 17.2585 33.8182 18.4858 33.8182C20.2813 33.8182 21.6979 33.0341 22.7358 31.4659C23.7813 29.8977 24.304 27.6818 24.304 24.8182H24.1222C23.6979 25.4545 23.1941 26.0038 22.6108 26.4659C22.0275 26.928 21.3797 27.2841 20.6676 27.5341C19.9555 27.7841 19.1979 27.9091 18.3949 27.9091C17.0616 27.9091 15.8381 27.5795 14.7244 26.9205C13.6184 26.2538 12.732 25.3409 12.0653 24.1818C11.4062 23.0152 11.0767 21.6818 11.0767 20.1818C11.0767 18.7576 11.3949 17.4545 12.0312 16.2727C12.6752 15.0833 13.5767 14.1364 14.7358 13.4318C15.9025 12.7273 17.2737 12.3864 18.8494 12.4091ZM18.8494 14.9091C17.8949 14.9091 17.035 15.1477 16.2699 15.625C15.5123 16.0947 14.91 16.7311 14.4631 17.5341C14.0237 18.3295 13.804 19.2121 13.804 20.1818C13.804 21.1515 14.0161 22.0341 14.4403 22.8295C14.8722 23.6174 15.4593 24.2462 16.2017 24.7159C16.9517 25.178 17.804 25.4091 18.7585 25.4091C19.4782 25.4091 20.1487 25.2689 20.7699 24.9886C21.3911 24.7008 21.9328 24.3106 22.3949 23.8182C22.8646 23.3182 23.232 22.7538 23.4972 22.125C23.7623 21.4886 23.8949 20.8258 23.8949 20.1364C23.8949 19.2273 23.6752 18.375 23.2358 17.5795C22.804 16.7841 22.2055 16.1402 21.4403 15.6477C20.6828 15.1553 19.8191 14.9091 18.8494 14.9091Z" fill="#5E031F"/>
<path d="M86.3636 92V45.4545H115.227V51.5H93.3864V65.6818H113.159V71.7045H93.3864V92H86.3636Z" fill="#5E031F"/>
<path d="M50.4787 134V110.727H64.9105V113.75H53.9901V120.841H63.8764V123.852H53.9901V134H50.4787ZM72.3537 110.727V134H68.956V110.727H72.3537ZM84.277 134.352C82.6406 134.352 81.2126 133.977 79.9929 133.227C78.7732 132.477 77.8262 131.428 77.152 130.08C76.4777 128.731 76.1406 127.155 76.1406 125.352C76.1406 123.542 76.4777 121.958 77.152 120.602C77.8262 119.246 78.7732 118.193 79.9929 117.443C81.2126 116.693 82.6406 116.318 84.277 116.318C85.9134 116.318 87.3414 116.693 88.5611 117.443C89.7808 118.193 90.7277 119.246 91.402 120.602C92.0762 121.958 92.4134 123.542 92.4134 125.352C92.4134 127.155 92.0762 128.731 91.402 130.08C90.7277 131.428 89.7808 132.477 88.5611 133.227C87.3414 133.977 85.9134 134.352 84.277 134.352ZM84.2884 131.5C85.349 131.5 86.2277 131.22 86.9247 130.659C87.6217 130.098 88.1368 129.352 88.4702 128.42C88.8111 127.489 88.9815 126.462 88.9815 125.341C88.9815 124.227 88.8111 123.205 88.4702 122.273C88.1368 121.333 87.6217 120.58 86.9247 120.011C86.2277 119.443 85.349 119.159 84.2884 119.159C83.2202 119.159 82.3338 119.443 81.6293 120.011C80.9323 120.58 80.4134 121.333 80.0724 122.273C79.7391 123.205 79.5724 124.227 79.5724 125.341C79.5724 126.462 79.7391 127.489 80.0724 128.42C80.4134 129.352 80.9323 130.098 81.6293 130.659C82.3338 131.22 83.2202 131.5 84.2884 131.5ZM96.206 134V116.545H99.4901V119.318H99.6719C99.9901 118.379 100.551 117.64 101.354 117.102C102.164 116.557 103.081 116.284 104.104 116.284C104.316 116.284 104.566 116.292 104.854 116.307C105.149 116.322 105.38 116.341 105.547 116.364V119.614C105.411 119.576 105.168 119.534 104.82 119.489C104.471 119.436 104.123 119.409 103.774 119.409C102.971 119.409 102.255 119.58 101.626 119.92C101.005 120.254 100.513 120.72 100.149 121.318C99.7855 121.909 99.6037 122.583 99.6037 123.341V134H96.206ZM108.487 134V116.545H111.885V134H108.487ZM110.203 113.852C109.612 113.852 109.105 113.655 108.68 113.261C108.264 112.86 108.055 112.383 108.055 111.83C108.055 111.269 108.264 110.792 108.68 110.398C109.105 109.996 109.612 109.795 110.203 109.795C110.794 109.795 111.298 109.996 111.714 110.398C112.139 110.792 112.351 111.269 112.351 111.83C112.351 112.383 112.139 112.86 111.714 113.261C111.298 113.655 110.794 113.852 110.203 113.852ZM119.854 123.636V134H116.456V116.545H119.717V119.386H119.933C120.335 118.462 120.964 117.72 121.82 117.159C122.683 116.598 123.77 116.318 125.081 116.318C126.27 116.318 127.312 116.568 128.206 117.068C129.1 117.561 129.793 118.295 130.286 119.273C130.778 120.25 131.024 121.458 131.024 122.898V134H127.626V123.307C127.626 122.042 127.297 121.053 126.638 120.341C125.979 119.621 125.073 119.261 123.922 119.261C123.134 119.261 122.433 119.432 121.82 119.773C121.214 120.114 120.732 120.614 120.376 121.273C120.028 121.924 119.854 122.712 119.854 123.636ZM143.104 134.352C141.384 134.352 139.903 133.985 138.661 133.25C137.426 132.508 136.471 131.466 135.797 130.125C135.13 128.777 134.797 127.197 134.797 125.386C134.797 123.598 135.13 122.023 135.797 120.659C136.471 119.295 137.411 118.231 138.615 117.466C139.827 116.701 141.244 116.318 142.865 116.318C143.85 116.318 144.804 116.481 145.729 116.807C146.653 117.133 147.482 117.644 148.217 118.341C148.952 119.038 149.532 119.943 149.956 121.057C150.38 122.163 150.592 123.508 150.592 125.091V126.295H136.717V123.75H147.263C147.263 122.856 147.081 122.064 146.717 121.375C146.354 120.678 145.842 120.129 145.183 119.727C144.532 119.326 143.767 119.125 142.888 119.125C141.933 119.125 141.1 119.36 140.388 119.83C139.683 120.292 139.138 120.898 138.751 121.648C138.373 122.39 138.183 123.197 138.183 124.068V126.057C138.183 127.223 138.388 128.216 138.797 129.034C139.214 129.852 139.793 130.477 140.536 130.909C141.278 131.333 142.145 131.545 143.138 131.545C143.782 131.545 144.369 131.455 144.899 131.273C145.429 131.083 145.888 130.803 146.274 130.432C146.661 130.061 146.956 129.602 147.161 129.057L150.376 129.636C150.119 130.583 149.657 131.413 148.99 132.125C148.331 132.83 147.501 133.379 146.501 133.773C145.509 134.159 144.376 134.352 143.104 134.352Z" fill="#5E031F"/>
<path d="M37.3375 168.455V183H35.1358V170.656H35.0506L31.5705 172.929V170.827L35.1998 168.455H37.3375ZM46.187 183.199C45.169 183.199 44.2694 183.024 43.4881 182.673C42.7116 182.323 42.1032 181.84 41.6628 181.224C41.2225 180.609 41.0047 179.908 41.0094 179.122C41.0047 178.507 41.1301 177.941 41.3858 177.425C41.6462 176.904 41.999 176.471 42.4441 176.125C42.8891 175.775 43.3863 175.552 43.9355 175.457V175.372C43.2111 175.197 42.6311 174.809 42.1955 174.207C41.7599 173.606 41.5444 172.915 41.5492 172.134C41.5444 171.39 41.7409 170.727 42.1387 170.145C42.5411 169.558 43.0927 169.096 43.7935 168.76C44.4943 168.424 45.2921 168.256 46.187 168.256C47.0724 168.256 47.8631 168.426 48.5591 168.767C49.2599 169.103 49.8115 169.565 50.214 170.152C50.6164 170.734 50.82 171.395 50.8248 172.134C50.82 172.915 50.5975 173.606 50.1571 174.207C49.7168 174.809 49.1439 175.197 48.4384 175.372V175.457C48.9829 175.552 49.473 175.775 49.9086 176.125C50.3489 176.471 50.6993 176.904 50.9597 177.425C51.2248 177.941 51.3598 178.507 51.3645 179.122C51.3598 179.908 51.1373 180.609 50.6969 181.224C50.2566 181.84 49.6458 182.323 48.8645 182.673C48.088 183.024 47.1955 183.199 46.187 183.199ZM46.187 181.402C46.7883 181.402 47.3091 181.303 47.7495 181.104C48.1898 180.9 48.5307 180.618 48.7722 180.259C49.0137 179.894 49.1368 179.468 49.1415 178.98C49.1368 178.473 49.0042 178.026 48.7438 177.638C48.4881 177.25 48.1401 176.944 47.6998 176.722C47.2594 176.499 46.7551 176.388 46.187 176.388C45.6141 176.388 45.1051 176.499 44.66 176.722C44.2149 176.944 43.8645 177.25 43.6088 177.638C43.3532 178.026 43.2277 178.473 43.2324 178.98C43.2277 179.468 43.3437 179.894 43.5804 180.259C43.8219 180.618 44.1652 180.9 44.6103 181.104C45.0553 181.303 45.5809 181.402 46.187 181.402ZM46.187 174.634C46.6699 174.634 47.0984 174.536 47.4725 174.342C47.8465 174.148 48.1401 173.878 48.3532 173.533C48.571 173.187 48.6822 172.782 48.687 172.318C48.6822 171.864 48.5733 171.466 48.3603 171.125C48.1519 170.784 47.8607 170.521 47.4867 170.337C47.1126 170.147 46.6794 170.053 46.187 170.053C45.6851 170.053 45.2447 170.147 44.8659 170.337C44.4919 170.521 44.2007 170.784 43.9924 171.125C43.784 171.466 43.6822 171.864 43.687 172.318C43.6822 172.782 43.7864 173.187 43.9995 173.533C44.2125 173.878 44.5061 174.148 44.8801 174.342C45.2589 174.536 45.6945 174.634 46.187 174.634ZM54.9068 183.135C54.5185 183.135 54.1847 182.998 53.9054 182.723C53.626 182.444 53.4863 182.107 53.4863 181.714C53.4863 181.326 53.626 180.995 53.9054 180.72C54.1847 180.441 54.5185 180.301 54.9068 180.301C55.295 180.301 55.6288 180.441 55.9082 180.72C56.1876 180.995 56.3272 181.326 56.3272 181.714C56.3272 181.975 56.2609 182.214 56.1284 182.432C56.0005 182.645 55.8301 182.815 55.617 182.943C55.4039 183.071 55.1672 183.135 54.9068 183.135ZM63.8042 168.256C64.4528 168.26 65.092 168.379 65.7218 168.611C66.3515 168.843 66.9197 169.222 67.4263 169.747C67.9377 170.273 68.3449 170.983 68.6479 171.878C68.9557 172.768 69.1119 173.876 69.1167 175.202C69.1167 176.475 68.9888 177.609 68.7331 178.604C68.4775 179.593 68.1105 180.429 67.6323 181.111C67.1588 181.793 66.5835 182.311 65.9064 182.666C65.2293 183.021 64.467 183.199 63.6195 183.199C62.753 183.199 61.9836 183.028 61.3113 182.688C60.6389 182.347 60.092 181.875 59.6706 181.274C59.2492 180.668 58.9864 179.972 58.8823 179.186H61.0485C61.1905 179.811 61.4793 180.318 61.915 180.706C62.3553 181.089 62.9235 181.281 63.6195 181.281C64.6848 181.281 65.5158 180.817 66.1124 179.889C66.709 178.956 67.0096 177.654 67.0144 175.983H66.9007C66.6545 176.39 66.3468 176.741 65.9775 177.034C65.6129 177.328 65.2033 177.555 64.7488 177.716C64.2942 177.877 63.8089 177.957 63.2928 177.957C62.4547 177.957 61.6924 177.751 61.0059 177.339C60.3193 176.928 59.7724 176.362 59.3652 175.642C58.958 174.922 58.7544 174.101 58.7544 173.178C58.7544 172.259 58.9628 171.426 59.3794 170.678C59.8008 169.929 60.388 169.338 61.1408 168.902C61.8984 168.462 62.7862 168.246 63.8042 168.256ZM63.8113 170.102C63.2573 170.102 62.7578 170.24 62.3127 170.514C61.8723 170.784 61.5243 171.151 61.2686 171.615C61.013 172.074 60.8851 172.586 60.8851 173.149C60.8851 173.713 61.0082 174.224 61.2544 174.683C61.5054 175.138 61.8463 175.5 62.2772 175.77C62.7128 176.035 63.2099 176.168 63.7686 176.168C64.1853 176.168 64.5736 176.087 64.9334 175.926C65.2933 175.765 65.6081 175.543 65.878 175.259C66.1479 174.97 66.3586 174.643 66.5101 174.278C66.6616 173.914 66.7374 173.53 66.7374 173.128C66.7374 172.593 66.6096 172.096 66.3539 171.636C66.1029 171.177 65.7573 170.808 65.3169 170.528C64.8766 170.244 64.3747 170.102 63.8113 170.102ZM76.519 168.256C77.1677 168.26 77.8069 168.379 78.4366 168.611C79.0663 168.843 79.6345 169.222 80.1412 169.747C80.6525 170.273 81.0597 170.983 81.3627 171.878C81.6705 172.768 81.8268 173.876 81.8315 175.202C81.8315 176.475 81.7037 177.609 81.448 178.604C81.1923 179.593 80.8253 180.429 80.3471 181.111C79.8736 181.793 79.2984 182.311 78.6213 182.666C77.9442 183.021 77.1819 183.199 76.3343 183.199C75.4679 183.199 74.6984 183.028 74.0261 182.688C73.3538 182.347 72.8069 181.875 72.3855 181.274C71.9641 180.668 71.7013 179.972 71.5971 179.186H73.7633C73.9054 179.811 74.1942 180.318 74.6298 180.706C75.0701 181.089 75.6383 181.281 76.3343 181.281C77.3997 181.281 78.2306 180.817 78.8272 179.889C79.4238 178.956 79.7245 177.654 79.7292 175.983H79.6156C79.3694 176.39 79.0616 176.741 78.6923 177.034C78.3277 177.328 77.9181 177.555 77.4636 177.716C77.0091 177.877 76.5237 177.957 76.0076 177.957C75.1696 177.957 74.4073 177.751 73.7207 177.339C73.0342 176.928 72.4873 176.362 72.0801 175.642C71.6729 174.922 71.4693 174.101 71.4693 173.178C71.4693 172.259 71.6776 171.426 72.0943 170.678C72.5157 169.929 73.1028 169.338 73.8556 168.902C74.6132 168.462 75.501 168.246 76.519 168.256ZM76.5261 170.102C75.9721 170.102 75.4726 170.24 75.0275 170.514C74.5872 170.784 74.2392 171.151 73.9835 171.615C73.7278 172.074 73.6 172.586 73.6 173.149C73.6 173.713 73.7231 174.224 73.9693 174.683C74.2202 175.138 74.5611 175.5 74.992 175.77C75.4276 176.035 75.9248 176.168 76.4835 176.168C76.9002 176.168 77.2884 176.087 77.6483 175.926C78.0081 175.765 78.323 175.543 78.5929 175.259C78.8627 174.97 79.0734 174.643 79.225 174.278C79.3765 173.914 79.4522 173.53 79.4522 173.128C79.4522 172.593 79.3244 172.096 79.0687 171.636C78.8178 171.177 78.4721 170.808 78.0318 170.528C77.5914 170.244 77.0895 170.102 76.5261 170.102ZM89.312 183.199C88.294 183.199 87.3944 183.024 86.6131 182.673C85.8366 182.323 85.2282 181.84 84.7878 181.224C84.3475 180.609 84.1297 179.908 84.1344 179.122C84.1297 178.507 84.2551 177.941 84.5108 177.425C84.7712 176.904 85.124 176.471 85.5691 176.125C86.0141 175.775 86.5113 175.552 87.0605 175.457V175.372C86.3361 175.197 85.7561 174.809 85.3205 174.207C84.8849 173.606 84.6694 172.915 84.6742 172.134C84.6694 171.39 84.8659 170.727 85.2637 170.145C85.6661 169.558 86.2177 169.096 86.9185 168.76C87.6193 168.424 88.4171 168.256 89.312 168.256C90.1974 168.256 90.9881 168.426 91.6841 168.767C92.3849 169.103 92.9365 169.565 93.339 170.152C93.7414 170.734 93.945 171.395 93.9498 172.134C93.945 172.915 93.7225 173.606 93.2821 174.207C92.8418 174.809 92.2689 175.197 91.5634 175.372V175.457C92.1079 175.552 92.598 175.775 93.0336 176.125C93.4739 176.471 93.8243 176.904 94.0847 177.425C94.3498 177.941 94.4848 178.507 94.4895 179.122C94.4848 179.908 94.2623 180.609 93.8219 181.224C93.3816 181.84 92.7708 182.323 91.9895 182.673C91.213 183.024 90.3205 183.199 89.312 183.199ZM89.312 181.402C89.9133 181.402 90.4341 181.303 90.8745 181.104C91.3148 180.9 91.6557 180.618 91.8972 180.259C92.1387 179.894 92.2618 179.468 92.2665 178.98C92.2618 178.473 92.1292 178.026 91.8688 177.638C91.6131 177.25 91.2651 176.944 90.8248 176.722C90.3844 176.499 89.8801 176.388 89.312 176.388C88.7391 176.388 88.2301 176.499 87.785 176.722C87.3399 176.944 86.9895 177.25 86.7338 177.638C86.4782 178.026 86.3527 178.473 86.3574 178.98C86.3527 179.468 86.4687 179.894 86.7054 180.259C86.9469 180.618 87.2902 180.9 87.7353 181.104C88.1803 181.303 88.7059 181.402 89.312 181.402ZM89.312 174.634C89.7949 174.634 90.2234 174.536 90.5975 174.342C90.9715 174.148 91.2651 173.878 91.4782 173.533C91.696 173.187 91.8072 172.782 91.812 172.318C91.8072 171.864 91.6983 171.466 91.4853 171.125C91.2769 170.784 90.9857 170.521 90.6117 170.337C90.2376 170.147 89.8044 170.053 89.312 170.053C88.8101 170.053 88.3697 170.147 87.9909 170.337C87.6169 170.521 87.3257 170.784 87.1174 171.125C86.909 171.466 86.8072 171.864 86.812 172.318C86.8072 172.782 86.9114 173.187 87.1245 173.533C87.3375 173.878 87.6311 174.148 88.0051 174.342C88.3839 174.536 88.8195 174.634 89.312 174.634ZM96.7285 180.159V178.384L103.014 168.455H104.413V171.068H103.525L99.0297 178.185V178.298H107.645V180.159H96.7285ZM103.625 183V179.619L103.639 178.81V168.455H105.72V183H103.625ZM115.184 183.241C114.062 183.237 113.103 182.941 112.307 182.354C111.512 181.767 110.903 180.912 110.482 179.79C110.061 178.668 109.85 177.316 109.85 175.734C109.85 174.158 110.061 172.811 110.482 171.693C110.908 170.576 111.519 169.723 112.314 169.136C113.115 168.549 114.071 168.256 115.184 168.256C116.296 168.256 117.251 168.552 118.046 169.143C118.841 169.731 119.45 170.583 119.871 171.7C120.297 172.813 120.51 174.158 120.51 175.734C120.51 177.321 120.3 178.675 119.878 179.797C119.457 180.914 118.849 181.769 118.053 182.361C117.258 182.948 116.301 183.241 115.184 183.241ZM115.184 181.345C116.169 181.345 116.938 180.865 117.492 179.903C118.051 178.942 118.33 177.553 118.33 175.734C118.33 174.527 118.202 173.507 117.947 172.673C117.696 171.835 117.333 171.201 116.86 170.77C116.391 170.334 115.832 170.116 115.184 170.116C114.204 170.116 113.434 170.599 112.876 171.565C112.317 172.531 112.035 173.921 112.03 175.734C112.03 176.946 112.156 177.972 112.407 178.81C112.662 179.643 113.025 180.275 113.493 180.706C113.962 181.132 114.526 181.345 115.184 181.345ZM128.094 183.199C127.119 183.199 126.247 183.031 125.48 182.695C124.718 182.358 124.114 181.892 123.669 181.295C123.229 180.694 122.992 179.998 122.959 179.207H125.189C125.218 179.638 125.362 180.012 125.622 180.33C125.887 180.642 126.233 180.884 126.659 181.054C127.085 181.224 127.559 181.31 128.08 181.31C128.653 181.31 129.159 181.21 129.6 181.011C130.045 180.812 130.393 180.536 130.644 180.18C130.895 179.821 131.02 179.406 131.02 178.938C131.02 178.45 130.895 178.021 130.644 177.652C130.397 177.278 130.035 176.984 129.557 176.771C129.084 176.558 128.511 176.452 127.838 176.452H126.61V174.662H127.838C128.378 174.662 128.852 174.565 129.259 174.371C129.671 174.177 129.993 173.907 130.225 173.561C130.457 173.211 130.573 172.801 130.573 172.332C130.573 171.883 130.471 171.492 130.267 171.161C130.068 170.824 129.784 170.562 129.415 170.372C129.05 170.183 128.619 170.088 128.122 170.088C127.649 170.088 127.206 170.176 126.794 170.351C126.387 170.521 126.056 170.768 125.8 171.089C125.544 171.407 125.407 171.788 125.388 172.233H123.264C123.288 171.447 123.52 170.756 123.96 170.159C124.405 169.562 124.993 169.096 125.722 168.76C126.451 168.424 127.261 168.256 128.151 168.256C129.084 168.256 129.888 168.438 130.566 168.803C131.247 169.162 131.773 169.643 132.142 170.244C132.516 170.846 132.701 171.504 132.696 172.219C132.701 173.033 132.474 173.724 132.014 174.293C131.56 174.861 130.954 175.242 130.196 175.436V175.55C131.162 175.696 131.91 176.08 132.441 176.7C132.976 177.321 133.241 178.09 133.236 179.009C133.241 179.809 133.018 180.526 132.568 181.161C132.123 181.795 131.515 182.295 130.743 182.659C129.971 183.019 129.088 183.199 128.094 183.199ZM141.439 168.455V183H139.237V170.656H139.152L135.672 172.929V170.827L139.301 168.455H141.439ZM150.452 183.199C149.803 183.189 149.164 183.071 148.534 182.844C147.909 182.616 147.341 182.238 146.83 181.707C146.318 181.177 145.909 180.464 145.601 179.57C145.298 178.675 145.146 177.557 145.146 176.217C145.146 174.948 145.272 173.821 145.523 172.837C145.779 171.852 146.146 171.021 146.624 170.344C147.102 169.662 147.68 169.143 148.357 168.788C149.034 168.433 149.794 168.256 150.637 168.256C151.503 168.256 152.272 168.426 152.945 168.767C153.617 169.108 154.162 169.579 154.578 170.18C155 170.782 155.267 171.466 155.381 172.233H153.215C153.068 171.627 152.777 171.132 152.341 170.749C151.905 170.365 151.337 170.173 150.637 170.173C149.571 170.173 148.74 170.637 148.144 171.565C147.552 172.493 147.253 173.784 147.249 175.436H147.355C147.606 175.024 147.914 174.674 148.279 174.385C148.648 174.091 149.06 173.866 149.514 173.71C149.974 173.549 150.457 173.469 150.963 173.469C151.806 173.469 152.568 173.675 153.25 174.087C153.937 174.494 154.484 175.057 154.891 175.777C155.298 176.497 155.502 177.321 155.502 178.249C155.502 179.177 155.291 180.017 154.869 180.77C154.453 181.523 153.866 182.119 153.108 182.56C152.351 182.995 151.465 183.208 150.452 183.199ZM150.445 181.352C151.003 181.352 151.503 181.215 151.943 180.94C152.384 180.666 152.732 180.296 152.987 179.832C153.243 179.368 153.371 178.85 153.371 178.277C153.371 177.718 153.245 177.209 152.994 176.75C152.748 176.291 152.407 175.926 151.972 175.656C151.541 175.386 151.048 175.251 150.494 175.251C150.073 175.251 149.682 175.332 149.323 175.493C148.968 175.654 148.655 175.876 148.385 176.161C148.115 176.445 147.902 176.771 147.746 177.141C147.594 177.505 147.519 177.891 147.519 178.298C147.519 178.843 147.644 179.347 147.895 179.811C148.151 180.275 148.499 180.649 148.939 180.933C149.384 181.213 149.886 181.352 150.445 181.352ZM163.153 183.199C162.177 183.199 161.306 183.031 160.539 182.695C159.777 182.358 159.173 181.892 158.728 181.295C158.287 180.694 158.051 179.998 158.018 179.207H160.248C160.276 179.638 160.421 180.012 160.681 180.33C160.946 180.642 161.292 180.884 161.718 181.054C162.144 181.224 162.617 181.31 163.138 181.31C163.711 181.31 164.218 181.21 164.658 181.011C165.103 180.812 165.451 180.536 165.702 180.18C165.953 179.821 166.079 179.406 166.079 178.938C166.079 178.45 165.953 178.021 165.702 177.652C165.456 177.278 165.094 176.984 164.616 176.771C164.142 176.558 163.569 176.452 162.897 176.452H161.668V174.662H162.897C163.437 174.662 163.91 174.565 164.317 174.371C164.729 174.177 165.051 173.907 165.283 173.561C165.515 173.211 165.631 172.801 165.631 172.332C165.631 171.883 165.529 171.492 165.326 171.161C165.127 170.824 164.843 170.562 164.474 170.372C164.109 170.183 163.678 170.088 163.181 170.088C162.707 170.088 162.265 170.176 161.853 170.351C161.446 170.521 161.114 170.768 160.858 171.089C160.603 171.407 160.465 171.788 160.447 172.233H158.323C158.347 171.447 158.579 170.756 159.019 170.159C159.464 169.562 160.051 169.096 160.78 168.76C161.51 168.424 162.319 168.256 163.209 168.256C164.142 168.256 164.947 168.438 165.624 168.803C166.306 169.162 166.831 169.643 167.201 170.244C167.575 170.846 167.76 171.504 167.755 172.219C167.76 173.033 167.532 173.724 167.073 174.293C166.618 174.861 166.012 175.242 165.255 175.436V175.55C166.221 175.696 166.969 176.08 167.499 176.7C168.034 177.321 168.299 178.09 168.295 179.009C168.299 179.809 168.077 180.526 167.627 181.161C167.182 181.795 166.573 182.295 165.802 182.659C165.03 183.019 164.147 183.199 163.153 183.199Z" fill="#5E031F"/>
</svg>
