<svg width="200" height="200" viewBox="0 0 200 200" fill="none" xmlns="http://www.w3.org/2000/svg">
<rect x="2.5" y="2.5" width="195" height="195" rx="2.5" fill="white" stroke="#5E031F" stroke-width="5"/>
<path d="M18.0227 36.3182C16.5227 36.3182 15.1856 36.0606 14.0114 35.5455C12.8447 35.0303 11.9167 34.3144 11.2273 33.3977C10.5455 32.4735 10.1742 31.4015 10.1136 30.1818H12.9773C13.0379 30.9318 13.2955 31.5795 13.75 32.125C14.2045 32.6629 14.7992 33.0795 15.5341 33.375C16.2689 33.6705 17.0833 33.8182 17.9773 33.8182C18.9773 33.8182 19.8636 33.6439 20.6364 33.2955C21.4091 32.947 22.0152 32.4621 22.4545 31.8409C22.8939 31.2197 23.1136 30.5 23.1136 29.6818C23.1136 28.8258 22.9015 28.072 22.4773 27.4205C22.053 26.7614 21.4318 26.2462 20.6136 25.875C19.7955 25.5038 18.7955 25.3182 17.6136 25.3182H15.75V22.8182H17.6136C18.5379 22.8182 19.3485 22.6515 20.0455 22.3182C20.75 21.9848 21.2992 21.5152 21.6932 20.9091C22.0947 20.303 22.2955 19.5909 22.2955 18.7727C22.2955 17.9848 22.1212 17.2992 21.7727 16.7159C21.4242 16.1326 20.9318 15.678 20.2955 15.3523C19.6667 15.0265 18.9242 14.8636 18.0682 14.8636C17.2652 14.8636 16.5076 15.0114 15.7955 15.3068C15.0909 15.5947 14.5152 16.0152 14.0682 16.5682C13.6212 17.1136 13.3788 17.7727 13.3409 18.5455H10.6136C10.6591 17.3258 11.0265 16.2576 11.7159 15.3409C12.4053 14.4167 13.3068 13.697 14.4205 13.1818C15.5417 12.6667 16.7727 12.4091 18.1136 12.4091C19.553 12.4091 20.7879 12.7008 21.8182 13.2841C22.8485 13.8598 23.6402 14.6212 24.1932 15.5682C24.7462 16.5152 25.0227 17.5379 25.0227 18.6364C25.0227 19.947 24.678 21.0644 23.9886 21.9886C23.3068 22.9129 22.3788 23.553 21.2045 23.9091V24.0909C22.6742 24.3333 23.822 24.9583 24.6477 25.9659C25.4735 26.9659 25.8864 28.2045 25.8864 29.6818C25.8864 30.947 25.5417 32.0833 24.8523 33.0909C24.1705 34.0909 23.2386 34.8788 22.0568 35.4545C20.875 36.0303 19.5303 36.3182 18.0227 36.3182ZM38.7159 12.7273V36H35.8977V15.6818H35.7614L30.0795 19.4545V16.5909L35.8977 12.7273H38.7159Z" fill="#5E031F"/>
<path d="M94.4261 60.1591C93.9867 58.7803 93.3958 57.5455 92.6534 56.4545C91.9261 55.3485 91.0549 54.4091 90.0398 53.6364C89.0246 52.8485 87.8655 52.25 86.5625 51.8409C85.2746 51.4318 83.858 51.2273 82.3125 51.2273C79.6913 51.2273 77.3277 51.9015 75.2216 53.25C73.1155 54.5985 71.4489 56.5758 70.2216 59.1818C69.0095 61.7727 68.4034 64.947 68.4034 68.7045C68.4034 72.4773 69.017 75.6667 70.2443 78.2727C71.4716 80.8788 73.1534 82.8561 75.2898 84.2045C77.4261 85.553 79.858 86.2273 82.5852 86.2273C85.1155 86.2273 87.3201 85.7121 89.1989 84.6818C91.0928 83.6515 92.5549 82.197 93.5852 80.3182C94.6307 78.4242 95.1534 76.197 95.1534 73.6364L96.9716 73.9773H83.6534V68.1818H101.949V73.4773C101.949 77.3864 101.116 80.7803 99.4489 83.6591C97.7973 86.5227 95.5095 88.7348 92.5852 90.2955C89.6761 91.8561 86.3428 92.6364 82.5852 92.6364C78.3731 92.6364 74.6761 91.6667 71.4943 89.7273C68.3277 87.7879 65.858 85.0379 64.0852 81.4773C62.3125 77.9015 61.4261 73.6591 61.4261 68.75C61.4261 65.0379 61.9413 61.7045 62.9716 58.75C64.0019 55.7955 65.4489 53.2879 67.3125 51.2273C69.1913 49.1515 71.3958 47.5682 73.9261 46.4773C76.4716 45.3712 79.2519 44.8182 82.267 44.8182C84.7822 44.8182 87.1231 45.1894 89.2898 45.9318C91.4716 46.6742 93.411 47.7273 95.108 49.0909C96.8201 50.4545 98.2367 52.0758 99.358 53.9545C100.479 55.8182 101.237 57.8864 101.631 60.1591H94.4261ZM120.477 92.7727C118.265 92.7727 116.265 92.3636 114.477 91.5455C112.689 90.7121 111.273 89.5076 110.227 87.9318C109.197 86.3561 108.682 84.4242 108.682 82.1364C108.682 80.1667 109.061 78.5455 109.818 77.2727C110.576 76 111.598 74.9924 112.886 74.25C114.174 73.5076 115.614 72.947 117.205 72.5682C118.795 72.1894 120.417 71.9015 122.068 71.7045C124.159 71.4621 125.856 71.2652 127.159 71.1136C128.462 70.947 129.409 70.6818 130 70.3182C130.591 69.9545 130.886 69.3636 130.886 68.5455V68.3864C130.886 66.4015 130.326 64.8636 129.205 63.7727C128.098 62.6818 126.447 62.1364 124.25 62.1364C121.962 62.1364 120.159 62.6439 118.841 63.6591C117.538 64.6591 116.636 65.7727 116.136 67L109.75 65.5455C110.508 63.4242 111.614 61.7121 113.068 60.4091C114.538 59.0909 116.227 58.1364 118.136 57.5455C120.045 56.9394 122.053 56.6364 124.159 56.6364C125.553 56.6364 127.03 56.803 128.591 57.1364C130.167 57.4545 131.636 58.0455 133 58.9091C134.379 59.7727 135.508 61.0076 136.386 62.6136C137.265 64.2045 137.705 66.2727 137.705 68.8182V92H131.068V87.2273H130.795C130.356 88.1061 129.697 88.9697 128.818 89.8182C127.939 90.6667 126.811 91.3712 125.432 91.9318C124.053 92.4924 122.402 92.7727 120.477 92.7727ZM121.955 87.3182C123.833 87.3182 125.439 86.947 126.773 86.2045C128.121 85.4621 129.144 84.4924 129.841 83.2955C130.553 82.0833 130.909 80.7879 130.909 79.4091V74.9091C130.667 75.1515 130.197 75.3788 129.5 75.5909C128.818 75.7879 128.038 75.9621 127.159 76.1136C126.28 76.25 125.424 76.3788 124.591 76.5C123.758 76.6061 123.061 76.697 122.5 76.7727C121.182 76.9394 119.977 77.2197 118.886 77.6136C117.811 78.0076 116.947 78.5758 116.295 79.3182C115.659 80.0455 115.341 81.0152 115.341 82.2273C115.341 83.9091 115.962 85.1818 117.205 86.0455C118.447 86.8939 120.03 87.3182 121.955 87.3182Z" fill="#5E031F"/>
<path d="M61.6037 118.08C61.384 117.39 61.0885 116.773 60.7173 116.227C60.3537 115.674 59.9181 115.205 59.4105 114.818C58.9029 114.424 58.3234 114.125 57.6719 113.92C57.0279 113.716 56.3196 113.614 55.5469 113.614C54.2363 113.614 53.0545 113.951 52.0014 114.625C50.9484 115.299 50.1151 116.288 49.5014 117.591C48.8954 118.886 48.5923 120.473 48.5923 122.352C48.5923 124.239 48.8991 125.833 49.5128 127.136C50.1264 128.439 50.9673 129.428 52.0355 130.102C53.1037 130.777 54.3196 131.114 55.6832 131.114C56.9484 131.114 58.0507 130.856 58.9901 130.341C59.937 129.826 60.6681 129.098 61.1832 128.159C61.706 127.212 61.9673 126.098 61.9673 124.818L62.8764 124.989H56.2173V122.091H65.3651V124.739C65.3651 126.693 64.9484 128.39 64.1151 129.83C63.2893 131.261 62.1454 132.367 60.6832 133.148C59.2287 133.928 57.562 134.318 55.6832 134.318C53.5772 134.318 51.7287 133.833 50.1378 132.864C48.5545 131.894 47.3196 130.519 46.4332 128.739C45.5469 126.951 45.1037 124.83 45.1037 122.375C45.1037 120.519 45.3613 118.852 45.8764 117.375C46.3916 115.898 47.1151 114.644 48.0469 113.614C48.9863 112.576 50.0885 111.784 51.3537 111.239C52.6264 110.686 54.0166 110.409 55.5241 110.409C56.7817 110.409 57.9522 110.595 59.0355 110.966C60.1264 111.337 61.0961 111.864 61.9446 112.545C62.8007 113.227 63.509 114.038 64.0696 114.977C64.6302 115.909 65.009 116.943 65.206 118.08H61.6037ZM74.6293 134.386C73.5232 134.386 72.5232 134.182 71.6293 133.773C70.7353 133.356 70.027 132.754 69.5043 131.966C68.9891 131.178 68.7315 130.212 68.7315 129.068C68.7315 128.083 68.9209 127.273 69.2997 126.636C69.6785 126 70.1899 125.496 70.8338 125.125C71.4777 124.754 72.1974 124.473 72.9929 124.284C73.7884 124.095 74.599 123.951 75.4247 123.852C76.4702 123.731 77.3187 123.633 77.9702 123.557C78.6217 123.473 79.0952 123.341 79.3906 123.159C79.6861 122.977 79.8338 122.682 79.8338 122.273V122.193C79.8338 121.201 79.5535 120.432 78.9929 119.886C78.4399 119.341 77.6141 119.068 76.5156 119.068C75.3717 119.068 74.4702 119.322 73.8111 119.83C73.1596 120.33 72.7088 120.886 72.4588 121.5L69.2656 120.773C69.6444 119.712 70.1974 118.856 70.9247 118.205C71.6596 117.545 72.5043 117.068 73.4588 116.773C74.4134 116.47 75.4171 116.318 76.4702 116.318C77.1671 116.318 77.9058 116.402 78.6861 116.568C79.474 116.727 80.2088 117.023 80.8906 117.455C81.58 117.886 82.1444 118.504 82.5838 119.307C83.0232 120.102 83.2429 121.136 83.2429 122.409V134H79.9247V131.614H79.7884C79.5687 132.053 79.2391 132.485 78.7997 132.909C78.3603 133.333 77.7959 133.686 77.1065 133.966C76.4171 134.246 75.5914 134.386 74.6293 134.386ZM75.3679 131.659C76.3073 131.659 77.1103 131.473 77.777 131.102C78.4512 130.731 78.9626 130.246 79.3111 129.648C79.6671 129.042 79.8452 128.394 79.8452 127.705V125.455C79.724 125.576 79.4891 125.689 79.1406 125.795C78.7997 125.894 78.4096 125.981 77.9702 126.057C77.5308 126.125 77.1027 126.189 76.6861 126.25C76.2694 126.303 75.9209 126.348 75.6406 126.386C74.9815 126.47 74.3793 126.61 73.8338 126.807C73.2959 127.004 72.8641 127.288 72.5384 127.659C72.2202 128.023 72.0611 128.508 72.0611 129.114C72.0611 129.955 72.3717 130.591 72.9929 131.023C73.6141 131.447 74.4058 131.659 75.3679 131.659ZM91.1662 110.727V134H87.7685V110.727H91.1662ZM99.1349 110.727V134H95.7372V110.727H99.1349ZM103.706 134V116.545H107.104V134H103.706ZM105.422 113.852C104.831 113.852 104.323 113.655 103.899 113.261C103.482 112.86 103.274 112.383 103.274 111.83C103.274 111.269 103.482 110.792 103.899 110.398C104.323 109.996 104.831 109.795 105.422 109.795C106.013 109.795 106.517 109.996 106.933 110.398C107.357 110.792 107.57 111.269 107.57 111.83C107.57 112.383 107.357 112.86 106.933 113.261C106.517 113.655 106.013 113.852 105.422 113.852ZM122.732 126.761V116.545H126.141V134H122.8V130.977H122.618C122.216 131.909 121.572 132.686 120.686 133.307C119.807 133.92 118.713 134.227 117.402 134.227C116.281 134.227 115.288 133.981 114.425 133.489C113.569 132.989 112.894 132.25 112.402 131.273C111.917 130.295 111.675 129.087 111.675 127.648V116.545H115.072V127.239C115.072 128.428 115.402 129.375 116.061 130.08C116.72 130.784 117.576 131.136 118.629 131.136C119.266 131.136 119.898 130.977 120.527 130.659C121.163 130.341 121.69 129.86 122.107 129.216C122.531 128.572 122.739 127.754 122.732 126.761ZM130.706 134V116.545H133.967V119.386H134.183C134.547 118.424 135.142 117.674 135.967 117.136C136.793 116.591 137.782 116.318 138.933 116.318C140.1 116.318 141.077 116.591 141.865 117.136C142.661 117.682 143.248 118.432 143.626 119.386H143.808C144.225 118.455 144.888 117.712 145.797 117.159C146.706 116.598 147.789 116.318 149.047 116.318C150.63 116.318 151.922 116.814 152.922 117.807C153.929 118.799 154.433 120.295 154.433 122.295V134H151.036V122.614C151.036 121.432 150.714 120.576 150.07 120.045C149.426 119.515 148.657 119.25 147.763 119.25C146.657 119.25 145.797 119.591 145.183 120.273C144.57 120.947 144.263 121.814 144.263 122.875V134H140.876V122.398C140.876 121.451 140.581 120.689 139.99 120.114C139.399 119.538 138.63 119.25 137.683 119.25C137.039 119.25 136.445 119.42 135.899 119.761C135.361 120.095 134.926 120.561 134.592 121.159C134.267 121.758 134.104 122.451 134.104 123.239V134H130.706Z" fill="#5E031F"/>
<path d="M73.0105 183.199C72.3618 183.189 71.7226 183.071 71.0929 182.844C70.4679 182.616 69.8997 182.238 69.3883 181.707C68.877 181.177 68.4674 180.464 68.1596 179.57C67.8566 178.675 67.7051 177.557 67.7051 176.217C67.7051 174.948 67.8306 173.821 68.0815 172.837C68.3372 171.852 68.7041 171.021 69.1824 170.344C69.6606 169.662 70.2382 169.143 70.9153 168.788C71.5924 168.433 72.3523 168.256 73.1951 168.256C74.0616 168.256 74.831 168.426 75.5034 168.767C76.1757 169.108 76.7202 169.579 77.1369 170.18C77.5583 170.782 77.8258 171.466 77.9395 172.233H75.7733C75.6265 171.627 75.3353 171.132 74.8997 170.749C74.4641 170.365 73.8959 170.173 73.1951 170.173C72.1298 170.173 71.2988 170.637 70.7022 171.565C70.1104 172.493 69.8121 173.784 69.8074 175.436H69.9139C70.1648 175.024 70.4726 174.674 70.8372 174.385C71.2065 174.091 71.6184 173.866 72.073 173.71C72.5323 173.549 73.0152 173.469 73.5218 173.469C74.3646 173.469 75.127 173.675 75.8088 174.087C76.4953 174.494 77.0422 175.057 77.4494 175.777C77.8566 176.497 78.0602 177.321 78.0602 178.249C78.0602 179.177 77.8495 180.017 77.4281 180.77C77.0114 181.523 76.4243 182.119 75.6667 182.56C74.9092 182.995 74.0237 183.208 73.0105 183.199ZM73.0034 181.352C73.5621 181.352 74.0616 181.215 74.502 180.94C74.9423 180.666 75.2903 180.296 75.546 179.832C75.8017 179.368 75.9295 178.85 75.9295 178.277C75.9295 177.718 75.804 177.209 75.5531 176.75C75.3069 176.291 74.966 175.926 74.5304 175.656C74.0995 175.386 73.6071 175.251 73.0531 175.251C72.6317 175.251 72.2411 175.332 71.8812 175.493C71.5261 175.654 71.2136 175.876 70.9437 176.161C70.6738 176.445 70.4608 176.771 70.3045 177.141C70.153 177.505 70.0772 177.891 70.0772 178.298C70.0772 178.843 70.2027 179.347 70.4537 179.811C70.7093 180.275 71.0574 180.649 71.4977 180.933C71.9428 181.213 72.4447 181.352 73.0034 181.352ZM85.4838 168.256C86.1325 168.26 86.7717 168.379 87.4015 168.611C88.0312 168.843 88.5994 169.222 89.106 169.747C89.6174 170.273 90.0246 170.983 90.3276 171.878C90.6354 172.768 90.7916 173.876 90.7963 175.202C90.7963 176.475 90.6685 177.609 90.4128 178.604C90.1571 179.593 89.7902 180.429 89.312 181.111C88.8385 181.793 88.2632 182.311 87.5861 182.666C86.909 183.021 86.1467 183.199 85.2992 183.199C84.4327 183.199 83.6633 183.028 82.9909 182.688C82.3186 182.347 81.7717 181.875 81.3503 181.274C80.9289 180.668 80.6661 179.972 80.562 179.186H82.7282C82.8702 179.811 83.159 180.318 83.5946 180.706C84.035 181.089 84.6032 181.281 85.2992 181.281C86.3645 181.281 87.1955 180.817 87.7921 179.889C88.3887 178.956 88.6893 177.654 88.6941 175.983H88.5804C88.3342 176.39 88.0265 176.741 87.6571 177.034C87.2926 177.328 86.883 177.555 86.4284 177.716C85.9739 177.877 85.4886 177.957 84.9725 177.957C84.1344 177.957 83.3721 177.751 82.6855 177.339C81.999 176.928 81.4521 176.362 81.0449 175.642C80.6377 174.922 80.4341 174.101 80.4341 173.178C80.4341 172.259 80.6425 171.426 81.0591 170.678C81.4805 169.929 82.0676 169.338 82.8205 168.902C83.5781 168.462 84.4658 168.246 85.4838 168.256ZM85.4909 170.102C84.937 170.102 84.4374 170.24 83.9924 170.514C83.552 170.784 83.204 171.151 82.9483 171.615C82.6926 172.074 82.5648 172.586 82.5648 173.149C82.5648 173.713 82.6879 174.224 82.9341 174.683C83.1851 175.138 83.526 175.5 83.9569 175.77C84.3925 176.035 84.8896 176.168 85.4483 176.168C85.865 176.168 86.2533 176.087 86.6131 175.926C86.973 175.765 87.2878 175.543 87.5577 175.259C87.8276 174.97 88.0383 174.643 88.1898 174.278C88.3413 173.914 88.4171 173.53 88.4171 173.128C88.4171 172.593 88.2892 172.096 88.0336 171.636C87.7826 171.177 87.437 170.808 86.9966 170.528C86.5563 170.244 86.0544 170.102 85.4909 170.102ZM94.2623 183.135C93.874 183.135 93.5402 182.998 93.2608 182.723C92.9815 182.444 92.8418 182.107 92.8418 181.714C92.8418 181.326 92.9815 180.995 93.2608 180.72C93.5402 180.441 93.874 180.301 94.2623 180.301C94.6505 180.301 94.9843 180.441 95.2637 180.72C95.543 180.995 95.6827 181.326 95.6827 181.714C95.6827 181.975 95.6164 182.214 95.4838 182.432C95.356 182.645 95.1855 182.815 94.9725 182.943C94.7594 183.071 94.5227 183.135 94.2623 183.135ZM98.6177 183L104.967 170.443V170.337H97.6234V168.455H107.24V170.401L100.912 183H98.6177ZM109.71 183V181.409L114.632 176.31C115.157 175.756 115.59 175.27 115.931 174.854C116.277 174.432 116.535 174.032 116.705 173.653C116.876 173.275 116.961 172.872 116.961 172.446C116.961 171.963 116.847 171.546 116.62 171.196C116.393 170.841 116.083 170.569 115.69 170.379C115.297 170.185 114.854 170.088 114.362 170.088C113.841 170.088 113.386 170.195 112.998 170.408C112.61 170.621 112.311 170.921 112.103 171.31C111.895 171.698 111.791 172.152 111.791 172.673H109.695C109.695 171.788 109.899 171.014 110.306 170.351C110.713 169.688 111.272 169.174 111.982 168.81C112.693 168.44 113.5 168.256 114.404 168.256C115.318 168.256 116.123 168.438 116.819 168.803C117.52 169.162 118.067 169.655 118.46 170.28C118.853 170.9 119.049 171.601 119.049 172.382C119.049 172.922 118.947 173.45 118.744 173.966C118.545 174.482 118.197 175.057 117.7 175.692C117.203 176.321 116.511 177.086 115.626 177.986L112.735 181.011V181.118H119.284V183H109.71ZM127.039 183.199C126.064 183.199 125.193 183.031 124.426 182.695C123.663 182.358 123.06 181.892 122.615 181.295C122.174 180.694 121.937 179.998 121.904 179.207H124.134C124.163 179.638 124.307 180.012 124.568 180.33C124.833 180.642 125.178 180.884 125.605 181.054C126.031 181.224 126.504 181.31 127.025 181.31C127.598 181.31 128.105 181.21 128.545 181.011C128.99 180.812 129.338 180.536 129.589 180.18C129.84 179.821 129.965 179.406 129.965 178.938C129.965 178.45 129.84 178.021 129.589 177.652C129.343 177.278 128.981 176.984 128.502 176.771C128.029 176.558 127.456 176.452 126.784 176.452H125.555V174.662H126.784C127.323 174.662 127.797 174.565 128.204 174.371C128.616 174.177 128.938 173.907 129.17 173.561C129.402 173.211 129.518 172.801 129.518 172.332C129.518 171.883 129.416 171.492 129.213 171.161C129.014 170.824 128.73 170.562 128.36 170.372C127.996 170.183 127.565 170.088 127.068 170.088C126.594 170.088 126.151 170.176 125.74 170.351C125.332 170.521 125.001 170.768 124.745 171.089C124.49 171.407 124.352 171.788 124.333 172.233H122.21C122.233 171.447 122.465 170.756 122.906 170.159C123.351 169.562 123.938 169.096 124.667 168.76C125.396 168.424 126.206 168.256 127.096 168.256C128.029 168.256 128.834 168.438 129.511 168.803C130.193 169.162 130.718 169.643 131.088 170.244C131.462 170.846 131.646 171.504 131.642 172.219C131.646 173.033 131.419 173.724 130.96 174.293C130.505 174.861 129.899 175.242 129.142 175.436V175.55C130.107 175.696 130.856 176.08 131.386 176.7C131.921 177.321 132.186 178.09 132.181 179.009C132.186 179.809 131.963 180.526 131.514 181.161C131.069 181.795 130.46 182.295 129.688 182.659C128.917 183.019 128.034 183.199 127.039 183.199Z" fill="#5E031F"/>
</svg>
