<svg width="200" height="200" viewBox="0 0 200 200" fill="none" xmlns="http://www.w3.org/2000/svg">
<rect x="2.5" y="2.5" width="195" height="195" rx="2.5" fill="white" stroke="#5E031F" stroke-width="5"/>
<path d="M13.8551 36L24.2642 15.4091V15.2273H12.2642V12.7273H27.1733V15.3636L16.8097 36H13.8551Z" fill="#5E031F"/>
<path d="M118.776 45.4545V92H112.321L88.6619 57.8636H88.2301V92H81.2074V45.4545H87.7074L111.389 79.6364H111.821V45.4545H118.776Z" fill="#5E031F"/>
<path d="M55.1534 110.727V134H51.9261L40.0966 116.932H39.8807V134H36.3693V110.727H39.6193L51.4602 127.818H51.6761V110.727H55.1534ZM60.0028 134V116.545H63.4006V134H60.0028ZM61.7188 113.852C61.1278 113.852 60.6203 113.655 60.196 113.261C59.7794 112.86 59.571 112.383 59.571 111.83C59.571 111.269 59.7794 110.792 60.196 110.398C60.6203 109.996 61.1278 109.795 61.7188 109.795C62.3097 109.795 62.8134 109.996 63.2301 110.398C63.6544 110.792 63.8665 111.269 63.8665 111.83C63.8665 112.383 63.6544 112.86 63.2301 113.261C62.8134 113.655 62.3097 113.852 61.7188 113.852ZM76.1193 116.545V119.273H66.5852V116.545H76.1193ZM69.142 112.364H72.5398V128.875C72.5398 129.534 72.6383 130.03 72.8352 130.364C73.0322 130.689 73.286 130.913 73.5966 131.034C73.9148 131.148 74.2595 131.205 74.6307 131.205C74.9034 131.205 75.142 131.186 75.3466 131.148C75.5511 131.11 75.7102 131.08 75.8239 131.057L76.4375 133.864C76.2405 133.939 75.9602 134.015 75.5966 134.091C75.233 134.174 74.7784 134.22 74.233 134.227C73.339 134.242 72.5057 134.083 71.733 133.75C70.9602 133.417 70.3352 132.902 69.858 132.205C69.3807 131.508 69.142 130.633 69.142 129.58V112.364ZM79.8778 134V116.545H83.1619V119.318H83.3438C83.6619 118.379 84.2225 117.64 85.0256 117.102C85.8362 116.557 86.7528 116.284 87.7756 116.284C87.9877 116.284 88.2377 116.292 88.5256 116.307C88.821 116.322 89.0521 116.341 89.2188 116.364V119.614C89.0824 119.576 88.84 119.534 88.4915 119.489C88.143 119.436 87.7945 119.409 87.446 119.409C86.643 119.409 85.9271 119.58 85.2983 119.92C84.6771 120.254 84.1847 120.72 83.821 121.318C83.4574 121.909 83.2756 122.583 83.2756 123.341V134H79.8778ZM98.8864 134.352C97.25 134.352 95.822 133.977 94.6023 133.227C93.3826 132.477 92.4356 131.428 91.7614 130.08C91.0871 128.731 90.75 127.155 90.75 125.352C90.75 123.542 91.0871 121.958 91.7614 120.602C92.4356 119.246 93.3826 118.193 94.6023 117.443C95.822 116.693 97.25 116.318 98.8864 116.318C100.523 116.318 101.951 116.693 103.17 117.443C104.39 118.193 105.337 119.246 106.011 120.602C106.686 121.958 107.023 123.542 107.023 125.352C107.023 127.155 106.686 128.731 106.011 130.08C105.337 131.428 104.39 132.477 103.17 133.227C101.951 133.977 100.523 134.352 98.8864 134.352ZM98.8977 131.5C99.9583 131.5 100.837 131.22 101.534 130.659C102.231 130.098 102.746 129.352 103.08 128.42C103.42 127.489 103.591 126.462 103.591 125.341C103.591 124.227 103.42 123.205 103.08 122.273C102.746 121.333 102.231 120.58 101.534 120.011C100.837 119.443 99.9583 119.159 98.8977 119.159C97.8295 119.159 96.9432 119.443 96.2386 120.011C95.5417 120.58 95.0227 121.333 94.6818 122.273C94.3485 123.205 94.1818 124.227 94.1818 125.341C94.1818 126.462 94.3485 127.489 94.6818 128.42C95.0227 129.352 95.5417 130.098 96.2386 130.659C96.9432 131.22 97.8295 131.5 98.8977 131.5ZM118.134 140.909C116.747 140.909 115.554 140.727 114.554 140.364C113.562 140 112.751 139.519 112.122 138.92C111.493 138.322 111.024 137.667 110.713 136.955L113.634 135.75C113.838 136.083 114.111 136.436 114.452 136.807C114.8 137.186 115.27 137.508 115.861 137.773C116.459 138.038 117.228 138.17 118.168 138.17C119.455 138.17 120.52 137.856 121.361 137.227C122.202 136.606 122.622 135.614 122.622 134.25V130.818H122.406C122.202 131.189 121.906 131.602 121.52 132.057C121.141 132.511 120.618 132.905 119.952 133.239C119.285 133.572 118.418 133.739 117.349 133.739C115.971 133.739 114.728 133.417 113.622 132.773C112.524 132.121 111.652 131.163 111.009 129.898C110.372 128.625 110.054 127.061 110.054 125.205C110.054 123.348 110.368 121.758 110.997 120.432C111.634 119.106 112.505 118.091 113.611 117.386C114.717 116.674 115.971 116.318 117.372 116.318C118.455 116.318 119.33 116.5 119.997 116.864C120.664 117.22 121.183 117.636 121.554 118.114C121.933 118.591 122.224 119.011 122.429 119.375H122.679V116.545H126.009V134.386C126.009 135.886 125.66 137.117 124.963 138.08C124.266 139.042 123.323 139.754 122.134 140.216C120.952 140.678 119.618 140.909 118.134 140.909ZM118.099 130.92C119.077 130.92 119.902 130.693 120.577 130.239C121.259 129.777 121.774 129.117 122.122 128.261C122.478 127.398 122.656 126.364 122.656 125.159C122.656 123.985 122.482 122.951 122.134 122.057C121.785 121.163 121.274 120.466 120.599 119.966C119.925 119.458 119.092 119.205 118.099 119.205C117.077 119.205 116.224 119.47 115.543 120C114.861 120.523 114.346 121.235 113.997 122.136C113.656 123.038 113.486 124.045 113.486 125.159C113.486 126.303 113.66 127.307 114.009 128.17C114.357 129.034 114.872 129.708 115.554 130.193C116.243 130.678 117.092 130.92 118.099 130.92ZM138.088 134.352C136.368 134.352 134.887 133.985 133.645 133.25C132.41 132.508 131.455 131.466 130.781 130.125C130.115 128.777 129.781 127.197 129.781 125.386C129.781 123.598 130.115 122.023 130.781 120.659C131.455 119.295 132.395 118.231 133.599 117.466C134.812 116.701 136.228 116.318 137.849 116.318C138.834 116.318 139.789 116.481 140.713 116.807C141.637 117.133 142.467 117.644 143.202 118.341C143.937 119.038 144.516 119.943 144.94 121.057C145.365 122.163 145.577 123.508 145.577 125.091V126.295H131.702V123.75H142.247C142.247 122.856 142.065 122.064 141.702 121.375C141.338 120.678 140.827 120.129 140.168 119.727C139.516 119.326 138.751 119.125 137.872 119.125C136.918 119.125 136.084 119.36 135.372 119.83C134.668 120.292 134.122 120.898 133.736 121.648C133.357 122.39 133.168 123.197 133.168 124.068V126.057C133.168 127.223 133.372 128.216 133.781 129.034C134.198 129.852 134.777 130.477 135.52 130.909C136.262 131.333 137.13 131.545 138.122 131.545C138.766 131.545 139.353 131.455 139.884 131.273C140.414 131.083 140.872 130.803 141.259 130.432C141.645 130.061 141.94 129.602 142.145 129.057L145.361 129.636C145.103 130.583 144.641 131.413 143.974 132.125C143.315 132.83 142.486 133.379 141.486 133.773C140.493 134.159 139.361 134.352 138.088 134.352ZM152.744 123.636V134H149.347V116.545H152.608V119.386H152.824C153.225 118.462 153.854 117.72 154.71 117.159C155.574 116.598 156.661 116.318 157.972 116.318C159.161 116.318 160.203 116.568 161.097 117.068C161.991 117.561 162.684 118.295 163.176 119.273C163.669 120.25 163.915 121.458 163.915 122.898V134H160.517V123.307C160.517 122.042 160.188 121.053 159.528 120.341C158.869 119.621 157.964 119.261 156.812 119.261C156.025 119.261 155.324 119.432 154.71 119.773C154.104 120.114 153.623 120.614 153.267 121.273C152.919 121.924 152.744 122.712 152.744 123.636Z" fill="#5E031F"/>
<path d="M62.3375 168.455V183H60.1358V170.656H60.0506L56.5705 172.929V170.827L60.1998 168.455H62.3375ZM65.9668 180.159V178.384L72.2523 168.455H73.6515V171.068H72.7637L68.2679 178.185V178.298H76.883V180.159H65.9668ZM72.8631 183V179.619L72.8773 178.81V168.455H74.9583V183H72.8631ZM80.2388 183.135C79.8506 183.135 79.5167 182.998 79.2374 182.723C78.958 182.444 78.8184 182.107 78.8184 181.714C78.8184 181.326 78.958 180.995 79.2374 180.72C79.5167 180.441 79.8506 180.301 80.2388 180.301C80.6271 180.301 80.9609 180.441 81.2402 180.72C81.5196 180.995 81.6593 181.326 81.6593 181.714C81.6593 181.975 81.593 182.214 81.4604 182.432C81.3326 182.645 81.1621 182.815 80.949 182.943C80.736 183.071 80.4992 183.135 80.2388 183.135ZM89.0119 183.241C87.8897 183.237 86.9309 182.941 86.1355 182.354C85.34 181.767 84.7316 180.912 84.3102 179.79C83.8888 178.668 83.6781 177.316 83.6781 175.734C83.6781 174.158 83.8888 172.811 84.3102 171.693C84.7363 170.576 85.3471 169.723 86.1426 169.136C86.9428 168.549 87.8992 168.256 89.0119 168.256C90.1246 168.256 91.0787 168.552 91.8741 169.143C92.6696 169.731 93.278 170.583 93.6994 171.7C94.1255 172.813 94.3386 174.158 94.3386 175.734C94.3386 177.321 94.1279 178.675 93.7065 179.797C93.2851 180.914 92.6767 181.769 91.8812 182.361C91.0858 182.948 90.1293 183.241 89.0119 183.241ZM89.0119 181.345C89.9967 181.345 90.7662 180.865 91.3201 179.903C91.8788 178.942 92.1582 177.553 92.1582 175.734C92.1582 174.527 92.0304 173.507 91.7747 172.673C91.5237 171.835 91.1615 171.201 90.688 170.77C90.2193 170.334 89.6606 170.116 89.0119 170.116C88.0318 170.116 87.2624 170.599 86.7037 171.565C86.1449 172.531 85.8632 173.921 85.8585 175.734C85.8585 176.946 85.984 177.972 86.2349 178.81C86.4906 179.643 86.8528 180.275 87.3216 180.706C87.7903 181.132 88.3538 181.345 89.0119 181.345ZM101.922 183.241C100.8 183.237 99.8411 182.941 99.0456 182.354C98.2502 181.767 97.6417 180.912 97.2203 179.79C96.7989 178.668 96.5882 177.316 96.5882 175.734C96.5882 174.158 96.7989 172.811 97.2203 171.693C97.6465 170.576 98.2573 169.723 99.0527 169.136C99.8529 168.549 100.809 168.256 101.922 168.256C103.035 168.256 103.989 168.552 104.784 169.143C105.58 169.731 106.188 170.583 106.61 171.7C107.036 172.813 107.249 174.158 107.249 175.734C107.249 177.321 107.038 178.675 106.617 179.797C106.195 180.914 105.587 181.769 104.791 182.361C103.996 182.948 103.039 183.241 101.922 183.241ZM101.922 181.345C102.907 181.345 103.676 180.865 104.23 179.903C104.789 178.942 105.068 177.553 105.068 175.734C105.068 174.527 104.941 173.507 104.685 172.673C104.434 171.835 104.072 171.201 103.598 170.77C103.129 170.334 102.571 170.116 101.922 170.116C100.942 170.116 100.173 170.599 99.6138 171.565C99.0551 172.531 98.7734 173.921 98.7686 175.734C98.7686 176.946 98.8941 177.972 99.1451 178.81C99.4007 179.643 99.763 180.275 100.232 180.706C100.7 181.132 101.264 181.345 101.922 181.345ZM114.846 183.199C114.198 183.189 113.559 183.071 112.929 182.844C112.304 182.616 111.736 182.238 111.224 181.707C110.713 181.177 110.303 180.464 109.996 179.57C109.693 178.675 109.541 177.557 109.541 176.217C109.541 174.948 109.666 173.821 109.917 172.837C110.173 171.852 110.54 171.021 111.018 170.344C111.497 169.662 112.074 169.143 112.751 168.788C113.428 168.433 114.188 168.256 115.031 168.256C115.898 168.256 116.667 168.426 117.339 168.767C118.012 169.108 118.556 169.579 118.973 170.18C119.394 170.782 119.662 171.466 119.775 172.233H117.609C117.462 171.627 117.171 171.132 116.736 170.749C116.3 170.365 115.732 170.173 115.031 170.173C113.966 170.173 113.135 170.637 112.538 171.565C111.946 172.493 111.648 173.784 111.643 175.436H111.75C112.001 175.024 112.309 174.674 112.673 174.385C113.042 174.091 113.454 173.866 113.909 173.71C114.368 173.549 114.851 173.469 115.358 173.469C116.201 173.469 116.963 173.675 117.645 174.087C118.331 174.494 118.878 175.057 119.285 175.777C119.693 176.497 119.896 177.321 119.896 178.249C119.896 179.177 119.685 180.017 119.264 180.77C118.847 181.523 118.26 182.119 117.503 182.56C116.745 182.995 115.86 183.208 114.846 183.199ZM114.839 181.352C115.398 181.352 115.898 181.215 116.338 180.94C116.778 180.666 117.126 180.296 117.382 179.832C117.638 179.368 117.765 178.85 117.765 178.277C117.765 177.718 117.64 177.209 117.389 176.75C117.143 176.291 116.802 175.926 116.366 175.656C115.935 175.386 115.443 175.251 114.889 175.251C114.468 175.251 114.077 175.332 113.717 175.493C113.362 175.654 113.05 175.876 112.78 176.161C112.51 176.445 112.297 176.771 112.14 177.141C111.989 177.505 111.913 177.891 111.913 178.298C111.913 178.843 112.039 179.347 112.29 179.811C112.545 180.275 112.893 180.649 113.334 180.933C113.779 181.213 114.281 181.352 114.839 181.352ZM122.973 183L129.323 170.443V170.337H121.979V168.455H131.595V170.401L125.267 183H122.973ZM132.588 180.159V178.384L138.873 168.455H140.273V171.068H139.385L134.889 178.185V178.298H143.504V180.159H132.588ZM139.484 183V179.619L139.498 178.81V168.455H141.579V183H139.484Z" fill="#5E031F"/>
</svg>
