<svg width="200" height="200" viewBox="0 0 200 200" fill="none" xmlns="http://www.w3.org/2000/svg">
<rect x="2.5" y="2.5" width="195" height="195" rx="2.5" fill="white" stroke="#5E031F" stroke-width="5"/>
<path d="M19.1449 36.3182C17.5843 36.3182 16.2055 36.0417 15.0085 35.4886C13.8191 34.928 12.8911 34.1591 12.2244 33.1818C11.5578 32.197 11.2282 31.0758 11.2358 29.8182C11.2282 28.8333 11.4214 27.9242 11.8153 27.0909C12.2093 26.25 12.7472 25.5492 13.429 24.9886C14.1184 24.4205 14.8873 24.0606 15.7358 23.9091V23.7727C14.6222 23.4848 13.7358 22.8598 13.0767 21.8977C12.4176 20.928 12.0919 19.8258 12.0994 18.5909C12.0919 17.4091 12.3911 16.3523 12.9972 15.4205C13.6032 14.4886 14.4366 13.7538 15.4972 13.2159C16.5653 12.678 17.7813 12.4091 19.1449 12.4091C20.4934 12.4091 21.6979 12.678 22.7585 13.2159C23.8191 13.7538 24.6525 14.4886 25.2585 15.4205C25.8722 16.3523 26.1828 17.4091 26.1903 18.5909C26.1828 19.8258 25.8456 20.928 25.179 21.8977C24.5199 22.8598 23.6449 23.4848 22.554 23.7727V23.9091C23.3949 24.0606 24.1525 24.4205 24.8267 24.9886C25.5009 25.5492 26.0388 26.25 26.4403 27.0909C26.8419 27.9242 27.0464 28.8333 27.054 29.8182C27.0464 31.0758 26.7055 32.197 26.0312 33.1818C25.3646 34.1591 24.4366 34.928 23.2472 35.4886C22.0653 36.0417 20.6979 36.3182 19.1449 36.3182ZM19.1449 33.8182C20.1979 33.8182 21.107 33.6477 21.8722 33.3068C22.6373 32.9659 23.2282 32.4848 23.6449 31.8636C24.0616 31.2424 24.2737 30.5152 24.2812 29.6818C24.2737 28.803 24.0464 28.0265 23.5994 27.3523C23.1525 26.678 22.5426 26.1477 21.7699 25.7614C21.0047 25.375 20.1297 25.1818 19.1449 25.1818C18.1525 25.1818 17.2661 25.375 16.4858 25.7614C15.7131 26.1477 15.1032 26.678 14.6562 27.3523C14.2169 28.0265 14.0009 28.803 14.0085 29.6818C14.0009 30.5152 14.2017 31.2424 14.6108 31.8636C15.0275 32.4848 15.6222 32.9659 16.3949 33.3068C17.1676 33.6477 18.0843 33.8182 19.1449 33.8182ZM19.1449 22.7727C19.9782 22.7727 20.7169 22.6061 21.3608 22.2727C22.0123 21.9394 22.5237 21.4735 22.8949 20.875C23.2661 20.2765 23.4555 19.5758 23.4631 18.7727C23.4555 17.9848 23.2699 17.2992 22.9062 16.7159C22.5426 16.125 22.0388 15.6705 21.3949 15.3523C20.7509 15.0265 20.0009 14.8636 19.1449 14.8636C18.2737 14.8636 17.5123 15.0265 16.8608 15.3523C16.2093 15.6705 15.7055 16.125 15.3494 16.7159C14.9934 17.2992 14.8191 17.9848 14.8267 18.7727C14.8191 19.5758 14.9972 20.2765 15.3608 20.875C15.732 21.4735 16.2434 21.9394 16.8949 22.2727C17.5464 22.6061 18.2964 22.7727 19.1449 22.7727Z" fill="#5E031F"/>
<path d="M120.952 68.7273C120.952 73.697 120.043 77.9697 118.224 81.5455C116.406 85.1061 113.914 87.8485 110.747 89.7727C107.596 91.6818 104.012 92.6364 99.9972 92.6364C95.9669 92.6364 92.3684 91.6818 89.2017 89.7727C86.0502 87.8485 83.5653 85.0985 81.7472 81.5227C79.929 77.947 79.0199 73.6818 79.0199 68.7273C79.0199 63.7576 79.929 59.4924 81.7472 55.9318C83.5653 52.3561 86.0502 49.6136 89.2017 47.7045C92.3684 45.7803 95.9669 44.8182 99.9972 44.8182C104.012 44.8182 107.596 45.7803 110.747 47.7045C113.914 49.6136 116.406 52.3561 118.224 55.9318C120.043 59.4924 120.952 63.7576 120.952 68.7273ZM113.997 68.7273C113.997 64.9394 113.384 61.75 112.156 59.1591C110.944 56.553 109.277 54.5833 107.156 53.25C105.05 51.9015 102.664 51.2273 99.9972 51.2273C97.3153 51.2273 94.9214 51.9015 92.8153 53.25C90.7093 54.5833 89.0426 56.553 87.8153 59.1591C86.6032 61.75 85.9972 64.9394 85.9972 68.7273C85.9972 72.5152 86.6032 75.7121 87.8153 78.3182C89.0426 80.9091 90.7093 82.8788 92.8153 84.2273C94.9214 85.5606 97.3153 86.2273 99.9972 86.2273C102.664 86.2273 105.05 85.5606 107.156 84.2273C109.277 82.8788 110.944 80.9091 112.156 78.3182C113.384 75.7121 113.997 72.5152 113.997 68.7273Z" fill="#5E031F"/>
<path d="M64.0696 122.364C64.0696 124.848 63.6151 126.985 62.706 128.773C61.7969 130.553 60.5507 131.924 58.9673 132.886C57.3916 133.841 55.5999 134.318 53.5923 134.318C51.5772 134.318 49.7779 133.841 48.1946 132.886C46.6188 131.924 45.3764 130.549 44.4673 128.761C43.5582 126.973 43.1037 124.841 43.1037 122.364C43.1037 119.879 43.5582 117.746 44.4673 115.966C45.3764 114.178 46.6188 112.807 48.1946 111.852C49.7779 110.89 51.5772 110.409 53.5923 110.409C55.5999 110.409 57.3916 110.89 58.9673 111.852C60.5507 112.807 61.7969 114.178 62.706 115.966C63.6151 117.746 64.0696 119.879 64.0696 122.364ZM60.5923 122.364C60.5923 120.47 60.2855 118.875 59.6719 117.58C59.0658 116.277 58.2325 115.292 57.1719 114.625C56.1188 113.951 54.9257 113.614 53.5923 113.614C52.2514 113.614 51.0545 113.951 50.0014 114.625C48.9484 115.292 48.1151 116.277 47.5014 117.58C46.8954 118.875 46.5923 120.47 46.5923 122.364C46.5923 124.258 46.8954 125.856 47.5014 127.159C48.1151 128.455 48.9484 129.439 50.0014 130.114C51.0545 130.78 52.2514 131.114 53.5923 131.114C54.9257 131.114 56.1188 130.78 57.1719 130.114C58.2325 129.439 59.0658 128.455 59.6719 127.159C60.2855 125.856 60.5923 124.258 60.5923 122.364ZM70.8565 116.545L74.7088 123.341L78.5952 116.545H82.3111L76.8679 125.273L82.3565 134H78.6406L74.7088 127.477L70.7884 134H67.0611L72.4929 125.273L67.1293 116.545H70.8565ZM87.9474 140.545C87.4399 140.545 86.9777 140.504 86.5611 140.42C86.1444 140.345 85.8338 140.261 85.6293 140.17L86.4474 137.386C87.0687 137.553 87.6217 137.625 88.1065 137.602C88.5914 137.58 89.0194 137.398 89.3906 137.057C89.7694 136.716 90.1027 136.159 90.3906 135.386L90.8111 134.227L84.4247 116.545H88.0611L92.4815 130.091H92.6634L97.0838 116.545H100.732L93.5384 136.33C93.205 137.239 92.7808 138.008 92.2656 138.636C91.7505 139.273 91.1368 139.75 90.4247 140.068C89.7126 140.386 88.8868 140.545 87.9474 140.545ZM110.649 140.909C109.263 140.909 108.07 140.727 107.07 140.364C106.077 140 105.267 139.519 104.638 138.92C104.009 138.322 103.539 137.667 103.229 136.955L106.149 135.75C106.354 136.083 106.626 136.436 106.967 136.807C107.316 137.186 107.786 137.508 108.376 137.773C108.975 138.038 109.744 138.17 110.683 138.17C111.971 138.17 113.036 137.856 113.876 137.227C114.717 136.606 115.138 135.614 115.138 134.25V130.818H114.922C114.717 131.189 114.422 131.602 114.036 132.057C113.657 132.511 113.134 132.905 112.467 133.239C111.801 133.572 110.933 133.739 109.865 133.739C108.486 133.739 107.244 133.417 106.138 132.773C105.039 132.121 104.168 131.163 103.524 129.898C102.888 128.625 102.57 127.061 102.57 125.205C102.57 123.348 102.884 121.758 103.513 120.432C104.149 119.106 105.02 118.091 106.126 117.386C107.232 116.674 108.486 116.318 109.888 116.318C110.971 116.318 111.846 116.5 112.513 116.864C113.179 117.22 113.698 117.636 114.07 118.114C114.448 118.591 114.74 119.011 114.945 119.375H115.195V116.545H118.524V134.386C118.524 135.886 118.176 137.117 117.479 138.08C116.782 139.042 115.839 139.754 114.649 140.216C113.467 140.678 112.134 140.909 110.649 140.909ZM110.615 130.92C111.592 130.92 112.418 130.693 113.092 130.239C113.774 129.777 114.289 129.117 114.638 128.261C114.994 127.398 115.172 126.364 115.172 125.159C115.172 123.985 114.998 122.951 114.649 122.057C114.301 121.163 113.789 120.466 113.115 119.966C112.441 119.458 111.607 119.205 110.615 119.205C109.592 119.205 108.74 119.47 108.058 120C107.376 120.523 106.861 121.235 106.513 122.136C106.172 123.038 106.001 124.045 106.001 125.159C106.001 126.303 106.176 127.307 106.524 128.17C106.873 129.034 107.388 129.708 108.07 130.193C108.759 130.678 109.607 130.92 110.615 130.92ZM130.604 134.352C128.884 134.352 127.403 133.985 126.161 133.25C124.926 132.508 123.971 131.466 123.297 130.125C122.63 128.777 122.297 127.197 122.297 125.386C122.297 123.598 122.63 122.023 123.297 120.659C123.971 119.295 124.911 118.231 126.115 117.466C127.327 116.701 128.744 116.318 130.365 116.318C131.35 116.318 132.304 116.481 133.229 116.807C134.153 117.133 134.982 117.644 135.717 118.341C136.452 119.038 137.032 119.943 137.456 121.057C137.88 122.163 138.092 123.508 138.092 125.091V126.295H124.217V123.75H134.763C134.763 122.856 134.581 122.064 134.217 121.375C133.854 120.678 133.342 120.129 132.683 119.727C132.032 119.326 131.267 119.125 130.388 119.125C129.433 119.125 128.6 119.36 127.888 119.83C127.183 120.292 126.638 120.898 126.251 121.648C125.873 122.39 125.683 123.197 125.683 124.068V126.057C125.683 127.223 125.888 128.216 126.297 129.034C126.714 129.852 127.293 130.477 128.036 130.909C128.778 131.333 129.645 131.545 130.638 131.545C131.282 131.545 131.869 131.455 132.399 131.273C132.929 131.083 133.388 130.803 133.774 130.432C134.161 130.061 134.456 129.602 134.661 129.057L137.876 129.636C137.619 130.583 137.157 131.413 136.49 132.125C135.831 132.83 135.001 133.379 134.001 133.773C133.009 134.159 131.876 134.352 130.604 134.352ZM145.26 123.636V134H141.862V116.545H145.124V119.386H145.339C145.741 118.462 146.37 117.72 147.226 117.159C148.089 116.598 149.177 116.318 150.487 116.318C151.677 116.318 152.718 116.568 153.612 117.068C154.506 117.561 155.199 118.295 155.692 119.273C156.184 120.25 156.43 121.458 156.43 122.898V134H153.033V123.307C153.033 122.042 152.703 121.053 152.044 120.341C151.385 119.621 150.48 119.261 149.328 119.261C148.54 119.261 147.839 119.432 147.226 119.773C146.62 120.114 146.139 120.614 145.783 121.273C145.434 121.924 145.26 122.712 145.26 123.636Z" fill="#5E031F"/>
<path d="M67.8942 168.455V183H65.6925V170.656H65.6072L62.1271 172.929V170.827L65.7564 168.455H67.8942ZM76.63 183.199C75.7398 183.199 74.9396 183.028 74.2294 182.688C73.5239 182.342 72.9605 181.868 72.5391 181.267C72.1177 180.666 71.8928 179.979 71.8643 179.207H73.995C74.0471 179.832 74.3241 180.346 74.826 180.749C75.3279 181.151 75.9292 181.352 76.63 181.352C77.1887 181.352 77.6835 181.224 78.1143 180.969C78.55 180.708 78.8909 180.351 79.1371 179.896C79.388 179.442 79.5135 178.923 79.5135 178.341C79.5135 177.749 79.3857 177.221 79.13 176.757C78.8743 176.293 78.5215 175.929 78.0717 175.663C77.6267 175.398 77.1153 175.263 76.5376 175.259C76.0973 175.259 75.6546 175.334 75.2095 175.486C74.7644 175.637 74.4046 175.836 74.13 176.082L72.12 175.784L72.9368 168.455H80.9339V170.337H74.7621L74.3004 174.406H74.3857C74.6697 174.132 75.0462 173.902 75.5149 173.717C75.9884 173.533 76.495 173.44 77.0348 173.44C77.9202 173.44 78.7086 173.651 79.3999 174.072C80.0959 174.494 80.6428 175.069 81.0405 175.798C81.4429 176.523 81.6418 177.356 81.6371 178.298C81.6418 179.241 81.4287 180.081 80.9979 180.82C80.5717 181.558 79.9799 182.141 79.2223 182.567C78.4695 182.988 77.6054 183.199 76.63 183.199ZM85.1314 183.135C84.7431 183.135 84.4093 182.998 84.13 182.723C83.8506 182.444 83.7109 182.107 83.7109 181.714C83.7109 181.326 83.8506 180.995 84.13 180.72C84.4093 180.441 84.7431 180.301 85.1314 180.301C85.5196 180.301 85.8535 180.441 86.1328 180.72C86.4122 180.995 86.5518 181.326 86.5518 181.714C86.5518 181.975 86.4856 182.214 86.353 182.432C86.2251 182.645 86.0547 182.815 85.8416 182.943C85.6286 183.071 85.3918 183.135 85.1314 183.135ZM94.0288 168.256C94.6774 168.26 95.3166 168.379 95.9464 168.611C96.5761 168.843 97.1443 169.222 97.6509 169.747C98.1623 170.273 98.5695 170.983 98.8725 171.878C99.1803 172.768 99.3365 173.876 99.3413 175.202C99.3413 176.475 99.2134 177.609 98.9577 178.604C98.7021 179.593 98.3351 180.429 97.8569 181.111C97.3834 181.793 96.8081 182.311 96.131 182.666C95.454 183.021 94.6916 183.199 93.8441 183.199C92.9776 183.199 92.2082 183.028 91.5359 182.688C90.8635 182.347 90.3166 181.875 89.8952 181.274C89.4738 180.668 89.2111 179.972 89.1069 179.186H91.2731C91.4151 179.811 91.704 180.318 92.1396 180.706C92.5799 181.089 93.1481 181.281 93.8441 181.281C94.9094 181.281 95.7404 180.817 96.337 179.889C96.9336 178.956 97.2343 177.654 97.239 175.983H97.1254C96.8791 176.39 96.5714 176.741 96.2021 177.034C95.8375 177.328 95.4279 177.555 94.9734 177.716C94.5188 177.877 94.0335 177.957 93.5174 177.957C92.6793 177.957 91.917 177.751 91.2305 177.339C90.5439 176.928 89.997 176.362 89.5898 175.642C89.1826 174.922 88.979 174.101 88.979 173.178C88.979 172.259 89.1874 171.426 89.604 170.678C90.0254 169.929 90.6126 169.338 91.3654 168.902C92.123 168.462 93.0108 168.246 94.0288 168.256ZM94.0359 170.102C93.4819 170.102 92.9824 170.24 92.5373 170.514C92.0969 170.784 91.7489 171.151 91.4933 171.615C91.2376 172.074 91.1097 172.586 91.1097 173.149C91.1097 173.713 91.2328 174.224 91.479 174.683C91.73 175.138 92.0709 175.5 92.5018 175.77C92.9374 176.035 93.4345 176.168 93.9933 176.168C94.4099 176.168 94.7982 176.087 95.158 175.926C95.5179 175.765 95.8327 175.543 96.1026 175.259C96.3725 174.97 96.5832 174.643 96.7347 174.278C96.8862 173.914 96.962 173.53 96.962 173.128C96.962 172.593 96.8342 172.096 96.5785 171.636C96.3275 171.177 95.9819 170.808 95.5415 170.528C95.1012 170.244 94.5993 170.102 94.0359 170.102ZM106.744 168.256C107.392 168.26 108.031 168.379 108.661 168.611C109.291 168.843 109.859 169.222 110.366 169.747C110.877 170.273 111.284 170.983 111.587 171.878C111.895 172.768 112.051 173.876 112.056 175.202C112.056 176.475 111.928 177.609 111.673 178.604C111.417 179.593 111.05 180.429 110.572 181.111C110.098 181.793 109.523 182.311 108.846 182.666C108.169 183.021 107.406 183.199 106.559 183.199C105.692 183.199 104.923 183.028 104.251 182.688C103.578 182.347 103.031 181.875 102.61 181.274C102.189 180.668 101.926 179.972 101.822 179.186H103.988C104.13 179.811 104.419 180.318 104.854 180.706C105.295 181.089 105.863 181.281 106.559 181.281C107.624 181.281 108.455 180.817 109.052 179.889C109.648 178.956 109.949 177.654 109.954 175.983H109.84C109.594 176.39 109.286 176.741 108.917 177.034C108.552 177.328 108.143 177.555 107.688 177.716C107.234 177.877 106.748 177.957 106.232 177.957C105.394 177.957 104.632 177.751 103.945 177.339C103.259 176.928 102.712 176.362 102.305 175.642C101.897 174.922 101.694 174.101 101.694 173.178C101.694 172.259 101.902 171.426 102.319 170.678C102.74 169.929 103.327 169.338 104.08 168.902C104.838 168.462 105.726 168.246 106.744 168.256ZM106.751 170.102C106.197 170.102 105.697 170.24 105.252 170.514C104.812 170.784 104.464 171.151 104.208 171.615C103.952 172.074 103.825 172.586 103.825 173.149C103.825 173.713 103.948 174.224 104.194 174.683C104.445 175.138 104.786 175.5 105.217 175.77C105.652 176.035 106.149 176.168 106.708 176.168C107.125 176.168 107.513 176.087 107.873 175.926C108.233 175.765 108.548 175.543 108.817 175.259C109.087 174.97 109.298 174.643 109.45 174.278C109.601 173.914 109.677 173.53 109.677 173.128C109.677 172.593 109.549 172.096 109.293 171.636C109.042 171.177 108.697 170.808 108.256 170.528C107.816 170.244 107.314 170.102 106.751 170.102ZM119.458 168.256C120.107 168.26 120.746 168.379 121.376 168.611C122.006 168.843 122.574 169.222 123.081 169.747C123.592 170.273 123.999 170.983 124.302 171.878C124.61 172.768 124.766 173.876 124.771 175.202C124.771 176.475 124.643 177.609 124.387 178.604C124.132 179.593 123.765 180.429 123.287 181.111C122.813 181.793 122.238 182.311 121.561 182.666C120.884 183.021 120.121 183.199 119.274 183.199C118.407 183.199 117.638 183.028 116.966 182.688C116.293 182.347 115.746 181.875 115.325 181.274C114.904 180.668 114.641 179.972 114.537 179.186H116.703C116.845 179.811 117.134 180.318 117.569 180.706C118.01 181.089 118.578 181.281 119.274 181.281C120.339 181.281 121.17 180.817 121.767 179.889C122.363 178.956 122.664 177.654 122.669 175.983H122.555C122.309 176.39 122.001 176.741 121.632 177.034C121.267 177.328 120.858 177.555 120.403 177.716C119.949 177.877 119.463 177.957 118.947 177.957C118.109 177.957 117.347 177.751 116.66 177.339C115.974 176.928 115.427 176.362 115.02 175.642C114.612 174.922 114.409 174.101 114.409 173.178C114.409 172.259 114.617 171.426 115.034 170.678C115.455 169.929 116.042 169.338 116.795 168.902C117.553 168.462 118.44 168.246 119.458 168.256ZM119.466 170.102C118.912 170.102 118.412 170.24 117.967 170.514C117.527 170.784 117.179 171.151 116.923 171.615C116.667 172.074 116.539 172.586 116.539 173.149C116.539 173.713 116.663 174.224 116.909 174.683C117.16 175.138 117.501 175.5 117.931 175.77C118.367 176.035 118.864 176.168 119.423 176.168C119.84 176.168 120.228 176.087 120.588 175.926C120.948 175.765 121.262 175.543 121.532 175.259C121.802 174.97 122.013 174.643 122.164 174.278C122.316 173.914 122.392 173.53 122.392 173.128C122.392 172.593 122.264 172.096 122.008 171.636C121.757 171.177 121.412 170.808 120.971 170.528C120.531 170.244 120.029 170.102 119.466 170.102ZM127.031 180.159V178.384L133.317 168.455H134.716V171.068H133.828L129.332 178.185V178.298H137.947V180.159H127.031ZM133.928 183V179.619L133.942 178.81V168.455H136.023V183H133.928Z" fill="#5E031F"/>
</svg>
