<svg width="32" height="32" viewBox="0 0 32 32" xmlns="http://www.w3.org/2000/svg">
<path d="M7.99993 10.1818C9.20492 10.1818 10.1818 9.20492 10.1818 7.99993C10.1818 6.79494 9.20492 5.81812 7.99993 5.81812C6.79494 5.81812 5.81812 6.79494 5.81812 7.99993C5.81812 9.20492 6.79494 10.1818 7.99993 10.1818Z"/>
<path d="M5.81812 13.091C5.81812 12.2877 6.46934 11.6365 7.27266 11.6365H8.72721C9.53052 11.6365 10.1818 12.2877 10.1818 13.091V24.7274C10.1818 25.5307 9.53052 26.1819 8.72721 26.1819H7.27266C6.46934 26.1819 5.81812 25.5307 5.81812 24.7274V13.091Z"/>
<path d="M14.5454 26.1819H15.9999C16.8033 26.1819 17.4545 25.5307 17.4545 24.7274V18.1819C17.4545 16.0001 21.8181 14.5456 21.8181 17.4547V24.728C21.8181 25.5313 22.4693 26.1819 23.2726 26.1819H24.7272C25.5305 26.1819 26.1817 25.5307 26.1817 24.7274V16.0001C26.1817 13.091 23.9999 11.6365 21.0908 11.6365C18.1817 11.6365 17.4545 13.8183 17.4545 13.8183V13.091C17.4545 12.2877 16.8033 11.6365 15.9999 11.6365H14.5454C13.742 11.6365 13.0908 12.2877 13.0908 13.091V24.7274C13.0908 25.5307 13.742 26.1819 14.5454 26.1819Z"/>
<path fill-rule="evenodd" clip-rule="evenodd" d="M27.6364 0C30.0464 0 32 1.95367 32 4.36364V27.6364C32 30.0464 30.0464 32 27.6364 32H4.36364C1.95367 32 0 30.0464 0 27.6364V4.36364C0 1.95367 1.95367 0 4.36364 0H27.6364ZM27.6364 2.90909C28.4397 2.90909 29.0909 3.56032 29.0909 4.36364V27.6364C29.0909 28.4397 28.4397 29.0909 27.6364 29.0909H4.36364C3.56032 29.0909 2.90909 28.4397 2.90909 27.6364V4.36364C2.90909 3.56032 3.56032 2.90909 4.36364 2.90909H27.6364Z"/>
</svg>
