<svg width="325" height="325" viewBox="0 0 325 325" fill="none" xmlns="http://www.w3.org/2000/svg">
<path fill-rule="evenodd" clip-rule="evenodd" d="M5 0C2.23858 0 0 2.23858 0 5V320C0 322.761 2.23858 325 5 325H320C322.761 325 325 322.761 325 320V5C325 2.23858 322.761 0 320 0H5ZM86.0653 114V79.0909H78.804V114H86.0653ZM96.8423 112.824C98.7741 113.949 101.064 114.511 103.712 114.511C106.359 114.511 108.643 113.949 110.564 112.824C112.496 111.688 113.984 110.108 115.03 108.085C116.075 106.051 116.598 103.693 116.598 101.011C116.598 98.3068 116.075 95.9432 115.03 93.9205C113.984 91.8864 112.496 90.3068 110.564 89.1818C108.643 88.0455 106.359 87.4773 103.712 87.4773C101.064 87.4773 98.7741 88.0455 96.8423 89.1818C94.9219 90.3068 93.4389 91.8864 92.3935 93.9205C91.348 95.9432 90.8253 98.3068 90.8253 101.011C90.8253 103.693 91.348 106.051 92.3935 108.085C93.4389 110.108 94.9219 111.688 96.8423 112.824ZM106.763 107.864C105.956 108.545 104.95 108.886 103.746 108.886C102.53 108.886 101.507 108.545 100.678 107.864C99.8594 107.17 99.2401 106.227 98.8196 105.034C98.4105 103.841 98.206 102.483 98.206 100.96C98.206 99.4375 98.4105 98.0795 98.8196 96.8864C99.2401 95.6932 99.8594 94.75 100.678 94.0568C101.507 93.3636 102.53 93.017 103.746 93.017C104.95 93.017 105.956 93.3636 106.763 94.0568C107.57 94.75 108.178 95.6932 108.587 96.8864C109.007 98.0795 109.217 99.4375 109.217 100.96C109.217 102.483 109.007 103.841 108.587 105.034C108.178 106.227 107.57 107.17 106.763 107.864ZM124.32 113.625C125.626 114.205 127.115 114.494 128.786 114.494C130.081 114.494 131.223 114.324 132.212 113.983C133.2 113.631 134.047 113.148 134.751 112.534C135.456 111.909 136.018 111.188 136.439 110.369H136.643V114H143.53V96.3409C143.53 94.7841 143.229 93.4489 142.626 92.3352C142.024 91.2102 141.2 90.2898 140.155 89.5739C139.121 88.858 137.933 88.3295 136.592 87.9886C135.263 87.6477 133.871 87.4773 132.416 87.4773C130.325 87.4773 128.484 87.7955 126.893 88.4318C125.314 89.0568 124.024 89.9545 123.024 91.125C122.024 92.2841 121.354 93.6591 121.013 95.25L127.729 95.7955C127.979 94.9318 128.49 94.2159 129.263 93.6477C130.036 93.0682 131.075 92.7784 132.382 92.7784C133.621 92.7784 134.575 93.0739 135.246 93.6648C135.928 94.2557 136.268 95.0909 136.268 96.1705V96.2727C136.268 96.8295 136.058 97.25 135.638 97.5341C135.217 97.8182 134.541 98.0341 133.609 98.1818C132.678 98.3182 131.45 98.4659 129.928 98.625C128.632 98.75 127.393 98.9659 126.212 99.2727C125.041 99.5795 123.996 100.034 123.075 100.636C122.155 101.239 121.428 102.034 120.893 103.023C120.359 104.011 120.092 105.233 120.092 106.688C120.092 108.415 120.467 109.858 121.217 111.017C121.979 112.165 123.013 113.034 124.32 113.625ZM133.695 108.852C132.876 109.273 131.933 109.483 130.865 109.483C129.751 109.483 128.831 109.227 128.104 108.716C127.388 108.193 127.03 107.438 127.03 106.449C127.03 105.767 127.206 105.199 127.558 104.744C127.911 104.278 128.405 103.909 129.041 103.636C129.678 103.364 130.422 103.165 131.274 103.04C131.672 102.983 132.115 102.92 132.604 102.852C133.092 102.773 133.581 102.688 134.07 102.597C134.558 102.494 134.996 102.386 135.382 102.273C135.78 102.148 136.092 102.011 136.32 101.864V104.642C136.32 105.562 136.087 106.386 135.621 107.114C135.155 107.841 134.513 108.42 133.695 108.852ZM153.408 112.892C155.021 113.915 156.822 114.426 158.811 114.426C160.22 114.426 161.413 114.193 162.391 113.727C163.379 113.261 164.18 112.676 164.794 111.972C165.419 111.256 165.902 110.534 166.243 109.807H166.55V114H173.709V79.0909H166.464V92.2159H166.243C165.925 91.5114 165.459 90.7955 164.845 90.0682C164.243 89.3295 163.447 88.7159 162.459 88.2273C161.482 87.7273 160.26 87.4773 158.794 87.4773C156.874 87.4773 155.107 87.9773 153.493 88.9773C151.891 89.9659 150.607 91.4602 149.641 93.4602C148.675 95.4489 148.192 97.9432 148.192 100.943C148.192 103.864 148.658 106.33 149.589 108.341C150.533 110.341 151.805 111.858 153.408 112.892ZM164.078 107.693C163.271 108.33 162.283 108.648 161.112 108.648C159.919 108.648 158.913 108.324 158.095 107.676C157.288 107.017 156.669 106.108 156.237 104.949C155.817 103.778 155.607 102.432 155.607 100.909C155.607 99.3977 155.817 98.0682 156.237 96.9205C156.658 95.7727 157.277 94.875 158.095 94.2273C158.913 93.5795 159.919 93.2557 161.112 93.2557C162.283 93.2557 163.277 93.5682 164.095 94.1932C164.913 94.8182 165.538 95.7045 165.97 96.8523C166.402 98 166.618 99.3523 166.618 100.909C166.618 102.466 166.396 103.824 165.953 104.983C165.521 106.142 164.896 107.045 164.078 107.693ZM186.94 87.8182H179.679V114H186.94V87.8182ZM180.548 83.3693C181.321 84.0852 182.247 84.4432 183.327 84.4432C184.406 84.4432 185.327 84.0852 186.088 83.3693C186.861 82.642 187.247 81.7727 187.247 80.7614C187.247 79.7614 186.861 78.9034 186.088 78.1875C185.327 77.4602 184.406 77.0966 183.327 77.0966C182.247 77.0966 181.321 77.4602 180.548 78.1875C179.787 78.9034 179.406 79.7614 179.406 80.7614C179.406 81.7727 179.787 82.642 180.548 83.3693ZM200.018 114V98.8636C200.03 97.7386 200.24 96.7784 200.649 95.983C201.07 95.1761 201.649 94.5625 202.388 94.142C203.138 93.7216 204.001 93.5114 204.979 93.5114C206.433 93.5114 207.575 93.9659 208.405 94.875C209.234 95.7727 209.643 97.0227 209.632 98.625V114H216.893V97.3295C216.893 95.2955 216.518 93.5455 215.768 92.0795C215.018 90.6023 213.967 89.4659 212.615 88.6705C211.263 87.875 209.678 87.4773 207.859 87.4773C205.916 87.4773 204.263 87.9261 202.899 88.8239C201.536 89.7102 200.564 90.9148 199.984 92.4375H199.678V87.8182H192.757V114H200.018ZM228.361 123.392C230.043 124.04 232.06 124.364 234.412 124.364C236.912 124.364 239.122 123.983 241.043 123.222C242.974 122.472 244.486 121.347 245.577 119.847C246.668 118.347 247.213 116.483 247.213 114.256V87.8182H240.003V92.2159H239.73C239.401 91.5114 238.929 90.7955 238.315 90.0682C237.713 89.3295 236.918 88.7159 235.929 88.2273C234.94 87.7273 233.713 87.4773 232.247 87.4773C230.327 87.4773 228.56 87.9716 226.946 88.9602C225.344 89.9489 224.06 91.4375 223.094 93.4261C222.128 95.4148 221.645 97.892 221.645 100.858C221.645 103.756 222.116 106.153 223.06 108.051C224.014 109.938 225.293 111.341 226.895 112.261C228.509 113.17 230.298 113.625 232.264 113.625C233.651 113.625 234.844 113.42 235.844 113.011C236.844 112.602 237.662 112.074 238.298 111.426C238.935 110.778 239.412 110.091 239.73 109.364H240.037V114.153C240.037 115.949 239.52 117.227 238.486 117.989C237.463 118.761 236.162 119.148 234.582 119.148C233.526 119.148 232.628 119.006 231.889 118.722C231.162 118.449 230.577 118.085 230.134 117.631C229.69 117.176 229.366 116.688 229.162 116.165L222.446 117.068C222.741 118.443 223.384 119.682 224.372 120.784C225.361 121.886 226.69 122.756 228.361 123.392ZM237.531 107.301C236.724 107.881 235.736 108.17 234.565 108.17C233.372 108.17 232.366 107.875 231.548 107.284C230.741 106.682 230.122 105.835 229.69 104.744C229.27 103.642 229.06 102.335 229.06 100.824C229.06 99.3352 229.27 98.0227 229.69 96.8864C230.111 95.75 230.73 94.8636 231.548 94.2273C232.366 93.5795 233.372 93.2557 234.565 93.2557C235.736 93.2557 236.73 93.5682 237.548 94.1932C238.366 94.8182 238.991 95.6989 239.423 96.8352C239.855 97.9602 240.071 99.2898 240.071 100.824C240.071 102.358 239.849 103.676 239.406 104.778C238.974 105.869 238.349 106.71 237.531 107.301ZM98.0682 266.773C103.371 269.106 109.417 270.273 116.205 270.273C123.174 270.273 129.356 269.091 134.75 266.727C140.144 264.364 144.371 261.121 147.432 257C150.523 252.879 152.053 248.167 152.023 242.864C152.053 237.076 150.265 232.258 146.659 228.409C143.083 224.53 137.871 222.152 131.023 221.273V220.545C136.235 219.606 140.462 217.394 143.705 213.909C146.977 210.424 148.598 206.076 148.568 200.864C148.598 195.955 147.265 191.53 144.568 187.591C141.902 183.621 138.159 180.47 133.341 178.136C128.523 175.803 122.902 174.636 116.477 174.636C110.114 174.636 104.402 175.803 99.3409 178.136C94.3106 180.439 90.3106 183.636 87.3409 187.727C84.3712 191.818 82.8409 196.545 82.75 201.909H101.614C101.705 199.545 102.417 197.485 103.75 195.727C105.083 193.97 106.856 192.621 109.068 191.682C111.28 190.712 113.72 190.227 116.386 190.227C119.023 190.227 121.326 190.727 123.295 191.727C125.295 192.727 126.841 194.121 127.932 195.909C129.053 197.667 129.614 199.712 129.614 202.045C129.614 204.5 128.977 206.652 127.705 208.5C126.432 210.318 124.644 211.742 122.341 212.773C120.068 213.803 117.447 214.318 114.477 214.318H105.795V228.773H114.477C117.992 228.773 121.023 229.318 123.568 230.409C126.144 231.5 128.114 233.015 129.477 234.955C130.871 236.864 131.568 239.061 131.568 241.545C131.568 244 130.917 246.167 129.614 248.045C128.311 249.924 126.508 251.394 124.205 252.455C121.902 253.515 119.25 254.045 116.25 254.045C113.371 254.045 110.78 253.576 108.477 252.636C106.174 251.697 104.326 250.379 102.932 248.682C101.568 246.955 100.826 244.955 100.705 242.682H80.8864C80.9773 248.106 82.5379 252.894 85.5682 257.045C88.6288 261.167 92.7955 264.409 98.0682 266.773ZM166.716 269H199.716C209.17 269 217.292 267.136 224.08 263.409C230.898 259.682 236.125 254.333 239.761 247.364C243.428 240.394 245.261 232.061 245.261 222.364C245.261 212.697 243.428 204.394 239.761 197.455C236.125 190.515 230.928 185.197 224.17 181.5C217.413 177.773 209.352 175.909 199.989 175.909H166.716V269ZM198.898 252.136H186.398V192.773H198.943C204.761 192.773 209.655 193.803 213.625 195.864C217.595 197.924 220.58 201.136 222.58 205.5C224.61 209.864 225.625 215.485 225.625 222.364C225.625 229.303 224.61 234.97 222.58 239.364C220.58 243.727 217.58 246.955 213.58 249.045C209.61 251.106 204.716 252.136 198.898 252.136Z" fill="#5E031F"/>
</svg>
