<svg width="410" height="1613" viewBox="0 0 410 1613" fill="none" xmlns="http://www.w3.org/2000/svg">
<path d="M194.114 141V123.545H200.011C201.381 123.545 202.5 123.793 203.369 124.287C204.244 124.776 204.892 125.438 205.312 126.273C205.733 127.108 205.943 128.04 205.943 129.068C205.943 130.097 205.733 131.031 205.312 131.872C204.898 132.713 204.256 133.384 203.386 133.884C202.517 134.378 201.403 134.625 200.045 134.625H195.818V132.75H199.977C200.915 132.75 201.668 132.588 202.236 132.264C202.804 131.94 203.216 131.503 203.472 130.952C203.733 130.395 203.864 129.767 203.864 129.068C203.864 128.369 203.733 127.744 203.472 127.193C203.216 126.642 202.801 126.21 202.227 125.898C201.653 125.58 200.892 125.42 199.943 125.42H196.227V141H194.114ZM212.928 141.307C212.098 141.307 211.345 141.151 210.669 140.838C209.993 140.52 209.456 140.062 209.058 139.466C208.661 138.864 208.462 138.136 208.462 137.284C208.462 136.534 208.609 135.926 208.905 135.46C209.2 134.989 209.595 134.619 210.089 134.352C210.584 134.085 211.129 133.886 211.726 133.756C212.328 133.619 212.933 133.511 213.541 133.432C214.337 133.33 214.982 133.253 215.476 133.202C215.976 133.145 216.339 133.051 216.567 132.92C216.8 132.79 216.916 132.562 216.916 132.239V132.17C216.916 131.33 216.686 130.676 216.226 130.21C215.771 129.744 215.081 129.511 214.155 129.511C213.195 129.511 212.442 129.722 211.896 130.142C211.351 130.562 210.967 131.011 210.746 131.489L208.837 130.807C209.178 130.011 209.632 129.392 210.2 128.949C210.774 128.5 211.399 128.187 212.075 128.011C212.757 127.83 213.428 127.739 214.087 127.739C214.507 127.739 214.99 127.79 215.536 127.892C216.087 127.989 216.618 128.19 217.129 128.497C217.646 128.804 218.075 129.267 218.416 129.886C218.757 130.506 218.928 131.335 218.928 132.375V141H216.916V139.227H216.814C216.678 139.511 216.45 139.815 216.132 140.139C215.814 140.463 215.391 140.739 214.862 140.966C214.334 141.193 213.689 141.307 212.928 141.307ZM213.234 139.5C214.03 139.5 214.7 139.344 215.246 139.031C215.797 138.719 216.212 138.315 216.49 137.821C216.774 137.327 216.916 136.807 216.916 136.261V134.42C216.831 134.523 216.643 134.616 216.354 134.702C216.07 134.781 215.74 134.852 215.365 134.915C214.996 134.972 214.635 135.023 214.283 135.068C213.936 135.108 213.655 135.142 213.439 135.17C212.916 135.239 212.428 135.349 211.973 135.503C211.524 135.651 211.161 135.875 210.882 136.176C210.609 136.472 210.473 136.875 210.473 137.386C210.473 138.085 210.732 138.614 211.249 138.972C211.771 139.324 212.433 139.5 213.234 139.5ZM222.599 141V127.909H224.542V129.886H224.678C224.917 129.239 225.349 128.713 225.974 128.31C226.599 127.906 227.303 127.705 228.087 127.705C228.235 127.705 228.42 127.707 228.641 127.713C228.863 127.719 229.031 127.727 229.144 127.739V129.784C229.076 129.767 228.92 129.741 228.675 129.707C228.437 129.668 228.184 129.648 227.917 129.648C227.281 129.648 226.712 129.781 226.212 130.048C225.718 130.31 225.326 130.673 225.036 131.139C224.752 131.599 224.61 132.125 224.61 132.716V141H222.599ZM238.042 127.909V129.614H231.258V127.909H238.042ZM233.235 124.773H235.246V137.25C235.246 137.818 235.329 138.244 235.494 138.528C235.664 138.807 235.88 138.994 236.141 139.091C236.408 139.182 236.69 139.227 236.985 139.227C237.207 139.227 237.388 139.216 237.531 139.193C237.673 139.165 237.786 139.142 237.871 139.125L238.281 140.932C238.144 140.983 237.954 141.034 237.71 141.085C237.465 141.142 237.156 141.17 236.781 141.17C236.212 141.17 235.656 141.048 235.11 140.804C234.57 140.56 234.121 140.188 233.763 139.688C233.411 139.188 233.235 138.557 233.235 137.795V124.773ZM241.067 141V127.909H243.079V141H241.067ZM242.09 125.727C241.698 125.727 241.36 125.594 241.076 125.327C240.798 125.06 240.658 124.739 240.658 124.364C240.658 123.989 240.798 123.668 241.076 123.401C241.36 123.134 241.698 123 242.09 123C242.482 123 242.817 123.134 243.096 123.401C243.38 123.668 243.522 123.989 243.522 124.364C243.522 124.739 243.38 125.06 243.096 125.327C242.817 125.594 242.482 125.727 242.09 125.727ZM252.081 141.273C250.854 141.273 249.797 140.983 248.911 140.403C248.024 139.824 247.342 139.026 246.865 138.009C246.388 136.991 246.149 135.83 246.149 134.523C246.149 133.193 246.393 132.02 246.882 131.003C247.376 129.98 248.064 129.182 248.945 128.608C249.831 128.028 250.865 127.739 252.047 127.739C252.967 127.739 253.797 127.909 254.536 128.25C255.274 128.591 255.879 129.068 256.351 129.682C256.822 130.295 257.115 131.011 257.229 131.83H255.217C255.064 131.233 254.723 130.705 254.195 130.244C253.672 129.778 252.967 129.545 252.081 129.545C251.297 129.545 250.609 129.75 250.018 130.159C249.433 130.562 248.976 131.134 248.646 131.872C248.322 132.605 248.161 133.466 248.161 134.455C248.161 135.466 248.32 136.347 248.638 137.097C248.962 137.847 249.416 138.429 250.001 138.844C250.592 139.259 251.286 139.466 252.081 139.466C252.604 139.466 253.078 139.375 253.504 139.193C253.93 139.011 254.291 138.75 254.587 138.409C254.882 138.068 255.092 137.659 255.217 137.182H257.229C257.115 137.955 256.834 138.651 256.385 139.27C255.942 139.884 255.354 140.372 254.621 140.736C253.893 141.094 253.047 141.273 252.081 141.273ZM262.18 123.545V141H260.169V123.545H262.18ZM271.353 141.273C270.092 141.273 269.004 140.994 268.089 140.438C267.18 139.875 266.478 139.091 265.984 138.085C265.495 137.074 265.251 135.898 265.251 134.557C265.251 133.216 265.495 132.034 265.984 131.011C266.478 129.983 267.165 129.182 268.046 128.608C268.933 128.028 269.967 127.739 271.148 127.739C271.83 127.739 272.504 127.852 273.168 128.08C273.833 128.307 274.438 128.676 274.984 129.188C275.529 129.693 275.964 130.364 276.288 131.199C276.612 132.034 276.773 133.062 276.773 134.284V135.136H266.683V133.398H274.728C274.728 132.659 274.58 132 274.285 131.42C273.995 130.841 273.58 130.384 273.04 130.048C272.506 129.713 271.876 129.545 271.148 129.545C270.347 129.545 269.654 129.744 269.069 130.142C268.489 130.534 268.043 131.045 267.731 131.676C267.418 132.307 267.262 132.983 267.262 133.705V134.864C267.262 135.852 267.433 136.69 267.773 137.378C268.12 138.06 268.6 138.58 269.214 138.938C269.827 139.29 270.54 139.466 271.353 139.466C271.881 139.466 272.359 139.392 272.785 139.244C273.217 139.091 273.589 138.864 273.901 138.562C274.214 138.256 274.455 137.875 274.626 137.42L276.569 137.966C276.364 138.625 276.021 139.205 275.538 139.705C275.055 140.199 274.458 140.585 273.748 140.864C273.038 141.136 272.239 141.273 271.353 141.273ZM289.106 130.841L287.299 131.352C287.185 131.051 287.018 130.759 286.796 130.474C286.58 130.185 286.285 129.946 285.91 129.759C285.535 129.571 285.055 129.477 284.469 129.477C283.668 129.477 283.001 129.662 282.467 130.031C281.938 130.395 281.674 130.858 281.674 131.42C281.674 131.92 281.856 132.315 282.219 132.605C282.583 132.895 283.151 133.136 283.924 133.33L285.867 133.807C287.038 134.091 287.91 134.526 288.484 135.111C289.058 135.69 289.344 136.437 289.344 137.352C289.344 138.102 289.129 138.773 288.697 139.364C288.271 139.955 287.674 140.42 286.907 140.761C286.14 141.102 285.248 141.273 284.231 141.273C282.896 141.273 281.79 140.983 280.915 140.403C280.04 139.824 279.487 138.977 279.254 137.864L281.163 137.386C281.344 138.091 281.688 138.619 282.194 138.972C282.705 139.324 283.373 139.5 284.197 139.5C285.134 139.5 285.879 139.301 286.43 138.903C286.987 138.5 287.265 138.017 287.265 137.455C287.265 137 287.106 136.619 286.788 136.312C286.469 136 285.981 135.767 285.322 135.614L283.14 135.102C281.941 134.818 281.06 134.378 280.498 133.781C279.941 133.179 279.663 132.426 279.663 131.523C279.663 130.784 279.87 130.131 280.285 129.562C280.705 128.994 281.276 128.548 281.998 128.224C282.725 127.901 283.549 127.739 284.469 127.739C285.765 127.739 286.782 128.023 287.521 128.591C288.265 129.159 288.793 129.909 289.106 130.841ZM197.693 170.307C196.864 170.307 196.111 170.151 195.435 169.838C194.759 169.52 194.222 169.062 193.824 168.466C193.426 167.864 193.227 167.136 193.227 166.284C193.227 165.534 193.375 164.926 193.67 164.46C193.966 163.989 194.361 163.619 194.855 163.352C195.349 163.085 195.895 162.886 196.491 162.756C197.094 162.619 197.699 162.511 198.307 162.432C199.102 162.33 199.747 162.253 200.241 162.202C200.741 162.145 201.105 162.051 201.332 161.92C201.565 161.79 201.682 161.562 201.682 161.239V161.17C201.682 160.33 201.452 159.676 200.991 159.21C200.537 158.744 199.847 158.511 198.92 158.511C197.96 158.511 197.207 158.722 196.662 159.142C196.116 159.562 195.733 160.011 195.511 160.489L193.602 159.807C193.943 159.011 194.398 158.392 194.966 157.949C195.54 157.5 196.165 157.187 196.841 157.011C197.523 156.83 198.193 156.739 198.852 156.739C199.273 156.739 199.756 156.79 200.301 156.892C200.852 156.989 201.384 157.19 201.895 157.497C202.412 157.804 202.841 158.267 203.182 158.886C203.523 159.506 203.693 160.335 203.693 161.375V170H201.682V168.227H201.58C201.443 168.511 201.216 168.815 200.898 169.139C200.58 169.463 200.156 169.739 199.628 169.966C199.099 170.193 198.455 170.307 197.693 170.307ZM198 168.5C198.795 168.5 199.466 168.344 200.011 168.031C200.563 167.719 200.977 167.315 201.256 166.821C201.54 166.327 201.682 165.807 201.682 165.261V163.42C201.597 163.523 201.409 163.616 201.119 163.702C200.835 163.781 200.506 163.852 200.131 163.915C199.761 163.972 199.401 164.023 199.048 164.068C198.702 164.108 198.42 164.142 198.205 164.17C197.682 164.239 197.193 164.349 196.739 164.503C196.29 164.651 195.926 164.875 195.648 165.176C195.375 165.472 195.239 165.875 195.239 166.386C195.239 167.085 195.497 167.614 196.014 167.972C196.537 168.324 197.199 168.5 198 168.5ZM212.683 170.273C211.455 170.273 210.398 169.983 209.512 169.403C208.626 168.824 207.944 168.026 207.467 167.009C206.989 165.991 206.751 164.83 206.751 163.523C206.751 162.193 206.995 161.02 207.484 160.003C207.978 158.98 208.665 158.182 209.546 157.608C210.433 157.028 211.467 156.739 212.648 156.739C213.569 156.739 214.398 156.909 215.137 157.25C215.876 157.591 216.481 158.068 216.952 158.682C217.424 159.295 217.717 160.011 217.83 160.83H215.819C215.665 160.233 215.325 159.705 214.796 159.244C214.273 158.778 213.569 158.545 212.683 158.545C211.898 158.545 211.211 158.75 210.62 159.159C210.035 159.562 209.577 160.134 209.248 160.872C208.924 161.605 208.762 162.466 208.762 163.455C208.762 164.466 208.921 165.347 209.239 166.097C209.563 166.847 210.018 167.429 210.603 167.844C211.194 168.259 211.887 168.466 212.683 168.466C213.205 168.466 213.68 168.375 214.106 168.193C214.532 168.011 214.893 167.75 215.188 167.409C215.484 167.068 215.694 166.659 215.819 166.182H217.83C217.717 166.955 217.435 167.651 216.987 168.27C216.543 168.884 215.955 169.372 215.222 169.736C214.495 170.094 213.648 170.273 212.683 170.273ZM226.089 170.273C224.862 170.273 223.805 169.983 222.918 169.403C222.032 168.824 221.35 168.026 220.873 167.009C220.396 165.991 220.157 164.83 220.157 163.523C220.157 162.193 220.401 161.02 220.89 160.003C221.384 158.98 222.072 158.182 222.952 157.608C223.839 157.028 224.873 156.739 226.055 156.739C226.975 156.739 227.805 156.909 228.543 157.25C229.282 157.591 229.887 158.068 230.359 158.682C230.83 159.295 231.123 160.011 231.237 160.83H229.225C229.072 160.233 228.731 159.705 228.202 159.244C227.68 158.778 226.975 158.545 226.089 158.545C225.305 158.545 224.617 158.75 224.026 159.159C223.441 159.562 222.984 160.134 222.654 160.872C222.33 161.605 222.168 162.466 222.168 163.455C222.168 164.466 222.327 165.347 222.646 166.097C222.969 166.847 223.424 167.429 224.009 167.844C224.6 168.259 225.293 168.466 226.089 168.466C226.612 168.466 227.086 168.375 227.512 168.193C227.938 168.011 228.299 167.75 228.594 167.409C228.89 167.068 229.1 166.659 229.225 166.182H231.237C231.123 166.955 230.842 167.651 230.393 168.27C229.95 168.884 229.362 169.372 228.629 169.736C227.901 170.094 227.055 170.273 226.089 170.273ZM239.665 170.273C238.404 170.273 237.316 169.994 236.401 169.438C235.492 168.875 234.79 168.091 234.296 167.085C233.808 166.074 233.563 164.898 233.563 163.557C233.563 162.216 233.808 161.034 234.296 160.011C234.79 158.983 235.478 158.182 236.359 157.608C237.245 157.028 238.279 156.739 239.461 156.739C240.143 156.739 240.816 156.852 241.481 157.08C242.146 157.307 242.751 157.676 243.296 158.188C243.842 158.693 244.276 159.364 244.6 160.199C244.924 161.034 245.086 162.062 245.086 163.284V164.136H234.995V162.398H243.04C243.04 161.659 242.893 161 242.597 160.42C242.308 159.841 241.893 159.384 241.353 159.048C240.819 158.713 240.188 158.545 239.461 158.545C238.66 158.545 237.967 158.744 237.381 159.142C236.802 159.534 236.356 160.045 236.043 160.676C235.731 161.307 235.575 161.983 235.575 162.705V163.864C235.575 164.852 235.745 165.69 236.086 166.378C236.433 167.06 236.913 167.58 237.526 167.938C238.14 168.29 238.853 168.466 239.665 168.466C240.194 168.466 240.671 168.392 241.097 168.244C241.529 168.091 241.901 167.864 242.214 167.562C242.526 167.256 242.768 166.875 242.938 166.42L244.881 166.966C244.677 167.625 244.333 168.205 243.85 168.705C243.367 169.199 242.771 169.585 242.06 169.864C241.35 170.136 240.552 170.273 239.665 170.273ZM250.157 152.545V170H248.146V152.545H250.157ZM259.33 170.273C258.068 170.273 256.98 169.994 256.065 169.438C255.156 168.875 254.455 168.091 253.96 167.085C253.472 166.074 253.227 164.898 253.227 163.557C253.227 162.216 253.472 161.034 253.96 160.011C254.455 158.983 255.142 158.182 256.023 157.608C256.909 157.028 257.943 156.739 259.125 156.739C259.807 156.739 260.48 156.852 261.145 157.08C261.81 157.307 262.415 157.676 262.96 158.188C263.506 158.693 263.94 159.364 264.264 160.199C264.588 161.034 264.75 162.062 264.75 163.284V164.136H254.659V162.398H262.705C262.705 161.659 262.557 161 262.261 160.42C261.972 159.841 261.557 159.384 261.017 159.048C260.483 158.713 259.852 158.545 259.125 158.545C258.324 158.545 257.631 158.744 257.045 159.142C256.466 159.534 256.02 160.045 255.707 160.676C255.395 161.307 255.239 161.983 255.239 162.705V163.864C255.239 164.852 255.409 165.69 255.75 166.378C256.097 167.06 256.577 167.58 257.19 167.938C257.804 168.29 258.517 168.466 259.33 168.466C259.858 168.466 260.335 168.392 260.761 168.244C261.193 168.091 261.565 167.864 261.878 167.562C262.19 167.256 262.432 166.875 262.602 166.42L264.545 166.966C264.341 167.625 263.997 168.205 263.514 168.705C263.031 169.199 262.435 169.585 261.724 169.864C261.014 170.136 260.216 170.273 259.33 170.273ZM267.81 170V156.909H269.753V158.886H269.889C270.128 158.239 270.56 157.713 271.185 157.31C271.81 156.906 272.514 156.705 273.298 156.705C273.446 156.705 273.631 156.707 273.852 156.713C274.074 156.719 274.241 156.727 274.355 156.739V158.784C274.287 158.767 274.131 158.741 273.886 158.707C273.648 158.668 273.395 158.648 273.128 158.648C272.491 158.648 271.923 158.781 271.423 159.048C270.929 159.31 270.537 159.673 270.247 160.139C269.963 160.599 269.821 161.125 269.821 161.716V170H267.81ZM280.592 170.307C279.762 170.307 279.009 170.151 278.333 169.838C277.657 169.52 277.12 169.062 276.722 168.466C276.325 167.864 276.126 167.136 276.126 166.284C276.126 165.534 276.273 164.926 276.569 164.46C276.864 163.989 277.259 163.619 277.754 163.352C278.248 163.085 278.793 162.886 279.39 162.756C279.992 162.619 280.597 162.511 281.205 162.432C282.001 162.33 282.646 162.253 283.14 162.202C283.64 162.145 284.004 162.051 284.231 161.92C284.464 161.79 284.58 161.562 284.58 161.239V161.17C284.58 160.33 284.35 159.676 283.89 159.21C283.435 158.744 282.745 158.511 281.819 158.511C280.859 158.511 280.106 158.722 279.56 159.142C279.015 159.562 278.631 160.011 278.41 160.489L276.501 159.807C276.842 159.011 277.296 158.392 277.864 157.949C278.438 157.5 279.063 157.187 279.739 157.011C280.421 156.83 281.092 156.739 281.751 156.739C282.171 156.739 282.654 156.79 283.2 156.892C283.751 156.989 284.282 157.19 284.793 157.497C285.31 157.804 285.739 158.267 286.08 158.886C286.421 159.506 286.592 160.335 286.592 161.375V170H284.58V168.227H284.478C284.342 168.511 284.114 168.815 283.796 169.139C283.478 169.463 283.055 169.739 282.526 169.966C281.998 170.193 281.353 170.307 280.592 170.307ZM280.898 168.5C281.694 168.5 282.364 168.344 282.91 168.031C283.461 167.719 283.876 167.315 284.154 166.821C284.438 166.327 284.58 165.807 284.58 165.261V163.42C284.495 163.523 284.308 163.616 284.018 163.702C283.734 163.781 283.404 163.852 283.029 163.915C282.66 163.972 282.299 164.023 281.947 164.068C281.6 164.108 281.319 164.142 281.103 164.17C280.58 164.239 280.092 164.349 279.637 164.503C279.188 164.651 278.825 164.875 278.546 165.176C278.273 165.472 278.137 165.875 278.137 166.386C278.137 167.085 278.396 167.614 278.913 167.972C279.435 168.324 280.097 168.5 280.898 168.5ZM295.956 156.909V158.614H289.172V156.909H295.956ZM291.149 153.773H293.161V166.25C293.161 166.818 293.243 167.244 293.408 167.528C293.578 167.807 293.794 167.994 294.055 168.091C294.322 168.182 294.604 168.227 294.899 168.227C295.121 168.227 295.303 168.216 295.445 168.193C295.587 168.165 295.7 168.142 295.786 168.125L296.195 169.932C296.058 169.983 295.868 170.034 295.624 170.085C295.379 170.142 295.07 170.17 294.695 170.17C294.126 170.17 293.57 170.048 293.024 169.804C292.484 169.56 292.036 169.188 291.678 168.688C291.325 168.188 291.149 167.557 291.149 166.795V153.773ZM304.33 170.273C303.068 170.273 301.98 169.994 301.065 169.438C300.156 168.875 299.455 168.091 298.96 167.085C298.472 166.074 298.227 164.898 298.227 163.557C298.227 162.216 298.472 161.034 298.96 160.011C299.455 158.983 300.142 158.182 301.023 157.608C301.909 157.028 302.943 156.739 304.125 156.739C304.807 156.739 305.48 156.852 306.145 157.08C306.81 157.307 307.415 157.676 307.96 158.188C308.506 158.693 308.94 159.364 309.264 160.199C309.588 161.034 309.75 162.062 309.75 163.284V164.136H299.659V162.398H307.705C307.705 161.659 307.557 161 307.261 160.42C306.972 159.841 306.557 159.384 306.017 159.048C305.483 158.713 304.852 158.545 304.125 158.545C303.324 158.545 302.631 158.744 302.045 159.142C301.466 159.534 301.02 160.045 300.707 160.676C300.395 161.307 300.239 161.983 300.239 162.705V163.864C300.239 164.852 300.409 165.69 300.75 166.378C301.097 167.06 301.577 167.58 302.19 167.938C302.804 168.29 303.517 168.466 304.33 168.466C304.858 168.466 305.335 168.392 305.761 168.244C306.193 168.091 306.565 167.864 306.878 167.562C307.19 167.256 307.432 166.875 307.602 166.42L309.545 166.966C309.341 167.625 308.997 168.205 308.514 168.705C308.031 169.199 307.435 169.585 306.724 169.864C306.014 170.136 305.216 170.273 304.33 170.273ZM317.753 170.273C316.662 170.273 315.699 169.997 314.864 169.446C314.028 168.889 313.375 168.105 312.903 167.094C312.432 166.077 312.196 164.875 312.196 163.489C312.196 162.114 312.432 160.92 312.903 159.909C313.375 158.898 314.031 158.116 314.872 157.565C315.713 157.014 316.685 156.739 317.787 156.739C318.639 156.739 319.313 156.881 319.807 157.165C320.307 157.443 320.688 157.761 320.949 158.119C321.216 158.472 321.423 158.761 321.571 158.989H321.741V152.545H323.753V170H321.81V167.989H321.571C321.423 168.227 321.213 168.528 320.94 168.892C320.668 169.25 320.278 169.571 319.773 169.855C319.267 170.134 318.594 170.273 317.753 170.273ZM318.026 168.466C318.832 168.466 319.514 168.256 320.071 167.835C320.628 167.409 321.051 166.821 321.341 166.071C321.631 165.315 321.776 164.443 321.776 163.455C321.776 162.477 321.634 161.622 321.349 160.889C321.065 160.151 320.645 159.577 320.088 159.168C319.531 158.753 318.844 158.545 318.026 158.545C317.173 158.545 316.463 158.764 315.895 159.202C315.332 159.634 314.909 160.222 314.625 160.966C314.347 161.705 314.207 162.534 314.207 163.455C314.207 164.386 314.349 165.233 314.634 165.994C314.923 166.75 315.349 167.352 315.912 167.801C316.48 168.244 317.185 168.466 318.026 168.466ZM335.932 170.136C335.511 170.136 335.151 169.986 334.849 169.685C334.548 169.384 334.398 169.023 334.398 168.602C334.398 168.182 334.548 167.821 334.849 167.52C335.151 167.219 335.511 167.068 335.932 167.068C336.352 167.068 336.713 167.219 337.014 167.52C337.315 167.821 337.466 168.182 337.466 168.602C337.466 168.881 337.395 169.136 337.253 169.369C337.116 169.602 336.932 169.79 336.699 169.932C336.472 170.068 336.216 170.136 335.932 170.136ZM335.932 160.42C335.511 160.42 335.151 160.27 334.849 159.969C334.548 159.668 334.398 159.307 334.398 158.886C334.398 158.466 334.548 158.105 334.849 157.804C335.151 157.503 335.511 157.352 335.932 157.352C336.352 157.352 336.713 157.503 337.014 157.804C337.315 158.105 337.466 158.466 337.466 158.886C337.466 159.165 337.395 159.42 337.253 159.653C337.116 159.886 336.932 160.074 336.699 160.216C336.472 160.352 336.216 160.42 335.932 160.42ZM194.114 199V181.545H196.227V189.318H205.534V181.545H207.648V199H205.534V191.193H196.227V199H194.114ZM219.107 189.335V191.21H211.47V189.335H219.107Z" fill="black"/>
<path d="M197.284 940L192.511 922.545H194.659L198.307 936.761H198.477L202.193 922.545H204.58L208.295 936.761H208.466L212.114 922.545H214.261L209.489 940H207.307L203.455 926.091H203.318L199.466 940H197.284ZM220.892 940.273C219.631 940.273 218.543 939.994 217.628 939.438C216.719 938.875 216.017 938.091 215.523 937.085C215.034 936.074 214.79 934.898 214.79 933.557C214.79 932.216 215.034 931.034 215.523 930.011C216.017 928.983 216.705 928.182 217.585 927.608C218.472 927.028 219.506 926.739 220.688 926.739C221.369 926.739 222.043 926.852 222.707 927.08C223.372 927.307 223.977 927.676 224.523 928.188C225.068 928.693 225.503 929.364 225.827 930.199C226.151 931.034 226.312 932.062 226.312 933.284V934.136H216.222V932.398H224.267C224.267 931.659 224.119 931 223.824 930.42C223.534 929.841 223.119 929.384 222.58 929.048C222.045 928.713 221.415 928.545 220.688 928.545C219.886 928.545 219.193 928.744 218.608 929.142C218.028 929.534 217.582 930.045 217.27 930.676C216.957 931.307 216.801 931.983 216.801 932.705V933.864C216.801 934.852 216.972 935.69 217.312 936.378C217.659 937.06 218.139 937.58 218.753 937.938C219.366 938.29 220.08 938.466 220.892 938.466C221.42 938.466 221.898 938.392 222.324 938.244C222.756 938.091 223.128 937.864 223.44 937.562C223.753 937.256 223.994 936.875 224.165 936.42L226.108 936.966C225.903 937.625 225.56 938.205 225.077 938.705C224.594 939.199 223.997 939.585 223.287 939.864C222.577 940.136 221.778 940.273 220.892 940.273ZM229.372 940V926.909H231.384V940H229.372ZM230.395 924.727C230.003 924.727 229.665 924.594 229.381 924.327C229.102 924.06 228.963 923.739 228.963 923.364C228.963 922.989 229.102 922.668 229.381 922.401C229.665 922.134 230.003 922 230.395 922C230.787 922 231.122 922.134 231.401 922.401C231.685 922.668 231.827 922.989 231.827 923.364C231.827 923.739 231.685 924.06 231.401 924.327C231.122 924.594 230.787 924.727 230.395 924.727ZM240.352 945.182C239.38 945.182 238.545 945.057 237.846 944.807C237.147 944.562 236.565 944.239 236.099 943.835C235.638 943.438 235.272 943.011 234.999 942.557L236.602 941.432C236.783 941.67 237.013 941.943 237.292 942.25C237.57 942.562 237.951 942.832 238.434 943.06C238.923 943.293 239.562 943.409 240.352 943.409C241.408 943.409 242.281 943.153 242.968 942.642C243.656 942.131 243.999 941.33 243.999 940.239V937.58H243.829C243.681 937.818 243.471 938.114 243.198 938.466C242.931 938.812 242.545 939.122 242.039 939.395C241.539 939.662 240.863 939.795 240.011 939.795C238.954 939.795 238.005 939.545 237.164 939.045C236.329 938.545 235.667 937.818 235.178 936.864C234.695 935.909 234.454 934.75 234.454 933.386C234.454 932.045 234.69 930.878 235.161 929.884C235.633 928.884 236.289 928.111 237.13 927.565C237.971 927.014 238.942 926.739 240.045 926.739C240.897 926.739 241.573 926.881 242.073 927.165C242.579 927.443 242.965 927.761 243.232 928.119C243.505 928.472 243.715 928.761 243.863 928.989H244.067V926.909H246.011V940.375C246.011 941.5 245.755 942.415 245.244 943.119C244.738 943.83 244.056 944.349 243.198 944.679C242.346 945.014 241.397 945.182 240.352 945.182ZM240.283 937.989C241.09 937.989 241.772 937.804 242.329 937.435C242.886 937.065 243.309 936.534 243.599 935.841C243.888 935.148 244.033 934.318 244.033 933.352C244.033 932.409 243.891 931.577 243.607 930.855C243.323 930.134 242.903 929.568 242.346 929.159C241.789 928.75 241.102 928.545 240.283 928.545C239.431 928.545 238.721 928.761 238.153 929.193C237.59 929.625 237.167 930.205 236.883 930.932C236.604 931.659 236.465 932.466 236.465 933.352C236.465 934.261 236.607 935.065 236.891 935.764C237.181 936.457 237.607 937.003 238.17 937.401C238.738 937.793 239.442 937.989 240.283 937.989ZM251.704 932.125V940H249.692V922.545H251.704V928.955H251.874C252.181 928.278 252.641 927.741 253.255 927.344C253.874 926.94 254.698 926.739 255.727 926.739C256.619 926.739 257.4 926.918 258.07 927.276C258.741 927.628 259.261 928.17 259.63 928.903C260.005 929.631 260.192 930.557 260.192 931.682V940H258.181V931.818C258.181 930.778 257.911 929.974 257.371 929.406C256.837 928.832 256.096 928.545 255.147 928.545C254.488 928.545 253.897 928.685 253.374 928.963C252.857 929.241 252.448 929.648 252.147 930.182C251.852 930.716 251.704 931.364 251.704 932.125ZM269.565 926.909V928.614H262.781V926.909H269.565ZM264.759 923.773H266.77V936.25C266.77 936.818 266.852 937.244 267.017 937.528C267.188 937.807 267.403 937.994 267.665 938.091C267.932 938.182 268.213 938.227 268.509 938.227C268.73 938.227 268.912 938.216 269.054 938.193C269.196 938.165 269.31 938.142 269.395 938.125L269.804 939.932C269.668 939.983 269.477 940.034 269.233 940.085C268.989 940.142 268.679 940.17 268.304 940.17C267.736 940.17 267.179 940.048 266.634 939.804C266.094 939.56 265.645 939.188 265.287 938.688C264.935 938.188 264.759 937.557 264.759 936.795V923.773ZM280.807 940.136C280.386 940.136 280.026 939.986 279.724 939.685C279.423 939.384 279.273 939.023 279.273 938.602C279.273 938.182 279.423 937.821 279.724 937.52C280.026 937.219 280.386 937.068 280.807 937.068C281.227 937.068 281.588 937.219 281.889 937.52C282.19 937.821 282.341 938.182 282.341 938.602C282.341 938.881 282.27 939.136 282.128 939.369C281.991 939.602 281.807 939.79 281.574 939.932C281.347 940.068 281.091 940.136 280.807 940.136ZM280.807 930.42C280.386 930.42 280.026 930.27 279.724 929.969C279.423 929.668 279.273 929.307 279.273 928.886C279.273 928.466 279.423 928.105 279.724 927.804C280.026 927.503 280.386 927.352 280.807 927.352C281.227 927.352 281.588 927.503 281.889 927.804C282.19 928.105 282.341 928.466 282.341 928.886C282.341 929.165 282.27 929.42 282.128 929.653C281.991 929.886 281.807 930.074 281.574 930.216C281.347 930.352 281.091 930.42 280.807 930.42ZM199.943 951.545V969H197.83V953.761H197.727L193.466 956.591V954.443L197.83 951.545H199.943ZM210.861 969.239C209.736 969.239 208.733 969.045 207.852 968.659C206.977 968.273 206.281 967.736 205.764 967.048C205.253 966.355 204.974 965.551 204.929 964.636H207.077C207.122 965.199 207.315 965.685 207.656 966.094C207.997 966.497 208.443 966.81 208.994 967.031C209.545 967.253 210.156 967.364 210.827 967.364C211.577 967.364 212.241 967.233 212.821 966.972C213.401 966.71 213.855 966.347 214.185 965.881C214.514 965.415 214.679 964.875 214.679 964.261C214.679 963.619 214.52 963.054 214.202 962.565C213.884 962.071 213.418 961.685 212.804 961.406C212.19 961.128 211.44 960.989 210.554 960.989H209.156V959.114H210.554C211.247 959.114 211.855 958.989 212.378 958.739C212.906 958.489 213.318 958.136 213.614 957.682C213.915 957.227 214.065 956.693 214.065 956.08C214.065 955.489 213.935 954.974 213.673 954.537C213.412 954.099 213.043 953.759 212.565 953.514C212.094 953.27 211.537 953.148 210.895 953.148C210.293 953.148 209.724 953.259 209.19 953.48C208.662 953.696 208.23 954.011 207.895 954.426C207.56 954.835 207.378 955.33 207.349 955.909H205.304C205.338 954.994 205.614 954.193 206.131 953.506C206.648 952.812 207.324 952.273 208.159 951.886C209 951.5 209.923 951.307 210.929 951.307C212.009 951.307 212.935 951.526 213.707 951.963C214.48 952.395 215.074 952.966 215.489 953.676C215.903 954.386 216.111 955.153 216.111 955.977C216.111 956.96 215.852 957.798 215.335 958.491C214.824 959.185 214.128 959.665 213.247 959.932V960.068C214.349 960.25 215.21 960.719 215.83 961.474C216.449 962.224 216.759 963.153 216.759 964.261C216.759 965.21 216.5 966.062 215.983 966.818C215.472 967.568 214.773 968.159 213.886 968.591C213 969.023 211.991 969.239 210.861 969.239ZM232.722 955.909V957.614H225.938V955.909H232.722ZM227.915 952.773H229.926V965.25C229.926 965.818 230.009 966.244 230.173 966.528C230.344 966.807 230.56 966.994 230.821 967.091C231.088 967.182 231.369 967.227 231.665 967.227C231.886 967.227 232.068 967.216 232.21 967.193C232.352 967.165 232.466 967.142 232.551 967.125L232.96 968.932C232.824 968.983 232.634 969.034 232.389 969.085C232.145 969.142 231.835 969.17 231.46 969.17C230.892 969.17 230.335 969.048 229.79 968.804C229.25 968.56 228.801 968.188 228.443 967.688C228.091 967.188 227.915 966.557 227.915 965.795V952.773Z" fill="black"/>
<path d="M194.114 412V394.545H200.216C201.432 394.545 202.435 394.756 203.224 395.176C204.014 395.591 204.602 396.151 204.989 396.855C205.375 397.554 205.568 398.33 205.568 399.182C205.568 399.932 205.435 400.551 205.168 401.04C204.906 401.528 204.56 401.915 204.128 402.199C203.702 402.483 203.239 402.693 202.739 402.83V403C203.273 403.034 203.81 403.222 204.349 403.562C204.889 403.903 205.341 404.392 205.705 405.028C206.068 405.665 206.25 406.443 206.25 407.364C206.25 408.239 206.051 409.026 205.653 409.724C205.256 410.423 204.628 410.977 203.77 411.386C202.912 411.795 201.795 412 200.42 412H194.114ZM196.227 410.125H200.42C201.801 410.125 202.781 409.858 203.361 409.324C203.946 408.784 204.239 408.131 204.239 407.364C204.239 406.773 204.088 406.227 203.787 405.727C203.486 405.222 203.057 404.818 202.5 404.517C201.943 404.21 201.284 404.057 200.523 404.057H196.227V410.125ZM196.227 402.216H200.148C200.784 402.216 201.358 402.091 201.869 401.841C202.386 401.591 202.795 401.239 203.097 400.784C203.403 400.33 203.557 399.795 203.557 399.182C203.557 398.415 203.29 397.764 202.756 397.23C202.222 396.69 201.375 396.42 200.216 396.42H196.227V402.216ZM214.939 412.273C213.678 412.273 212.589 411.994 211.675 411.438C210.766 410.875 210.064 410.091 209.57 409.085C209.081 408.074 208.837 406.898 208.837 405.557C208.837 404.216 209.081 403.034 209.57 402.011C210.064 400.983 210.751 400.182 211.632 399.608C212.518 399.028 213.553 398.739 214.734 398.739C215.416 398.739 216.089 398.852 216.754 399.08C217.419 399.307 218.024 399.676 218.57 400.188C219.115 400.693 219.55 401.364 219.874 402.199C220.197 403.034 220.359 404.062 220.359 405.284V406.136H210.268V404.398H218.314C218.314 403.659 218.166 403 217.871 402.42C217.581 401.841 217.166 401.384 216.626 401.048C216.092 400.713 215.462 400.545 214.734 400.545C213.933 400.545 213.24 400.744 212.655 401.142C212.075 401.534 211.629 402.045 211.317 402.676C211.004 403.307 210.848 403.983 210.848 404.705V405.864C210.848 406.852 211.018 407.69 211.359 408.378C211.706 409.06 212.186 409.58 212.8 409.938C213.413 410.29 214.126 410.466 214.939 410.466C215.467 410.466 215.945 410.392 216.371 410.244C216.803 410.091 217.175 409.864 217.487 409.562C217.8 409.256 218.041 408.875 218.212 408.42L220.155 408.966C219.95 409.625 219.607 410.205 219.124 410.705C218.641 411.199 218.044 411.585 217.334 411.864C216.624 412.136 215.825 412.273 214.939 412.273ZM227.271 412.307C226.442 412.307 225.689 412.151 225.013 411.838C224.337 411.52 223.8 411.062 223.402 410.466C223.004 409.864 222.805 409.136 222.805 408.284C222.805 407.534 222.953 406.926 223.249 406.46C223.544 405.989 223.939 405.619 224.433 405.352C224.928 405.085 225.473 404.886 226.07 404.756C226.672 404.619 227.277 404.511 227.885 404.432C228.68 404.33 229.325 404.253 229.82 404.202C230.32 404.145 230.683 404.051 230.911 403.92C231.143 403.79 231.26 403.562 231.26 403.239V403.17C231.26 402.33 231.03 401.676 230.57 401.21C230.115 400.744 229.425 400.511 228.499 400.511C227.538 400.511 226.786 400.722 226.24 401.142C225.695 401.562 225.311 402.011 225.089 402.489L223.18 401.807C223.521 401.011 223.976 400.392 224.544 399.949C225.118 399.5 225.743 399.187 226.419 399.011C227.101 398.83 227.771 398.739 228.43 398.739C228.851 398.739 229.334 398.79 229.879 398.892C230.43 398.989 230.962 399.19 231.473 399.497C231.99 399.804 232.419 400.267 232.76 400.886C233.101 401.506 233.271 402.335 233.271 403.375V412H231.26V410.227H231.158C231.021 410.511 230.794 410.815 230.476 411.139C230.158 411.463 229.734 411.739 229.206 411.966C228.678 412.193 228.033 412.307 227.271 412.307ZM227.578 410.5C228.374 410.5 229.044 410.344 229.589 410.031C230.141 409.719 230.555 409.315 230.834 408.821C231.118 408.327 231.26 407.807 231.26 407.261V405.42C231.175 405.523 230.987 405.616 230.697 405.702C230.413 405.781 230.084 405.852 229.709 405.915C229.339 405.972 228.979 406.023 228.626 406.068C228.28 406.108 227.999 406.142 227.783 406.17C227.26 406.239 226.771 406.349 226.317 406.503C225.868 406.651 225.504 406.875 225.226 407.176C224.953 407.472 224.817 407.875 224.817 408.386C224.817 409.085 225.075 409.614 225.592 409.972C226.115 410.324 226.777 410.5 227.578 410.5ZM236.942 412V398.909H238.886V400.955H239.056C239.329 400.256 239.769 399.713 240.377 399.327C240.985 398.935 241.715 398.739 242.567 398.739C243.431 398.739 244.15 398.935 244.724 399.327C245.303 399.713 245.755 400.256 246.079 400.955H246.215C246.55 400.278 247.053 399.741 247.724 399.344C248.394 398.94 249.198 398.739 250.136 398.739C251.306 398.739 252.263 399.105 253.008 399.838C253.752 400.565 254.124 401.699 254.124 403.239V412H252.113V403.239C252.113 402.273 251.849 401.582 251.32 401.168C250.792 400.753 250.17 400.545 249.454 400.545C248.533 400.545 247.82 400.824 247.315 401.381C246.809 401.932 246.556 402.631 246.556 403.477V412H244.511V403.034C244.511 402.29 244.269 401.69 243.786 401.236C243.303 400.776 242.681 400.545 241.92 400.545C241.397 400.545 240.908 400.685 240.454 400.963C240.005 401.241 239.641 401.628 239.363 402.122C239.09 402.611 238.954 403.176 238.954 403.818V412H236.942ZM270.04 412.273C268.779 412.273 267.691 411.994 266.776 411.438C265.867 410.875 265.165 410.091 264.671 409.085C264.183 408.074 263.938 406.898 263.938 405.557C263.938 404.216 264.183 403.034 264.671 402.011C265.165 400.983 265.853 400.182 266.734 399.608C267.62 399.028 268.654 398.739 269.836 398.739C270.518 398.739 271.191 398.852 271.856 399.08C272.521 399.307 273.126 399.676 273.671 400.188C274.217 400.693 274.651 401.364 274.975 402.199C275.299 403.034 275.461 404.062 275.461 405.284V406.136H265.37V404.398H273.415C273.415 403.659 273.268 403 272.972 402.42C272.683 401.841 272.268 401.384 271.728 401.048C271.194 400.713 270.563 400.545 269.836 400.545C269.035 400.545 268.342 400.744 267.756 401.142C267.177 401.534 266.731 402.045 266.418 402.676C266.106 403.307 265.95 403.983 265.95 404.705V405.864C265.95 406.852 266.12 407.69 266.461 408.378C266.808 409.06 267.288 409.58 267.901 409.938C268.515 410.29 269.228 410.466 270.04 410.466C270.569 410.466 271.046 410.392 271.472 410.244C271.904 410.091 272.276 409.864 272.589 409.562C272.901 409.256 273.143 408.875 273.313 408.42L275.256 408.966C275.052 409.625 274.708 410.205 274.225 410.705C273.742 411.199 273.146 411.585 272.435 411.864C271.725 412.136 270.927 412.273 270.04 412.273ZM280.532 404.125V412H278.521V398.909H280.464V400.955H280.634C280.941 400.29 281.407 399.756 282.032 399.352C282.657 398.943 283.464 398.739 284.452 398.739C285.339 398.739 286.114 398.92 286.779 399.284C287.444 399.642 287.961 400.188 288.33 400.92C288.7 401.648 288.884 402.568 288.884 403.682V412H286.873V403.818C286.873 402.79 286.606 401.989 286.072 401.415C285.538 400.835 284.805 400.545 283.873 400.545C283.231 400.545 282.657 400.685 282.151 400.963C281.651 401.241 281.256 401.648 280.967 402.182C280.677 402.716 280.532 403.364 280.532 404.125ZM298.048 412.273C296.787 412.273 295.699 411.994 294.784 411.438C293.875 410.875 293.173 410.091 292.679 409.085C292.19 408.074 291.946 406.898 291.946 405.557C291.946 404.216 292.19 403.034 292.679 402.011C293.173 400.983 293.861 400.182 294.741 399.608C295.628 399.028 296.662 398.739 297.844 398.739C298.526 398.739 299.199 398.852 299.864 399.08C300.528 399.307 301.134 399.676 301.679 400.188C302.224 400.693 302.659 401.364 302.983 402.199C303.307 403.034 303.469 404.062 303.469 405.284V406.136H293.378V404.398H301.423C301.423 403.659 301.276 403 300.98 402.42C300.69 401.841 300.276 401.384 299.736 401.048C299.202 400.713 298.571 400.545 297.844 400.545C297.043 400.545 296.349 400.744 295.764 401.142C295.185 401.534 294.739 402.045 294.426 402.676C294.114 403.307 293.957 403.983 293.957 404.705V405.864C293.957 406.852 294.128 407.69 294.469 408.378C294.815 409.06 295.295 409.58 295.909 409.938C296.523 410.29 297.236 410.466 298.048 410.466C298.577 410.466 299.054 410.392 299.48 410.244C299.912 410.091 300.284 409.864 300.597 409.562C300.909 409.256 301.151 408.875 301.321 408.42L303.264 408.966C303.06 409.625 302.716 410.205 302.233 410.705C301.75 411.199 301.153 411.585 300.443 411.864C299.733 412.136 298.935 412.273 298.048 412.273ZM306.528 412V398.909H308.472V400.886H308.608C308.847 400.239 309.278 399.713 309.903 399.31C310.528 398.906 311.233 398.705 312.017 398.705C312.165 398.705 312.349 398.707 312.571 398.713C312.793 398.719 312.96 398.727 313.074 398.739V400.784C313.006 400.767 312.849 400.741 312.605 400.707C312.366 400.668 312.114 400.648 311.847 400.648C311.21 400.648 310.642 400.781 310.142 401.048C309.648 401.31 309.256 401.673 308.966 402.139C308.682 402.599 308.54 403.125 308.54 403.716V412H306.528ZM320.344 417.182C319.372 417.182 318.537 417.057 317.838 416.807C317.139 416.562 316.557 416.239 316.091 415.835C315.631 415.438 315.264 415.011 314.991 414.557L316.594 413.432C316.776 413.67 317.006 413.943 317.284 414.25C317.563 414.562 317.943 414.832 318.426 415.06C318.915 415.293 319.554 415.409 320.344 415.409C321.401 415.409 322.273 415.153 322.96 414.642C323.648 414.131 323.991 413.33 323.991 412.239V409.58H323.821C323.673 409.818 323.463 410.114 323.19 410.466C322.923 410.812 322.537 411.122 322.031 411.395C321.531 411.662 320.855 411.795 320.003 411.795C318.946 411.795 317.997 411.545 317.156 411.045C316.321 410.545 315.659 409.818 315.17 408.864C314.688 407.909 314.446 406.75 314.446 405.386C314.446 404.045 314.682 402.878 315.153 401.884C315.625 400.884 316.281 400.111 317.122 399.565C317.963 399.014 318.935 398.739 320.037 398.739C320.889 398.739 321.565 398.881 322.065 399.165C322.571 399.443 322.957 399.761 323.224 400.119C323.497 400.472 323.707 400.761 323.855 400.989H324.06V398.909H326.003V412.375C326.003 413.5 325.747 414.415 325.236 415.119C324.73 415.83 324.048 416.349 323.19 416.679C322.338 417.014 321.389 417.182 320.344 417.182ZM320.276 409.989C321.082 409.989 321.764 409.804 322.321 409.435C322.878 409.065 323.301 408.534 323.591 407.841C323.881 407.148 324.026 406.318 324.026 405.352C324.026 404.409 323.884 403.577 323.599 402.855C323.315 402.134 322.895 401.568 322.338 401.159C321.781 400.75 321.094 400.545 320.276 400.545C319.423 400.545 318.713 400.761 318.145 401.193C317.582 401.625 317.159 402.205 316.875 402.932C316.597 403.659 316.457 404.466 316.457 405.352C316.457 406.261 316.599 407.065 316.884 407.764C317.173 408.457 317.599 409.003 318.162 409.401C318.73 409.793 319.435 409.989 320.276 409.989ZM330.98 416.909C330.639 416.909 330.335 416.881 330.068 416.824C329.801 416.773 329.616 416.722 329.514 416.67L330.026 414.898C330.514 415.023 330.946 415.068 331.321 415.034C331.696 415 332.028 414.832 332.318 414.531C332.614 414.236 332.884 413.756 333.128 413.091L333.503 412.068L328.662 398.909H330.844L334.457 409.341H334.594L338.207 398.909H340.389L334.832 413.909C334.582 414.585 334.273 415.145 333.903 415.588C333.534 416.037 333.105 416.369 332.616 416.585C332.134 416.801 331.588 416.909 330.98 416.909ZM351.26 412.136C350.839 412.136 350.479 411.986 350.178 411.685C349.876 411.384 349.726 411.023 349.726 410.602C349.726 410.182 349.876 409.821 350.178 409.52C350.479 409.219 350.839 409.068 351.26 409.068C351.68 409.068 352.041 409.219 352.342 409.52C352.643 409.821 352.794 410.182 352.794 410.602C352.794 410.881 352.723 411.136 352.581 411.369C352.445 411.602 352.26 411.79 352.027 411.932C351.8 412.068 351.544 412.136 351.26 412.136ZM351.26 402.42C350.839 402.42 350.479 402.27 350.178 401.969C349.876 401.668 349.726 401.307 349.726 400.886C349.726 400.466 349.876 400.105 350.178 399.804C350.479 399.503 350.839 399.352 351.26 399.352C351.68 399.352 352.041 399.503 352.342 399.804C352.643 400.105 352.794 400.466 352.794 400.886C352.794 401.165 352.723 401.42 352.581 401.653C352.445 401.886 352.26 402.074 352.027 402.216C351.8 402.352 351.544 402.42 351.26 402.42ZM199.943 423.545V441H197.83V425.761H197.727L193.466 428.591V426.443L197.83 423.545H199.943ZM210.418 441.239C209.418 441.239 208.517 441.04 207.716 440.642C206.915 440.244 206.273 439.699 205.79 439.006C205.307 438.312 205.043 437.523 204.997 436.636H207.043C207.122 437.426 207.48 438.08 208.116 438.597C208.759 439.108 209.526 439.364 210.418 439.364C211.134 439.364 211.77 439.196 212.327 438.861C212.889 438.526 213.33 438.065 213.648 437.48C213.972 436.889 214.134 436.222 214.134 435.477C214.134 434.716 213.966 434.037 213.631 433.44C213.301 432.838 212.847 432.364 212.267 432.017C211.688 431.67 211.026 431.494 210.281 431.489C209.747 431.483 209.199 431.565 208.636 431.736C208.074 431.901 207.611 432.114 207.247 432.375L205.27 432.136L206.327 423.545H215.395V425.42H208.099L207.486 430.568H207.588C207.946 430.284 208.395 430.048 208.935 429.861C209.474 429.673 210.037 429.58 210.622 429.58C211.69 429.58 212.642 429.835 213.477 430.347C214.318 430.852 214.977 431.545 215.455 432.426C215.938 433.307 216.179 434.312 216.179 435.443C216.179 436.557 215.929 437.551 215.429 438.426C214.935 439.295 214.253 439.983 213.384 440.489C212.514 440.989 211.526 441.239 210.418 441.239ZM220.408 441.136C219.988 441.136 219.627 440.986 219.326 440.685C219.025 440.384 218.874 440.023 218.874 439.602C218.874 439.182 219.025 438.821 219.326 438.52C219.627 438.219 219.988 438.068 220.408 438.068C220.829 438.068 221.19 438.219 221.491 438.52C221.792 438.821 221.942 439.182 221.942 439.602C221.942 439.881 221.871 440.136 221.729 440.369C221.593 440.602 221.408 440.79 221.175 440.932C220.948 441.068 220.692 441.136 220.408 441.136ZM225.109 437.42V435.682L232.779 423.545H234.04V426.239H233.188L227.393 435.409V435.545H237.722V437.42H225.109ZM233.325 441V436.892V436.082V423.545H235.336V441H233.325ZM247.973 423.545H250.496L256.428 438.034H256.632L262.564 423.545H265.087V441H263.109V427.739H262.939L257.484 441H255.575L250.121 427.739H249.95V441H247.973V423.545ZM274.54 441.273C273.279 441.273 272.191 440.994 271.276 440.438C270.367 439.875 269.665 439.091 269.171 438.085C268.683 437.074 268.438 435.898 268.438 434.557C268.438 433.216 268.683 432.034 269.171 431.011C269.665 429.983 270.353 429.182 271.234 428.608C272.12 428.028 273.154 427.739 274.336 427.739C275.018 427.739 275.691 427.852 276.356 428.08C277.021 428.307 277.626 428.676 278.171 429.188C278.717 429.693 279.151 430.364 279.475 431.199C279.799 432.034 279.961 433.062 279.961 434.284V435.136H269.87V433.398H277.915C277.915 432.659 277.768 432 277.472 431.42C277.183 430.841 276.768 430.384 276.228 430.048C275.694 429.713 275.063 429.545 274.336 429.545C273.535 429.545 272.842 429.744 272.256 430.142C271.677 430.534 271.231 431.045 270.918 431.676C270.606 432.307 270.45 432.983 270.45 433.705V434.864C270.45 435.852 270.62 436.69 270.961 437.378C271.308 438.06 271.788 438.58 272.401 438.938C273.015 439.29 273.728 439.466 274.54 439.466C275.069 439.466 275.546 439.392 275.972 439.244C276.404 439.091 276.776 438.864 277.089 438.562C277.401 438.256 277.643 437.875 277.813 437.42L279.756 437.966C279.552 438.625 279.208 439.205 278.725 439.705C278.242 440.199 277.646 440.585 276.935 440.864C276.225 441.136 275.427 441.273 274.54 441.273ZM282.79 423.545L287.972 438.239H288.177L293.359 423.545H295.575L289.165 441H286.984L280.575 423.545H282.79Z" fill="black"/>
<path d="M194.114 1193.55H196.636L202.568 1208.03H202.773L208.705 1193.55H211.227V1211H209.25V1197.74H209.08L203.625 1211H201.716L196.261 1197.74H196.091V1211H194.114V1193.55ZM219.045 1211.31C218.215 1211.31 217.462 1211.15 216.786 1210.84C216.11 1210.52 215.573 1210.06 215.175 1209.47C214.778 1208.86 214.579 1208.14 214.579 1207.28C214.579 1206.53 214.727 1205.93 215.022 1205.46C215.317 1204.99 215.712 1204.62 216.207 1204.35C216.701 1204.09 217.246 1203.89 217.843 1203.76C218.445 1203.62 219.05 1203.51 219.658 1203.43C220.454 1203.33 221.099 1203.25 221.593 1203.2C222.093 1203.14 222.457 1203.05 222.684 1202.92C222.917 1202.79 223.033 1202.56 223.033 1202.24V1202.17C223.033 1201.33 222.803 1200.68 222.343 1200.21C221.888 1199.74 221.198 1199.51 220.272 1199.51C219.312 1199.51 218.559 1199.72 218.013 1200.14C217.468 1200.56 217.085 1201.01 216.863 1201.49L214.954 1200.81C215.295 1200.01 215.749 1199.39 216.317 1198.95C216.891 1198.5 217.516 1198.19 218.192 1198.01C218.874 1197.83 219.545 1197.74 220.204 1197.74C220.624 1197.74 221.107 1197.79 221.653 1197.89C222.204 1197.99 222.735 1198.19 223.246 1198.5C223.763 1198.8 224.192 1199.27 224.533 1199.89C224.874 1200.51 225.045 1201.34 225.045 1202.38V1211H223.033V1209.23H222.931C222.795 1209.51 222.567 1209.82 222.249 1210.14C221.931 1210.46 221.508 1210.74 220.979 1210.97C220.451 1211.19 219.806 1211.31 219.045 1211.31ZM219.352 1209.5C220.147 1209.5 220.817 1209.34 221.363 1209.03C221.914 1208.72 222.329 1208.32 222.607 1207.82C222.891 1207.33 223.033 1206.81 223.033 1206.26V1204.42C222.948 1204.52 222.761 1204.62 222.471 1204.7C222.187 1204.78 221.857 1204.85 221.482 1204.91C221.113 1204.97 220.752 1205.02 220.4 1205.07C220.053 1205.11 219.772 1205.14 219.556 1205.17C219.033 1205.24 218.545 1205.35 218.09 1205.5C217.641 1205.65 217.278 1205.87 216.999 1206.18C216.727 1206.47 216.59 1206.87 216.59 1207.39C216.59 1208.09 216.849 1208.61 217.366 1208.97C217.888 1209.32 218.55 1209.5 219.352 1209.5ZM234 1216.18C233.028 1216.18 232.193 1216.06 231.494 1215.81C230.795 1215.56 230.213 1215.24 229.747 1214.84C229.287 1214.44 228.92 1214.01 228.648 1213.56L230.25 1212.43C230.432 1212.67 230.662 1212.94 230.94 1213.25C231.219 1213.56 231.599 1213.83 232.082 1214.06C232.571 1214.29 233.21 1214.41 234 1214.41C235.057 1214.41 235.929 1214.15 236.616 1213.64C237.304 1213.13 237.648 1212.33 237.648 1211.24V1208.58H237.477C237.33 1208.82 237.119 1209.11 236.847 1209.47C236.58 1209.81 236.193 1210.12 235.688 1210.39C235.188 1210.66 234.511 1210.8 233.659 1210.8C232.602 1210.8 231.653 1210.55 230.812 1210.05C229.977 1209.55 229.315 1208.82 228.827 1207.86C228.344 1206.91 228.102 1205.75 228.102 1204.39C228.102 1203.05 228.338 1201.88 228.81 1200.88C229.281 1199.88 229.938 1199.11 230.778 1198.57C231.619 1198.01 232.591 1197.74 233.693 1197.74C234.545 1197.74 235.222 1197.88 235.722 1198.16C236.227 1198.44 236.614 1198.76 236.881 1199.12C237.153 1199.47 237.364 1199.76 237.511 1199.99H237.716V1197.91H239.659V1211.38C239.659 1212.5 239.403 1213.41 238.892 1214.12C238.386 1214.83 237.705 1215.35 236.847 1215.68C235.994 1216.01 235.045 1216.18 234 1216.18ZM233.932 1208.99C234.739 1208.99 235.42 1208.8 235.977 1208.43C236.534 1208.07 236.957 1207.53 237.247 1206.84C237.537 1206.15 237.682 1205.32 237.682 1204.35C237.682 1203.41 237.54 1202.58 237.256 1201.86C236.972 1201.13 236.551 1200.57 235.994 1200.16C235.438 1199.75 234.75 1199.55 233.932 1199.55C233.08 1199.55 232.369 1199.76 231.801 1200.19C231.239 1200.62 230.815 1201.2 230.531 1201.93C230.253 1202.66 230.114 1203.47 230.114 1204.35C230.114 1205.26 230.256 1206.07 230.54 1206.76C230.83 1207.46 231.256 1208 231.818 1208.4C232.386 1208.79 233.091 1208.99 233.932 1208.99ZM245.352 1203.12V1211H243.341V1197.91H245.284V1199.95H245.455C245.761 1199.29 246.227 1198.76 246.852 1198.35C247.477 1197.94 248.284 1197.74 249.273 1197.74C250.159 1197.74 250.935 1197.92 251.599 1198.28C252.264 1198.64 252.781 1199.19 253.151 1199.92C253.52 1200.65 253.705 1201.57 253.705 1202.68V1211H251.693V1202.82C251.693 1201.79 251.426 1200.99 250.892 1200.41C250.358 1199.84 249.625 1199.55 248.693 1199.55C248.051 1199.55 247.477 1199.68 246.972 1199.96C246.472 1200.24 246.077 1200.65 245.787 1201.18C245.497 1201.72 245.352 1202.36 245.352 1203.12ZM262.869 1211.27C261.607 1211.27 260.519 1210.99 259.604 1210.44C258.695 1209.88 257.994 1209.09 257.499 1208.09C257.011 1207.07 256.766 1205.9 256.766 1204.56C256.766 1203.22 257.011 1202.03 257.499 1201.01C257.994 1199.98 258.681 1199.18 259.562 1198.61C260.448 1198.03 261.482 1197.74 262.664 1197.74C263.346 1197.74 264.019 1197.85 264.684 1198.08C265.349 1198.31 265.954 1198.68 266.499 1199.19C267.045 1199.69 267.479 1200.36 267.803 1201.2C268.127 1202.03 268.289 1203.06 268.289 1204.28V1205.14H258.198V1203.4H266.244C266.244 1202.66 266.096 1202 265.8 1201.42C265.511 1200.84 265.096 1200.38 264.556 1200.05C264.022 1199.71 263.391 1199.55 262.664 1199.55C261.863 1199.55 261.17 1199.74 260.585 1200.14C260.005 1200.53 259.559 1201.05 259.246 1201.68C258.934 1202.31 258.778 1202.98 258.778 1203.7V1204.86C258.778 1205.85 258.948 1206.69 259.289 1207.38C259.636 1208.06 260.116 1208.58 260.729 1208.94C261.343 1209.29 262.056 1209.47 262.869 1209.47C263.397 1209.47 263.874 1209.39 264.3 1209.24C264.732 1209.09 265.104 1208.86 265.417 1208.56C265.729 1208.26 265.971 1207.87 266.141 1207.42L268.085 1207.97C267.88 1208.62 267.536 1209.2 267.053 1209.7C266.57 1210.2 265.974 1210.59 265.263 1210.86C264.553 1211.14 263.755 1211.27 262.869 1211.27ZM277.042 1197.91V1199.61H270.258V1197.91H277.042ZM272.235 1194.77H274.246V1207.25C274.246 1207.82 274.329 1208.24 274.494 1208.53C274.664 1208.81 274.88 1208.99 275.141 1209.09C275.408 1209.18 275.69 1209.23 275.985 1209.23C276.207 1209.23 276.388 1209.22 276.531 1209.19C276.673 1209.16 276.786 1209.14 276.871 1209.12L277.281 1210.93C277.144 1210.98 276.954 1211.03 276.71 1211.09C276.465 1211.14 276.156 1211.17 275.781 1211.17C275.212 1211.17 274.656 1211.05 274.11 1210.8C273.57 1210.56 273.121 1210.19 272.763 1209.69C272.411 1209.19 272.235 1208.56 272.235 1207.8V1194.77ZM296.09 1200.84L294.283 1201.35C294.17 1201.05 294.002 1200.76 293.781 1200.47C293.565 1200.18 293.269 1199.95 292.894 1199.76C292.519 1199.57 292.039 1199.48 291.454 1199.48C290.653 1199.48 289.985 1199.66 289.451 1200.03C288.923 1200.39 288.658 1200.86 288.658 1201.42C288.658 1201.92 288.84 1202.32 289.204 1202.61C289.567 1202.89 290.136 1203.14 290.908 1203.33L292.852 1203.81C294.022 1204.09 294.894 1204.53 295.468 1205.11C296.042 1205.69 296.329 1206.44 296.329 1207.35C296.329 1208.1 296.113 1208.77 295.681 1209.36C295.255 1209.95 294.658 1210.42 293.891 1210.76C293.124 1211.1 292.232 1211.27 291.215 1211.27C289.88 1211.27 288.775 1210.98 287.9 1210.4C287.025 1209.82 286.471 1208.98 286.238 1207.86L288.147 1207.39C288.329 1208.09 288.673 1208.62 289.178 1208.97C289.69 1209.32 290.357 1209.5 291.181 1209.5C292.119 1209.5 292.863 1209.3 293.414 1208.9C293.971 1208.5 294.249 1208.02 294.249 1207.45C294.249 1207 294.09 1206.62 293.772 1206.31C293.454 1206 292.965 1205.77 292.306 1205.61L290.124 1205.1C288.925 1204.82 288.045 1204.38 287.482 1203.78C286.925 1203.18 286.647 1202.43 286.647 1201.52C286.647 1200.78 286.854 1200.13 287.269 1199.56C287.69 1198.99 288.261 1198.55 288.982 1198.22C289.71 1197.9 290.533 1197.74 291.454 1197.74C292.749 1197.74 293.766 1198.02 294.505 1198.59C295.249 1199.16 295.778 1199.91 296.09 1200.84ZM299.357 1211V1197.91H301.368V1211H299.357ZM300.379 1195.73C299.987 1195.73 299.649 1195.59 299.365 1195.33C299.087 1195.06 298.947 1194.74 298.947 1194.36C298.947 1193.99 299.087 1193.67 299.365 1193.4C299.649 1193.13 299.987 1193 300.379 1193C300.771 1193 301.107 1193.13 301.385 1193.4C301.669 1193.67 301.811 1193.99 301.811 1194.36C301.811 1194.74 301.669 1195.06 301.385 1195.33C301.107 1195.59 300.771 1195.73 300.379 1195.73ZM304.677 1211V1209.47L312.109 1199.92V1199.78H304.915V1197.91H314.7V1199.51L307.472 1208.99V1209.12H314.938V1211H304.677ZM323.15 1211.27C321.888 1211.27 320.8 1210.99 319.886 1210.44C318.977 1209.88 318.275 1209.09 317.781 1208.09C317.292 1207.07 317.048 1205.9 317.048 1204.56C317.048 1203.22 317.292 1202.03 317.781 1201.01C318.275 1199.98 318.962 1199.18 319.843 1198.61C320.729 1198.03 321.763 1197.74 322.945 1197.74C323.627 1197.74 324.3 1197.85 324.965 1198.08C325.63 1198.31 326.235 1198.68 326.781 1199.19C327.326 1199.69 327.761 1200.36 328.085 1201.2C328.408 1202.03 328.57 1203.06 328.57 1204.28V1205.14H318.479V1203.4H326.525C326.525 1202.66 326.377 1202 326.082 1201.42C325.792 1200.84 325.377 1200.38 324.837 1200.05C324.303 1199.71 323.673 1199.55 322.945 1199.55C322.144 1199.55 321.451 1199.74 320.866 1200.14C320.286 1200.53 319.84 1201.05 319.528 1201.68C319.215 1202.31 319.059 1202.98 319.059 1203.7V1204.86C319.059 1205.85 319.229 1206.69 319.57 1207.38C319.917 1208.06 320.397 1208.58 321.011 1208.94C321.624 1209.29 322.337 1209.47 323.15 1209.47C323.678 1209.47 324.156 1209.39 324.582 1209.24C325.013 1209.09 325.386 1208.86 325.698 1208.56C326.011 1208.26 326.252 1207.87 326.423 1207.42L328.366 1207.97C328.161 1208.62 327.817 1209.2 327.335 1209.7C326.852 1210.2 326.255 1210.59 325.545 1210.86C324.835 1211.14 324.036 1211.27 323.15 1211.27ZM339.846 1211.14C339.425 1211.14 339.065 1210.99 338.763 1210.68C338.462 1210.38 338.312 1210.02 338.312 1209.6C338.312 1209.18 338.462 1208.82 338.763 1208.52C339.065 1208.22 339.425 1208.07 339.846 1208.07C340.266 1208.07 340.627 1208.22 340.928 1208.52C341.229 1208.82 341.38 1209.18 341.38 1209.6C341.38 1209.88 341.309 1210.14 341.167 1210.37C341.031 1210.6 340.846 1210.79 340.613 1210.93C340.386 1211.07 340.13 1211.14 339.846 1211.14ZM339.846 1201.42C339.425 1201.42 339.065 1201.27 338.763 1200.97C338.462 1200.67 338.312 1200.31 338.312 1199.89C338.312 1199.47 338.462 1199.11 338.763 1198.8C339.065 1198.5 339.425 1198.35 339.846 1198.35C340.266 1198.35 340.627 1198.5 340.928 1198.8C341.229 1199.11 341.38 1199.47 341.38 1199.89C341.38 1200.16 341.309 1200.42 341.167 1200.65C341.031 1200.89 340.846 1201.07 340.613 1201.22C340.386 1201.35 340.13 1201.42 339.846 1201.42ZM195.682 1240.72L194.386 1239.83L206.523 1221.86L207.818 1222.75L195.682 1240.72ZM208.841 1231.27C208.841 1233.11 208.509 1234.7 207.844 1236.05C207.179 1237.39 206.267 1238.42 205.108 1239.15C203.949 1239.88 202.625 1240.24 201.136 1240.24C199.648 1240.24 198.324 1239.88 197.165 1239.15C196.006 1238.42 195.094 1237.39 194.429 1236.05C193.764 1234.7 193.432 1233.11 193.432 1231.27C193.432 1229.43 193.764 1227.84 194.429 1226.5C195.094 1225.16 196.006 1224.12 197.165 1223.4C198.324 1222.67 199.648 1222.31 201.136 1222.31C202.625 1222.31 203.949 1222.67 205.108 1223.4C206.267 1224.12 207.179 1225.16 207.844 1226.5C208.509 1227.84 208.841 1229.43 208.841 1231.27ZM206.795 1231.27C206.795 1229.76 206.543 1228.49 206.037 1227.45C205.537 1226.41 204.858 1225.62 204 1225.09C203.148 1224.55 202.193 1224.28 201.136 1224.28C200.08 1224.28 199.122 1224.55 198.264 1225.09C197.412 1225.62 196.733 1226.41 196.227 1227.45C195.727 1228.49 195.477 1229.76 195.477 1231.27C195.477 1232.78 195.727 1234.06 196.227 1235.1C196.733 1236.14 197.412 1236.93 198.264 1237.46C199.122 1237.99 200.08 1238.26 201.136 1238.26C202.193 1238.26 203.148 1237.99 204 1237.46C204.858 1236.93 205.537 1236.14 206.037 1235.1C206.543 1234.06 206.795 1232.78 206.795 1231.27ZM218.224 1222.55V1240H216.111V1224.76H216.009L211.747 1227.59V1225.44L216.111 1222.55H218.224ZM223.79 1240L231.597 1224.56V1224.42H222.597V1222.55H233.778V1224.52L226.006 1240H223.79ZM242.376 1240.24C241.66 1240.23 240.944 1240.09 240.228 1239.83C239.512 1239.57 238.859 1239.13 238.268 1238.51C237.677 1237.88 237.202 1237.04 236.844 1235.98C236.487 1234.91 236.308 1233.57 236.308 1231.95C236.308 1230.41 236.452 1229.04 236.742 1227.85C237.032 1226.65 237.452 1225.64 238.004 1224.82C238.555 1224 239.219 1223.37 239.998 1222.95C240.782 1222.52 241.665 1222.31 242.648 1222.31C243.626 1222.31 244.495 1222.5 245.256 1222.89C246.023 1223.28 246.648 1223.82 247.131 1224.51C247.614 1225.21 247.927 1226.01 248.069 1226.91H245.989C245.796 1226.12 245.421 1225.47 244.864 1224.96C244.308 1224.44 243.569 1224.18 242.648 1224.18C241.296 1224.18 240.231 1224.77 239.452 1225.95C238.68 1227.12 238.29 1228.77 238.285 1230.9H238.421C238.739 1230.41 239.117 1230 239.555 1229.66C239.998 1229.32 240.487 1229.05 241.021 1228.86C241.555 1228.67 242.12 1228.58 242.717 1228.58C243.717 1228.58 244.631 1228.83 245.461 1229.33C246.29 1229.82 246.955 1230.51 247.455 1231.38C247.955 1232.25 248.205 1233.25 248.205 1234.38C248.205 1235.45 247.964 1236.44 247.481 1237.34C246.998 1238.23 246.319 1238.94 245.444 1239.47C244.575 1239.99 243.552 1240.25 242.376 1240.24ZM242.376 1238.36C243.092 1238.36 243.734 1238.18 244.302 1237.83C244.876 1237.47 245.327 1236.99 245.657 1236.39C245.992 1235.78 246.16 1235.11 246.16 1234.38C246.16 1233.65 245.998 1233 245.674 1232.41C245.356 1231.81 244.915 1231.34 244.353 1230.98C243.796 1230.63 243.16 1230.45 242.444 1230.45C241.904 1230.45 241.401 1230.56 240.935 1230.78C240.469 1230.99 240.06 1231.28 239.708 1231.65C239.362 1232.02 239.089 1232.44 238.89 1232.92C238.691 1233.39 238.592 1233.89 238.592 1234.41C238.592 1235.1 238.754 1235.75 239.077 1236.35C239.407 1236.95 239.856 1237.44 240.424 1237.81C240.998 1238.18 241.648 1238.36 242.376 1238.36ZM268.568 1236.86L258.955 1227.25L260.25 1225.95L269.864 1235.57L268.568 1236.86ZM260.25 1236.86L258.955 1235.57L268.568 1225.95L269.864 1227.25L260.25 1236.86ZM286.434 1222.31C287.15 1222.31 287.866 1222.45 288.582 1222.72C289.298 1222.98 289.951 1223.43 290.542 1224.05C291.133 1224.66 291.607 1225.5 291.965 1226.56C292.323 1227.62 292.502 1228.95 292.502 1230.56C292.502 1232.11 292.354 1233.49 292.059 1234.69C291.769 1235.89 291.349 1236.9 290.798 1237.72C290.252 1238.55 289.587 1239.17 288.803 1239.6C288.025 1240.03 287.144 1240.24 286.161 1240.24C285.184 1240.24 284.312 1240.05 283.545 1239.66C282.783 1239.27 282.158 1238.72 281.67 1238.03C281.187 1237.33 280.877 1236.52 280.741 1235.6H282.82C283.008 1236.4 283.38 1237.07 283.937 1237.59C284.499 1238.11 285.241 1238.36 286.161 1238.36C287.508 1238.36 288.57 1237.78 289.349 1236.6C290.133 1235.42 290.525 1233.76 290.525 1231.61H290.388C290.07 1232.09 289.692 1232.5 289.255 1232.85C288.817 1233.2 288.332 1233.46 287.798 1233.65C287.263 1233.84 286.695 1233.93 286.093 1233.93C285.093 1233.93 284.175 1233.68 283.34 1233.19C282.511 1232.69 281.846 1232.01 281.346 1231.14C280.852 1230.26 280.604 1229.26 280.604 1228.14C280.604 1227.07 280.843 1226.09 281.32 1225.2C281.803 1224.31 282.479 1223.6 283.349 1223.07C284.224 1222.55 285.252 1222.29 286.434 1222.31ZM286.434 1224.18C285.718 1224.18 285.073 1224.36 284.499 1224.72C283.931 1225.07 283.479 1225.55 283.144 1226.15C282.815 1226.75 282.65 1227.41 282.65 1228.14C282.65 1228.86 282.809 1229.53 283.127 1230.12C283.451 1230.71 283.891 1231.18 284.448 1231.54C285.011 1231.88 285.65 1232.06 286.366 1232.06C286.906 1232.06 287.408 1231.95 287.874 1231.74C288.34 1231.53 288.746 1231.23 289.093 1230.86C289.445 1230.49 289.721 1230.07 289.92 1229.59C290.119 1229.12 290.218 1228.62 290.218 1228.1C290.218 1227.42 290.053 1226.78 289.724 1226.18C289.4 1225.59 288.951 1225.11 288.377 1224.74C287.809 1224.37 287.161 1224.18 286.434 1224.18ZM301.547 1240.24C300.263 1240.24 299.169 1239.89 298.266 1239.19C297.362 1238.49 296.672 1237.47 296.195 1236.13C295.717 1234.79 295.479 1233.17 295.479 1231.27C295.479 1229.39 295.717 1227.78 296.195 1226.44C296.678 1225.1 297.371 1224.08 298.274 1223.37C299.183 1222.66 300.274 1222.31 301.547 1222.31C302.82 1222.31 303.908 1222.66 304.811 1223.37C305.72 1224.08 306.413 1225.1 306.891 1226.44C307.374 1227.78 307.615 1229.39 307.615 1231.27C307.615 1233.17 307.376 1234.79 306.899 1236.13C306.422 1237.47 305.732 1238.49 304.828 1239.19C303.925 1239.89 302.831 1240.24 301.547 1240.24ZM301.547 1238.36C302.82 1238.36 303.808 1237.75 304.513 1236.52C305.217 1235.3 305.57 1233.55 305.57 1231.27C305.57 1229.76 305.408 1228.47 305.084 1227.41C304.766 1226.35 304.305 1225.54 303.703 1224.98C303.107 1224.43 302.388 1224.15 301.547 1224.15C300.286 1224.15 299.3 1224.77 298.589 1226.01C297.879 1227.25 297.524 1229.01 297.524 1231.27C297.524 1232.78 297.683 1234.07 298.001 1235.12C298.32 1236.18 298.777 1236.99 299.374 1237.54C299.976 1238.09 300.7 1238.36 301.547 1238.36ZM322.956 1240.27C321.729 1240.27 320.672 1239.98 319.786 1239.4C318.899 1238.82 318.217 1238.03 317.74 1237.01C317.263 1235.99 317.024 1234.83 317.024 1233.52C317.024 1232.19 317.268 1231.02 317.757 1230C318.251 1228.98 318.939 1228.18 319.82 1227.61C320.706 1227.03 321.74 1226.74 322.922 1226.74C323.842 1226.74 324.672 1226.91 325.411 1227.25C326.149 1227.59 326.754 1228.07 327.226 1228.68C327.697 1229.3 327.99 1230.01 328.104 1230.83H326.092C325.939 1230.23 325.598 1229.7 325.07 1229.24C324.547 1228.78 323.842 1228.55 322.956 1228.55C322.172 1228.55 321.484 1228.75 320.893 1229.16C320.308 1229.56 319.851 1230.13 319.521 1230.87C319.197 1231.61 319.036 1232.47 319.036 1233.45C319.036 1234.47 319.195 1235.35 319.513 1236.1C319.837 1236.85 320.291 1237.43 320.876 1237.84C321.467 1238.26 322.161 1238.47 322.956 1238.47C323.479 1238.47 323.953 1238.38 324.379 1238.19C324.805 1238.01 325.166 1237.75 325.462 1237.41C325.757 1237.07 325.967 1236.66 326.092 1236.18H328.104C327.99 1236.95 327.709 1237.65 327.26 1238.27C326.817 1238.88 326.229 1239.37 325.496 1239.74C324.768 1240.09 323.922 1240.27 322.956 1240.27ZM331.044 1240V1226.91H332.987V1228.95H333.158C333.43 1228.26 333.871 1227.71 334.479 1227.33C335.087 1226.93 335.817 1226.74 336.669 1226.74C337.533 1226.74 338.251 1226.93 338.825 1227.33C339.405 1227.71 339.857 1228.26 340.18 1228.95H340.317C340.652 1228.28 341.155 1227.74 341.825 1227.34C342.496 1226.94 343.3 1226.74 344.237 1226.74C345.408 1226.74 346.365 1227.11 347.109 1227.84C347.854 1228.57 348.226 1229.7 348.226 1231.24V1240H346.214V1231.24C346.214 1230.27 345.95 1229.58 345.422 1229.17C344.893 1228.75 344.271 1228.55 343.555 1228.55C342.635 1228.55 341.922 1228.82 341.416 1229.38C340.911 1229.93 340.658 1230.63 340.658 1231.48V1240H338.612V1231.03C338.612 1230.29 338.371 1229.69 337.888 1229.24C337.405 1228.78 336.783 1228.55 336.021 1228.55C335.499 1228.55 335.01 1228.68 334.555 1228.96C334.107 1229.24 333.743 1229.63 333.464 1230.12C333.192 1230.61 333.055 1231.18 333.055 1231.82V1240H331.044Z" fill="black"/>
<path d="M194.114 683V665.545H200.216C201.432 665.545 202.435 665.756 203.224 666.176C204.014 666.591 204.602 667.151 204.989 667.855C205.375 668.554 205.568 669.33 205.568 670.182C205.568 670.932 205.435 671.551 205.168 672.04C204.906 672.528 204.56 672.915 204.128 673.199C203.702 673.483 203.239 673.693 202.739 673.83V674C203.273 674.034 203.81 674.222 204.349 674.562C204.889 674.903 205.341 675.392 205.705 676.028C206.068 676.665 206.25 677.443 206.25 678.364C206.25 679.239 206.051 680.026 205.653 680.724C205.256 681.423 204.628 681.977 203.77 682.386C202.912 682.795 201.795 683 200.42 683H194.114ZM196.227 681.125H200.42C201.801 681.125 202.781 680.858 203.361 680.324C203.946 679.784 204.239 679.131 204.239 678.364C204.239 677.773 204.088 677.227 203.787 676.727C203.486 676.222 203.057 675.818 202.5 675.517C201.943 675.21 201.284 675.057 200.523 675.057H196.227V681.125ZM196.227 673.216H200.148C200.784 673.216 201.358 673.091 201.869 672.841C202.386 672.591 202.795 672.239 203.097 671.784C203.403 671.33 203.557 670.795 203.557 670.182C203.557 669.415 203.29 668.764 202.756 668.23C202.222 667.69 201.375 667.42 200.216 667.42H196.227V673.216ZM214.939 683.273C213.678 683.273 212.589 682.994 211.675 682.438C210.766 681.875 210.064 681.091 209.57 680.085C209.081 679.074 208.837 677.898 208.837 676.557C208.837 675.216 209.081 674.034 209.57 673.011C210.064 671.983 210.751 671.182 211.632 670.608C212.518 670.028 213.553 669.739 214.734 669.739C215.416 669.739 216.089 669.852 216.754 670.08C217.419 670.307 218.024 670.676 218.57 671.188C219.115 671.693 219.55 672.364 219.874 673.199C220.197 674.034 220.359 675.062 220.359 676.284V677.136H210.268V675.398H218.314C218.314 674.659 218.166 674 217.871 673.42C217.581 672.841 217.166 672.384 216.626 672.048C216.092 671.713 215.462 671.545 214.734 671.545C213.933 671.545 213.24 671.744 212.655 672.142C212.075 672.534 211.629 673.045 211.317 673.676C211.004 674.307 210.848 674.983 210.848 675.705V676.864C210.848 677.852 211.018 678.69 211.359 679.378C211.706 680.06 212.186 680.58 212.8 680.938C213.413 681.29 214.126 681.466 214.939 681.466C215.467 681.466 215.945 681.392 216.371 681.244C216.803 681.091 217.175 680.864 217.487 680.562C217.8 680.256 218.041 679.875 218.212 679.42L220.155 679.966C219.95 680.625 219.607 681.205 219.124 681.705C218.641 682.199 218.044 682.585 217.334 682.864C216.624 683.136 215.825 683.273 214.939 683.273ZM227.271 683.307C226.442 683.307 225.689 683.151 225.013 682.838C224.337 682.52 223.8 682.062 223.402 681.466C223.004 680.864 222.805 680.136 222.805 679.284C222.805 678.534 222.953 677.926 223.249 677.46C223.544 676.989 223.939 676.619 224.433 676.352C224.928 676.085 225.473 675.886 226.07 675.756C226.672 675.619 227.277 675.511 227.885 675.432C228.68 675.33 229.325 675.253 229.82 675.202C230.32 675.145 230.683 675.051 230.911 674.92C231.143 674.79 231.26 674.562 231.26 674.239V674.17C231.26 673.33 231.03 672.676 230.57 672.21C230.115 671.744 229.425 671.511 228.499 671.511C227.538 671.511 226.786 671.722 226.24 672.142C225.695 672.562 225.311 673.011 225.089 673.489L223.18 672.807C223.521 672.011 223.976 671.392 224.544 670.949C225.118 670.5 225.743 670.187 226.419 670.011C227.101 669.83 227.771 669.739 228.43 669.739C228.851 669.739 229.334 669.79 229.879 669.892C230.43 669.989 230.962 670.19 231.473 670.497C231.99 670.804 232.419 671.267 232.76 671.886C233.101 672.506 233.271 673.335 233.271 674.375V683H231.26V681.227H231.158C231.021 681.511 230.794 681.815 230.476 682.139C230.158 682.463 229.734 682.739 229.206 682.966C228.678 683.193 228.033 683.307 227.271 683.307ZM227.578 681.5C228.374 681.5 229.044 681.344 229.589 681.031C230.141 680.719 230.555 680.315 230.834 679.821C231.118 679.327 231.26 678.807 231.26 678.261V676.42C231.175 676.523 230.987 676.616 230.697 676.702C230.413 676.781 230.084 676.852 229.709 676.915C229.339 676.972 228.979 677.023 228.626 677.068C228.28 677.108 227.999 677.142 227.783 677.17C227.26 677.239 226.771 677.349 226.317 677.503C225.868 677.651 225.504 677.875 225.226 678.176C224.953 678.472 224.817 678.875 224.817 679.386C224.817 680.085 225.075 680.614 225.592 680.972C226.115 681.324 226.777 681.5 227.578 681.5ZM236.942 683V669.909H238.886V671.955H239.056C239.329 671.256 239.769 670.713 240.377 670.327C240.985 669.935 241.715 669.739 242.567 669.739C243.431 669.739 244.15 669.935 244.724 670.327C245.303 670.713 245.755 671.256 246.079 671.955H246.215C246.55 671.278 247.053 670.741 247.724 670.344C248.394 669.94 249.198 669.739 250.136 669.739C251.306 669.739 252.263 670.105 253.008 670.838C253.752 671.565 254.124 672.699 254.124 674.239V683H252.113V674.239C252.113 673.273 251.849 672.582 251.32 672.168C250.792 671.753 250.17 671.545 249.454 671.545C248.533 671.545 247.82 671.824 247.315 672.381C246.809 672.932 246.556 673.631 246.556 674.477V683H244.511V674.034C244.511 673.29 244.269 672.69 243.786 672.236C243.303 671.776 242.681 671.545 241.92 671.545C241.397 671.545 240.908 671.685 240.454 671.963C240.005 672.241 239.641 672.628 239.363 673.122C239.09 673.611 238.954 674.176 238.954 674.818V683H236.942ZM269.87 683.273C268.643 683.273 267.586 682.983 266.7 682.403C265.813 681.824 265.131 681.026 264.654 680.009C264.177 678.991 263.938 677.83 263.938 676.523C263.938 675.193 264.183 674.02 264.671 673.003C265.165 671.98 265.853 671.182 266.734 670.608C267.62 670.028 268.654 669.739 269.836 669.739C270.756 669.739 271.586 669.909 272.325 670.25C273.063 670.591 273.668 671.068 274.14 671.682C274.612 672.295 274.904 673.011 275.018 673.83H273.006C272.853 673.233 272.512 672.705 271.984 672.244C271.461 671.778 270.756 671.545 269.87 671.545C269.086 671.545 268.398 671.75 267.808 672.159C267.222 672.562 266.765 673.134 266.435 673.872C266.112 674.605 265.95 675.466 265.95 676.455C265.95 677.466 266.109 678.347 266.427 679.097C266.751 679.847 267.205 680.429 267.79 680.844C268.381 681.259 269.075 681.466 269.87 681.466C270.393 681.466 270.867 681.375 271.293 681.193C271.719 681.011 272.08 680.75 272.376 680.409C272.671 680.068 272.881 679.659 273.006 679.182H275.018C274.904 679.955 274.623 680.651 274.174 681.27C273.731 681.884 273.143 682.372 272.41 682.736C271.683 683.094 270.836 683.273 269.87 683.273ZM286.208 677.648V669.909H288.219V683H286.208V680.784H286.072C285.765 681.449 285.288 682.014 284.64 682.48C283.992 682.94 283.174 683.17 282.185 683.17C281.367 683.17 280.64 682.991 280.004 682.634C279.367 682.27 278.867 681.724 278.504 680.997C278.14 680.264 277.958 679.341 277.958 678.227V669.909H279.969V678.091C279.969 679.045 280.237 679.807 280.771 680.375C281.31 680.943 281.998 681.227 282.833 681.227C283.333 681.227 283.842 681.099 284.359 680.844C284.881 680.588 285.319 680.196 285.671 679.668C286.029 679.139 286.208 678.466 286.208 677.648ZM291.903 683V669.909H293.847V671.886H293.983C294.222 671.239 294.653 670.713 295.278 670.31C295.903 669.906 296.608 669.705 297.392 669.705C297.54 669.705 297.724 669.707 297.946 669.713C298.168 669.719 298.335 669.727 298.449 669.739V671.784C298.381 671.767 298.224 671.741 297.98 671.707C297.741 671.668 297.489 671.648 297.222 671.648C296.585 671.648 296.017 671.781 295.517 672.048C295.023 672.31 294.631 672.673 294.341 673.139C294.057 673.599 293.915 674.125 293.915 674.716V683H291.903ZM300.833 683V669.909H302.776V671.886H302.913C303.151 671.239 303.583 670.713 304.208 670.31C304.833 669.906 305.538 669.705 306.322 669.705C306.469 669.705 306.654 669.707 306.876 669.713C307.097 669.719 307.265 669.727 307.379 669.739V671.784C307.31 671.767 307.154 671.741 306.91 671.707C306.671 671.668 306.418 671.648 306.151 671.648C305.515 671.648 304.947 671.781 304.447 672.048C303.952 672.31 303.56 672.673 303.271 673.139C302.987 673.599 302.844 674.125 302.844 674.716V683H300.833ZM314.853 683.273C313.592 683.273 312.504 682.994 311.589 682.438C310.68 681.875 309.978 681.091 309.484 680.085C308.995 679.074 308.751 677.898 308.751 676.557C308.751 675.216 308.995 674.034 309.484 673.011C309.978 671.983 310.665 671.182 311.546 670.608C312.433 670.028 313.467 669.739 314.648 669.739C315.33 669.739 316.004 669.852 316.668 670.08C317.333 670.307 317.938 670.676 318.484 671.188C319.029 671.693 319.464 672.364 319.788 673.199C320.112 674.034 320.273 675.062 320.273 676.284V677.136H310.183V675.398H318.228C318.228 674.659 318.08 674 317.785 673.42C317.495 672.841 317.08 672.384 316.54 672.048C316.006 671.713 315.376 671.545 314.648 671.545C313.847 671.545 313.154 671.744 312.569 672.142C311.989 672.534 311.543 673.045 311.231 673.676C310.918 674.307 310.762 674.983 310.762 675.705V676.864C310.762 677.852 310.933 678.69 311.273 679.378C311.62 680.06 312.1 680.58 312.714 680.938C313.327 681.29 314.04 681.466 314.853 681.466C315.381 681.466 315.859 681.392 316.285 681.244C316.717 681.091 317.089 680.864 317.401 680.562C317.714 680.256 317.955 679.875 318.126 679.42L320.069 679.966C319.864 680.625 319.521 681.205 319.038 681.705C318.555 682.199 317.958 682.585 317.248 682.864C316.538 683.136 315.739 683.273 314.853 683.273ZM325.344 675.125V683H323.333V669.909H325.276V671.955H325.447C325.754 671.29 326.219 670.756 326.844 670.352C327.469 669.943 328.276 669.739 329.265 669.739C330.151 669.739 330.927 669.92 331.592 670.284C332.256 670.642 332.773 671.188 333.143 671.92C333.512 672.648 333.697 673.568 333.697 674.682V683H331.685V674.818C331.685 673.79 331.418 672.989 330.884 672.415C330.35 671.835 329.617 671.545 328.685 671.545C328.043 671.545 327.469 671.685 326.964 671.963C326.464 672.241 326.069 672.648 325.779 673.182C325.489 673.716 325.344 674.364 325.344 675.125ZM343.065 669.909V671.614H336.281V669.909H343.065ZM338.259 666.773H340.27V679.25C340.27 679.818 340.352 680.244 340.517 680.528C340.688 680.807 340.903 680.994 341.165 681.091C341.432 681.182 341.713 681.227 342.009 681.227C342.23 681.227 342.412 681.216 342.554 681.193C342.696 681.165 342.81 681.142 342.895 681.125L343.304 682.932C343.168 682.983 342.977 683.034 342.733 683.085C342.489 683.142 342.179 683.17 341.804 683.17C341.236 683.17 340.679 683.048 340.134 682.804C339.594 682.56 339.145 682.188 338.787 681.688C338.435 681.188 338.259 680.557 338.259 679.795V666.773ZM354.307 683.136C353.886 683.136 353.526 682.986 353.224 682.685C352.923 682.384 352.773 682.023 352.773 681.602C352.773 681.182 352.923 680.821 353.224 680.52C353.526 680.219 353.886 680.068 354.307 680.068C354.727 680.068 355.088 680.219 355.389 680.52C355.69 680.821 355.841 681.182 355.841 681.602C355.841 681.881 355.77 682.136 355.628 682.369C355.491 682.602 355.307 682.79 355.074 682.932C354.847 683.068 354.591 683.136 354.307 683.136ZM354.307 673.42C353.886 673.42 353.526 673.27 353.224 672.969C352.923 672.668 352.773 672.307 352.773 671.886C352.773 671.466 352.923 671.105 353.224 670.804C353.526 670.503 353.886 670.352 354.307 670.352C354.727 670.352 355.088 670.503 355.389 670.804C355.69 671.105 355.841 671.466 355.841 671.886C355.841 672.165 355.77 672.42 355.628 672.653C355.491 672.886 355.307 673.074 355.074 673.216C354.847 673.352 354.591 673.42 354.307 673.42ZM199.398 712.239C198.227 712.239 197.193 712.031 196.295 711.616C195.403 711.196 194.707 710.619 194.207 709.886C193.707 709.148 193.46 708.307 193.466 707.364C193.46 706.625 193.605 705.943 193.901 705.318C194.196 704.687 194.599 704.162 195.111 703.741C195.628 703.315 196.205 703.045 196.841 702.932V702.83C196.006 702.614 195.341 702.145 194.847 701.423C194.352 700.696 194.108 699.869 194.114 698.943C194.108 698.057 194.332 697.264 194.787 696.565C195.241 695.866 195.866 695.315 196.662 694.912C197.463 694.509 198.375 694.307 199.398 694.307C200.409 694.307 201.313 694.509 202.108 694.912C202.903 695.315 203.528 695.866 203.983 696.565C204.443 697.264 204.676 698.057 204.682 698.943C204.676 699.869 204.423 700.696 203.923 701.423C203.429 702.145 202.773 702.614 201.955 702.83V702.932C202.585 703.045 203.153 703.315 203.659 703.741C204.165 704.162 204.568 704.687 204.869 705.318C205.17 705.943 205.324 706.625 205.33 707.364C205.324 708.307 205.068 709.148 204.562 709.886C204.062 710.619 203.366 711.196 202.474 711.616C201.588 712.031 200.563 712.239 199.398 712.239ZM199.398 710.364C200.188 710.364 200.869 710.236 201.443 709.98C202.017 709.724 202.46 709.364 202.773 708.898C203.085 708.432 203.244 707.886 203.25 707.261C203.244 706.602 203.074 706.02 202.739 705.514C202.403 705.009 201.946 704.611 201.366 704.321C200.793 704.031 200.136 703.886 199.398 703.886C198.653 703.886 197.989 704.031 197.403 704.321C196.824 704.611 196.366 705.009 196.031 705.514C195.702 706.02 195.54 706.602 195.545 707.261C195.54 707.886 195.69 708.432 195.997 708.898C196.31 709.364 196.756 709.724 197.335 709.98C197.915 710.236 198.602 710.364 199.398 710.364ZM199.398 702.08C200.023 702.08 200.577 701.955 201.06 701.705C201.548 701.455 201.932 701.105 202.21 700.656C202.489 700.207 202.631 699.682 202.636 699.08C202.631 698.489 202.491 697.974 202.219 697.537C201.946 697.094 201.568 696.753 201.085 696.514C200.602 696.27 200.04 696.148 199.398 696.148C198.744 696.148 198.173 696.27 197.685 696.514C197.196 696.753 196.818 697.094 196.551 697.537C196.284 697.974 196.153 698.489 196.159 699.08C196.153 699.682 196.287 700.207 196.56 700.656C196.838 701.105 197.222 701.455 197.71 701.705C198.199 701.955 198.761 702.08 199.398 702.08ZM214.05 712.239C213.05 712.239 212.15 712.04 211.349 711.642C210.548 711.244 209.906 710.699 209.423 710.006C208.94 709.312 208.675 708.523 208.63 707.636H210.675C210.755 708.426 211.113 709.08 211.749 709.597C212.391 710.108 213.158 710.364 214.05 710.364C214.766 710.364 215.403 710.196 215.96 709.861C216.522 709.526 216.962 709.065 217.281 708.48C217.604 707.889 217.766 707.222 217.766 706.477C217.766 705.716 217.599 705.037 217.263 704.44C216.934 703.838 216.479 703.364 215.9 703.017C215.32 702.67 214.658 702.494 213.914 702.489C213.38 702.483 212.832 702.565 212.269 702.736C211.707 702.901 211.244 703.114 210.88 703.375L208.903 703.136L209.96 694.545H219.028V696.42H211.732L211.119 701.568H211.221C211.579 701.284 212.028 701.048 212.567 700.861C213.107 700.673 213.67 700.58 214.255 700.58C215.323 700.58 216.275 700.835 217.11 701.347C217.951 701.852 218.61 702.545 219.087 703.426C219.57 704.307 219.812 705.312 219.812 706.443C219.812 707.557 219.562 708.551 219.062 709.426C218.567 710.295 217.886 710.983 217.016 711.489C216.147 711.989 215.158 712.239 214.05 712.239ZM229.982 716.909V698.909H231.993V706.648C231.993 707.358 232.141 707.983 232.436 708.523C232.737 709.057 233.158 709.474 233.697 709.776C234.243 710.077 234.879 710.227 235.607 710.227C236.334 710.227 236.967 710.077 237.507 709.776C238.053 709.469 238.473 709.048 238.768 708.514C239.07 707.974 239.22 707.352 239.22 706.648V698.909H241.232V712H239.22V710.057H239.118C238.766 710.744 238.274 711.27 237.643 711.634C237.013 711.991 236.334 712.17 235.607 712.17C234.879 712.17 234.2 711.991 233.57 711.634C232.945 711.27 232.453 710.744 232.095 710.057H231.993V716.909H229.982ZM245.9 712H243.684L250.093 694.545H252.275L258.684 712H256.468L251.252 697.307H251.116L245.9 712ZM246.718 705.182H255.65V707.057H246.718V705.182Z" fill="black"/>
<path d="M193.159 1466.42V1464.55H206.25V1466.42H200.761V1482H198.648V1466.42H193.159ZM211.31 1482.31C210.481 1482.31 209.728 1482.15 209.052 1481.84C208.376 1481.52 207.839 1481.06 207.441 1480.47C207.043 1479.86 206.844 1479.14 206.844 1478.28C206.844 1477.53 206.992 1476.93 207.288 1476.46C207.583 1475.99 207.978 1475.62 208.472 1475.35C208.967 1475.09 209.512 1474.89 210.109 1474.76C210.711 1474.62 211.316 1474.51 211.924 1474.43C212.719 1474.33 213.364 1474.25 213.859 1474.2C214.359 1474.14 214.722 1474.05 214.95 1473.92C215.183 1473.79 215.299 1473.56 215.299 1473.24V1473.17C215.299 1472.33 215.069 1471.68 214.609 1471.21C214.154 1470.74 213.464 1470.51 212.538 1470.51C211.577 1470.51 210.825 1470.72 210.279 1471.14C209.734 1471.56 209.35 1472.01 209.129 1472.49L207.219 1471.81C207.56 1471.01 208.015 1470.39 208.583 1469.95C209.157 1469.5 209.782 1469.19 210.458 1469.01C211.14 1468.83 211.81 1468.74 212.469 1468.74C212.89 1468.74 213.373 1468.79 213.918 1468.89C214.469 1468.99 215.001 1469.19 215.512 1469.5C216.029 1469.8 216.458 1470.27 216.799 1470.89C217.14 1471.51 217.31 1472.34 217.31 1473.38V1482H215.299V1480.23H215.197C215.06 1480.51 214.833 1480.82 214.515 1481.14C214.197 1481.46 213.773 1481.74 213.245 1481.97C212.717 1482.19 212.072 1482.31 211.31 1482.31ZM211.617 1480.5C212.413 1480.5 213.083 1480.34 213.629 1480.03C214.18 1479.72 214.594 1479.32 214.873 1478.82C215.157 1478.33 215.299 1477.81 215.299 1477.26V1475.42C215.214 1475.52 215.026 1475.62 214.737 1475.7C214.452 1475.78 214.123 1475.85 213.748 1475.91C213.379 1475.97 213.018 1476.02 212.665 1476.07C212.319 1476.11 212.038 1476.14 211.822 1476.17C211.299 1476.24 210.81 1476.35 210.356 1476.5C209.907 1476.65 209.543 1476.87 209.265 1477.18C208.992 1477.47 208.856 1477.87 208.856 1478.39C208.856 1479.09 209.114 1479.61 209.631 1479.97C210.154 1480.32 210.816 1480.5 211.617 1480.5ZM220.982 1482V1468.91H222.925V1470.89H223.061C223.3 1470.24 223.732 1469.71 224.357 1469.31C224.982 1468.91 225.686 1468.7 226.47 1468.7C226.618 1468.7 226.803 1468.71 227.024 1468.71C227.246 1468.72 227.413 1468.73 227.527 1468.74V1470.78C227.459 1470.77 227.303 1470.74 227.058 1470.71C226.82 1470.67 226.567 1470.65 226.3 1470.65C225.663 1470.65 225.095 1470.78 224.595 1471.05C224.101 1471.31 223.709 1471.67 223.419 1472.14C223.135 1472.6 222.993 1473.12 222.993 1473.72V1482H220.982ZM234.797 1487.18C233.825 1487.18 232.99 1487.06 232.291 1486.81C231.592 1486.56 231.01 1486.24 230.544 1485.84C230.084 1485.44 229.717 1485.01 229.445 1484.56L231.047 1483.43C231.229 1483.67 231.459 1483.94 231.737 1484.25C232.016 1484.56 232.396 1484.83 232.879 1485.06C233.368 1485.29 234.007 1485.41 234.797 1485.41C235.854 1485.41 236.726 1485.15 237.413 1484.64C238.101 1484.13 238.445 1483.33 238.445 1482.24V1479.58H238.274C238.126 1479.82 237.916 1480.11 237.643 1480.47C237.376 1480.81 236.99 1481.12 236.484 1481.39C235.984 1481.66 235.308 1481.8 234.456 1481.8C233.399 1481.8 232.45 1481.55 231.609 1481.05C230.774 1480.55 230.112 1479.82 229.624 1478.86C229.141 1477.91 228.899 1476.75 228.899 1475.39C228.899 1474.05 229.135 1472.88 229.607 1471.88C230.078 1470.88 230.734 1470.11 231.575 1469.57C232.416 1469.01 233.388 1468.74 234.49 1468.74C235.342 1468.74 236.018 1468.88 236.518 1469.16C237.024 1469.44 237.411 1469.76 237.678 1470.12C237.95 1470.47 238.161 1470.76 238.308 1470.99H238.513V1468.91H240.456V1482.38C240.456 1483.5 240.2 1484.41 239.689 1485.12C239.183 1485.83 238.501 1486.35 237.643 1486.68C236.791 1487.01 235.842 1487.18 234.797 1487.18ZM234.729 1479.99C235.536 1479.99 236.217 1479.8 236.774 1479.43C237.331 1479.07 237.754 1478.53 238.044 1477.84C238.334 1477.15 238.479 1476.32 238.479 1475.35C238.479 1474.41 238.337 1473.58 238.053 1472.86C237.768 1472.13 237.348 1471.57 236.791 1471.16C236.234 1470.75 235.547 1470.55 234.729 1470.55C233.876 1470.55 233.166 1470.76 232.598 1471.19C232.036 1471.62 231.612 1472.2 231.328 1472.93C231.05 1473.66 230.911 1474.47 230.911 1475.35C230.911 1476.26 231.053 1477.07 231.337 1477.76C231.626 1478.46 232.053 1479 232.615 1479.4C233.183 1479.79 233.888 1479.99 234.729 1479.99ZM249.626 1482.27C248.365 1482.27 247.277 1481.99 246.362 1481.44C245.453 1480.88 244.751 1480.09 244.257 1479.09C243.768 1478.07 243.524 1476.9 243.524 1475.56C243.524 1474.22 243.768 1473.03 244.257 1472.01C244.751 1470.98 245.439 1470.18 246.32 1469.61C247.206 1469.03 248.24 1468.74 249.422 1468.74C250.104 1468.74 250.777 1468.85 251.442 1469.08C252.107 1469.31 252.712 1469.68 253.257 1470.19C253.803 1470.69 254.237 1471.36 254.561 1472.2C254.885 1473.03 255.047 1474.06 255.047 1475.28V1476.14H244.956V1474.4H253.001C253.001 1473.66 252.854 1473 252.558 1472.42C252.268 1471.84 251.854 1471.38 251.314 1471.05C250.78 1470.71 250.149 1470.55 249.422 1470.55C248.621 1470.55 247.928 1470.74 247.342 1471.14C246.763 1471.53 246.317 1472.05 246.004 1472.68C245.692 1473.31 245.536 1473.98 245.536 1474.7V1475.86C245.536 1476.85 245.706 1477.69 246.047 1478.38C246.393 1479.06 246.874 1479.58 247.487 1479.94C248.101 1480.29 248.814 1480.47 249.626 1480.47C250.155 1480.47 250.632 1480.39 251.058 1480.24C251.49 1480.09 251.862 1479.86 252.175 1479.56C252.487 1479.26 252.729 1478.87 252.899 1478.42L254.842 1478.97C254.638 1479.62 254.294 1480.2 253.811 1480.7C253.328 1481.2 252.732 1481.59 252.021 1481.86C251.311 1482.14 250.513 1482.27 249.626 1482.27ZM263.8 1468.91V1470.61H257.016V1468.91H263.8ZM258.993 1465.77H261.004V1478.25C261.004 1478.82 261.087 1479.24 261.251 1479.53C261.422 1479.81 261.638 1479.99 261.899 1480.09C262.166 1480.18 262.447 1480.23 262.743 1480.23C262.964 1480.23 263.146 1480.22 263.288 1480.19C263.43 1480.16 263.544 1480.14 263.629 1480.12L264.038 1481.93C263.902 1481.98 263.712 1482.03 263.467 1482.09C263.223 1482.14 262.913 1482.17 262.538 1482.17C261.97 1482.17 261.413 1482.05 260.868 1481.8C260.328 1481.56 259.879 1481.19 259.521 1480.69C259.169 1480.19 258.993 1479.56 258.993 1478.8V1465.77ZM275.041 1482.14C274.621 1482.14 274.26 1481.99 273.959 1481.68C273.658 1481.38 273.507 1481.02 273.507 1480.6C273.507 1480.18 273.658 1479.82 273.959 1479.52C274.26 1479.22 274.621 1479.07 275.041 1479.07C275.462 1479.07 275.822 1479.22 276.124 1479.52C276.425 1479.82 276.575 1480.18 276.575 1480.6C276.575 1480.88 276.504 1481.14 276.362 1481.37C276.226 1481.6 276.041 1481.79 275.808 1481.93C275.581 1482.07 275.325 1482.14 275.041 1482.14ZM275.041 1472.42C274.621 1472.42 274.26 1472.27 273.959 1471.97C273.658 1471.67 273.507 1471.31 273.507 1470.89C273.507 1470.47 273.658 1470.11 273.959 1469.8C274.26 1469.5 274.621 1469.35 275.041 1469.35C275.462 1469.35 275.822 1469.5 276.124 1469.8C276.425 1470.11 276.575 1470.47 276.575 1470.89C276.575 1471.16 276.504 1471.42 276.362 1471.65C276.226 1471.89 276.041 1472.07 275.808 1472.22C275.581 1472.35 275.325 1472.42 275.041 1472.42ZM194.114 1511V1493.55H196.227V1501.32H205.534V1493.55H207.648V1511H205.534V1503.19H196.227V1511H194.114ZM211.572 1511V1509.47L217.334 1503.16C218.01 1502.42 218.567 1501.78 219.004 1501.23C219.442 1500.68 219.766 1500.16 219.976 1499.68C220.192 1499.19 220.3 1498.68 220.3 1498.15C220.3 1497.53 220.152 1497 219.857 1496.55C219.567 1496.11 219.169 1495.76 218.663 1495.51C218.158 1495.27 217.589 1495.15 216.959 1495.15C216.288 1495.15 215.703 1495.29 215.203 1495.57C214.709 1495.84 214.325 1496.22 214.053 1496.72C213.786 1497.21 213.652 1497.79 213.652 1498.45H211.641C211.641 1497.43 211.876 1496.53 212.348 1495.76C212.82 1494.99 213.462 1494.39 214.274 1493.95C215.092 1493.52 216.01 1493.31 217.027 1493.31C218.05 1493.31 218.956 1493.52 219.746 1493.95C220.536 1494.39 221.155 1494.97 221.604 1495.7C222.053 1496.43 222.277 1497.25 222.277 1498.15C222.277 1498.79 222.161 1499.42 221.928 1500.03C221.7 1500.64 221.303 1501.32 220.734 1502.07C220.172 1502.81 219.391 1503.72 218.391 1504.8L214.47 1508.99V1509.12H222.584V1511H211.572ZM241.138 1502.27C241.138 1504.11 240.805 1505.7 240.141 1507.05C239.476 1508.39 238.564 1509.42 237.405 1510.15C236.246 1510.88 234.922 1511.24 233.433 1511.24C231.945 1511.24 230.621 1510.88 229.462 1510.15C228.303 1509.42 227.391 1508.39 226.726 1507.05C226.061 1505.7 225.729 1504.11 225.729 1502.27C225.729 1500.43 226.061 1498.84 226.726 1497.5C227.391 1496.16 228.303 1495.12 229.462 1494.4C230.621 1493.67 231.945 1493.31 233.433 1493.31C234.922 1493.31 236.246 1493.67 237.405 1494.4C238.564 1495.12 239.476 1496.16 240.141 1497.5C240.805 1498.84 241.138 1500.43 241.138 1502.27ZM239.092 1502.27C239.092 1500.76 238.839 1499.49 238.334 1498.45C237.834 1497.41 237.155 1496.62 236.297 1496.09C235.445 1495.55 234.49 1495.28 233.433 1495.28C232.376 1495.28 231.419 1495.55 230.561 1496.09C229.709 1496.62 229.03 1497.41 228.524 1498.45C228.024 1499.49 227.774 1500.76 227.774 1502.27C227.774 1503.78 228.024 1505.06 228.524 1506.1C229.03 1507.14 229.709 1507.93 230.561 1508.46C231.419 1508.99 232.376 1509.26 233.433 1509.26C234.49 1509.26 235.445 1508.99 236.297 1508.46C237.155 1507.93 237.834 1507.14 238.334 1506.1C238.839 1505.06 239.092 1503.78 239.092 1502.27ZM250.521 1493.55V1511H248.408V1495.76H248.305L244.044 1498.59V1496.44L248.408 1493.55H250.521ZM261.132 1511.24C259.962 1511.24 258.928 1511.03 258.03 1510.62C257.138 1510.2 256.442 1509.62 255.942 1508.89C255.442 1508.15 255.195 1507.31 255.2 1506.36C255.195 1505.62 255.339 1504.94 255.635 1504.32C255.93 1503.69 256.334 1503.16 256.845 1502.74C257.362 1502.32 257.939 1502.05 258.575 1501.93V1501.83C257.74 1501.61 257.075 1501.14 256.581 1500.42C256.087 1499.7 255.842 1498.87 255.848 1497.94C255.842 1497.06 256.067 1496.26 256.521 1495.57C256.976 1494.87 257.601 1494.32 258.396 1493.91C259.197 1493.51 260.109 1493.31 261.132 1493.31C262.143 1493.31 263.047 1493.51 263.842 1493.91C264.638 1494.32 265.263 1494.87 265.717 1495.57C266.178 1496.26 266.411 1497.06 266.416 1497.94C266.411 1498.87 266.158 1499.7 265.658 1500.42C265.163 1501.14 264.507 1501.61 263.689 1501.83V1501.93C264.32 1502.05 264.888 1502.32 265.393 1502.74C265.899 1503.16 266.303 1503.69 266.604 1504.32C266.905 1504.94 267.058 1505.62 267.064 1506.36C267.058 1507.31 266.803 1508.15 266.297 1508.89C265.797 1509.62 265.101 1510.2 264.209 1510.62C263.322 1511.03 262.297 1511.24 261.132 1511.24ZM261.132 1509.36C261.922 1509.36 262.604 1509.24 263.178 1508.98C263.751 1508.72 264.195 1508.36 264.507 1507.9C264.82 1507.43 264.979 1506.89 264.984 1506.26C264.979 1505.6 264.808 1505.02 264.473 1504.51C264.138 1504.01 263.68 1503.61 263.101 1503.32C262.527 1503.03 261.871 1502.89 261.132 1502.89C260.388 1502.89 259.723 1503.03 259.138 1503.32C258.558 1503.61 258.101 1504.01 257.766 1504.51C257.436 1505.02 257.274 1505.6 257.28 1506.26C257.274 1506.89 257.425 1507.43 257.732 1507.9C258.044 1508.36 258.49 1508.72 259.07 1508.98C259.649 1509.24 260.337 1509.36 261.132 1509.36ZM261.132 1501.08C261.757 1501.08 262.311 1500.95 262.794 1500.7C263.283 1500.45 263.666 1500.11 263.945 1499.66C264.223 1499.21 264.365 1498.68 264.371 1498.08C264.365 1497.49 264.226 1496.97 263.953 1496.54C263.68 1496.09 263.303 1495.75 262.82 1495.51C262.337 1495.27 261.774 1495.15 261.132 1495.15C260.479 1495.15 259.908 1495.27 259.419 1495.51C258.93 1495.75 258.553 1496.09 258.286 1496.54C258.018 1496.97 257.888 1497.49 257.893 1498.08C257.888 1498.68 258.021 1499.21 258.294 1499.66C258.572 1500.11 258.956 1500.45 259.445 1500.7C259.933 1500.95 260.496 1501.08 261.132 1501.08ZM277.83 1502.27C277.83 1500.12 278.109 1498.15 278.665 1496.35C279.228 1494.54 280.029 1492.88 281.069 1491.36H282.842C282.433 1491.93 282.049 1492.62 281.691 1493.44C281.339 1494.26 281.029 1495.16 280.762 1496.14C280.495 1497.12 280.285 1498.13 280.131 1499.18C279.984 1500.22 279.91 1501.26 279.91 1502.27C279.91 1503.62 280.04 1505 280.302 1506.39C280.563 1507.78 280.915 1509.07 281.359 1510.27C281.802 1511.46 282.296 1512.43 282.842 1513.18H281.069C280.029 1511.66 279.228 1510.01 278.665 1508.2C278.109 1506.4 277.83 1504.42 277.83 1502.27ZM285.776 1511V1509.47L291.537 1503.16C292.213 1502.42 292.77 1501.78 293.207 1501.23C293.645 1500.68 293.969 1500.16 294.179 1499.68C294.395 1499.19 294.503 1498.68 294.503 1498.15C294.503 1497.53 294.355 1497 294.06 1496.55C293.77 1496.11 293.372 1495.76 292.866 1495.51C292.361 1495.27 291.793 1495.15 291.162 1495.15C290.491 1495.15 289.906 1495.29 289.406 1495.57C288.912 1495.84 288.528 1496.22 288.256 1496.72C287.989 1497.21 287.855 1497.79 287.855 1498.45H285.844C285.844 1497.43 286.08 1496.53 286.551 1495.76C287.023 1494.99 287.665 1494.39 288.477 1493.95C289.295 1493.52 290.213 1493.31 291.23 1493.31C292.253 1493.31 293.159 1493.52 293.949 1493.95C294.739 1494.39 295.358 1494.97 295.807 1495.7C296.256 1496.43 296.48 1497.25 296.48 1498.15C296.48 1498.79 296.364 1499.42 296.131 1500.03C295.903 1500.64 295.506 1501.32 294.938 1502.07C294.375 1502.81 293.594 1503.72 292.594 1504.8L288.673 1508.99V1509.12H296.787V1511H285.776ZM307.091 1511V1497.91H309.034V1499.95H309.205C309.477 1499.26 309.918 1498.71 310.526 1498.33C311.134 1497.93 311.864 1497.74 312.716 1497.74C313.58 1497.74 314.298 1497.93 314.872 1498.33C315.452 1498.71 315.903 1499.26 316.227 1499.95H316.364C316.699 1499.28 317.202 1498.74 317.872 1498.34C318.543 1497.94 319.347 1497.74 320.284 1497.74C321.455 1497.74 322.412 1498.11 323.156 1498.84C323.901 1499.57 324.273 1500.7 324.273 1502.24V1511H322.261V1502.24C322.261 1501.27 321.997 1500.58 321.469 1500.17C320.94 1499.75 320.318 1499.55 319.602 1499.55C318.682 1499.55 317.969 1499.82 317.463 1500.38C316.957 1500.93 316.705 1501.63 316.705 1502.48V1511H314.659V1502.03C314.659 1501.29 314.418 1500.69 313.935 1500.24C313.452 1499.78 312.83 1499.55 312.068 1499.55C311.545 1499.55 311.057 1499.68 310.602 1499.96C310.153 1500.24 309.79 1500.63 309.511 1501.12C309.239 1501.61 309.102 1502.18 309.102 1502.82V1511H307.091ZM328.223 1511V1493.55H330.337V1509.12H338.45V1511H328.223ZM345.746 1502.27C345.746 1504.42 345.464 1506.4 344.902 1508.2C344.345 1510.01 343.547 1511.66 342.507 1513.18H340.734C341.143 1512.62 341.524 1511.93 341.876 1511.1C342.234 1510.28 342.547 1509.39 342.814 1508.41C343.081 1507.43 343.288 1506.41 343.436 1505.37C343.589 1504.32 343.666 1503.28 343.666 1502.27C343.666 1500.92 343.536 1499.55 343.274 1498.16C343.013 1496.76 342.661 1495.47 342.217 1494.28C341.774 1493.09 341.28 1492.11 340.734 1491.36H342.507C343.547 1492.88 344.345 1494.54 344.902 1496.35C345.464 1498.15 345.746 1500.12 345.746 1502.27Z" fill="black"/>
<path d="M64 64L64 809" stroke="#5E031F" stroke-width="10" stroke-linecap="round"/>
<path d="M64 863L64 1608" stroke="#5E031F" stroke-width="10" stroke-linecap="round"/>
<path d="M63.5 922C95.8524 922 122 895.541 122 863C122 830.459 95.8524 804 63.5 804C31.1476 804 5 830.459 5 863C5 895.541 31.1476 922 63.5 922Z" fill="#5E031F" stroke="white" stroke-width="10"/>
<path d="M63.5 123C95.8524 123 122 96.5408 122 64C122 31.4592 95.8524 5 63.5 5C31.1476 5 5 31.4592 5 64C5 96.5408 31.1476 123 63.5 123Z" fill="#5E031F" stroke="white" stroke-width="10"/>
<path d="M63.5 1193C95.8524 1193 122 1166.54 122 1134C122 1101.46 95.8524 1075 63.5 1075C31.1476 1075 5 1101.46 5 1134C5 1166.54 31.1476 1193 63.5 1193Z" fill="#5E031F" stroke="white" stroke-width="10"/>
<path d="M63.5 394C95.8524 394 122 367.541 122 335C122 302.459 95.8524 276 63.5 276C31.1476 276 5 302.459 5 335C5 367.541 31.1476 394 63.5 394Z" fill="#5E031F" stroke="white" stroke-width="10"/>
<path d="M63.5 1464C95.8524 1464 122 1437.54 122 1405C122 1372.46 95.8524 1346 63.5 1346C31.1476 1346 5 1372.46 5 1405C5 1437.54 31.1476 1464 63.5 1464Z" fill="#5E031F" stroke="white" stroke-width="10"/>
<path d="M63.5 665C95.8524 665 122 638.541 122 606C122 573.459 95.8524 547 63.5 547C31.1476 547 5 573.459 5 606C5 638.541 31.1476 665 63.5 665Z" fill="#5E031F" stroke="white" stroke-width="10"/>
<path d="M51.2451 874.667H76.7549L73.7256 853H54.2744L51.2451 874.667ZM64 848.667C64.6023 848.667 65.1072 848.459 65.5146 848.044C65.9221 847.628 66.1258 847.114 66.1258 846.5C66.1258 845.886 65.9221 845.372 65.5146 844.956C65.1072 844.541 64.6023 844.333 64 844.333C63.3977 844.333 62.8928 844.541 62.4854 844.956C62.0779 845.372 61.8742 845.886 61.8742 846.5C61.8742 847.114 62.0779 847.628 62.4854 848.044C62.8928 848.459 63.3977 848.667 64 848.667ZM70.0054 848.667H73.7256C74.7885 848.667 75.7097 849.028 76.4892 849.75C77.2686 850.472 77.7469 851.357 77.9241 852.404L80.9534 874.071C81.1305 875.371 80.8028 876.517 79.9702 877.51C79.1376 878.503 78.0658 879 76.7549 879H51.2451C49.9342 879 48.8624 878.503 48.0298 877.51C47.1972 876.517 46.8695 875.371 47.0466 874.071L50.0759 852.404C50.2531 851.357 50.7314 850.472 51.5108 849.75C52.2903 849.028 53.2115 848.667 54.2744 848.667H57.9946C57.8883 848.306 57.7997 847.953 57.7288 847.61C57.658 847.267 57.6226 846.897 57.6226 846.5C57.6226 844.694 58.2426 843.16 59.4826 841.896C60.7227 840.632 62.2285 840 64 840C65.7715 840 67.2773 840.632 68.5174 841.896C69.7574 843.16 70.3774 844.694 70.3774 846.5C70.3774 846.897 70.342 847.267 70.2712 847.61C70.2003 847.953 70.1117 848.306 70.0054 848.667Z" fill="white"/>
<path d="M48.2222 1147L36 1134L48.2222 1121L52.5764 1125.55L47.6875 1130.75H79.3125L74.5 1125.55L78.7778 1121L91 1134L78.7778 1147L74.5 1142.45L79.3125 1137.25H47.6875L52.5 1142.45L48.2222 1147Z" fill="#E8EAED"/>
<path d="M63.5 1430C59.8342 1430 56.3892 1429.3 53.165 1427.91C49.9408 1426.52 47.1362 1424.63 44.7512 1422.25C42.3662 1419.86 40.4781 1417.06 39.0869 1413.83C37.6956 1410.61 37 1407.17 37 1403.5C37 1399.83 37.6956 1396.39 39.0869 1393.16C40.4781 1389.94 42.3662 1387.14 44.7512 1384.75C47.1362 1382.37 49.9408 1380.48 53.165 1379.09C56.3892 1377.7 59.8342 1377 63.5 1377C67.1658 1377 70.6108 1377.7 73.835 1379.09C77.0592 1380.48 79.8637 1382.37 82.2487 1384.75C84.6337 1387.14 86.5219 1389.94 87.9131 1393.16C89.3044 1396.39 90 1399.83 90 1403.5C90 1407.17 89.3044 1410.61 87.9131 1413.83C86.5219 1417.06 84.6337 1419.86 82.2487 1422.25C79.8637 1424.63 77.0592 1426.52 73.835 1427.91C70.6108 1429.3 67.1658 1430 63.5 1430ZM63.5 1424.7C69.4183 1424.7 74.4312 1422.65 78.5387 1418.54C82.6462 1414.43 84.7 1409.42 84.7 1403.5C84.7 1397.58 82.6462 1392.57 78.5387 1388.46C74.4312 1384.35 69.4183 1382.3 63.5 1382.3C57.5817 1382.3 52.5687 1384.35 48.4612 1388.46C44.3537 1392.57 42.3 1397.58 42.3 1403.5C42.3 1409.42 44.3537 1414.43 48.4612 1418.54C52.5687 1422.65 57.5817 1424.7 63.5 1424.7ZM63.5 1419.4C59.0833 1419.4 55.3292 1417.85 52.2375 1414.76C49.1458 1411.67 47.6 1407.92 47.6 1403.5C47.6 1399.08 49.1458 1395.33 52.2375 1392.24C55.3292 1389.15 59.0833 1387.6 63.5 1387.6C67.9167 1387.6 71.6708 1389.15 74.7625 1392.24C77.8542 1395.33 79.4 1399.08 79.4 1403.5C79.4 1407.92 77.8542 1411.67 74.7625 1414.76C71.6708 1417.85 67.9167 1419.4 63.5 1419.4ZM63.5 1414.1C66.415 1414.1 68.9104 1413.06 70.9862 1410.99C73.0621 1408.91 74.1 1406.41 74.1 1403.5C74.1 1400.58 73.0621 1398.09 70.9862 1396.01C68.9104 1393.94 66.415 1392.9 63.5 1392.9C60.585 1392.9 58.0896 1393.94 56.0137 1396.01C53.9379 1398.09 52.9 1400.58 52.9 1403.5C52.9 1406.41 53.9379 1408.91 56.0137 1410.99C58.0896 1413.06 60.585 1414.1 63.5 1414.1ZM63.5 1408.8C62.0425 1408.8 60.7948 1408.28 59.7569 1407.24C58.719 1406.21 58.2 1404.96 58.2 1403.5C58.2 1402.04 58.719 1400.79 59.7569 1399.76C60.7948 1398.72 62.0425 1398.2 63.5 1398.2C64.9575 1398.2 66.2052 1398.72 67.2431 1399.76C68.281 1400.79 68.8 1402.04 68.8 1403.5C68.8 1404.96 68.281 1406.21 67.2431 1407.24C66.2052 1408.28 64.9575 1408.8 63.5 1408.8Z" fill="#E8EAED"/>
<path d="M60.6906 346.97L70.7172 335.5H62.9672L64.3719 325.001L55.4109 337.35H62.1437L60.6906 346.97ZM55.75 354L57.6875 341.05H48L65.4375 317H69.3125L67.375 331.8H79L59.625 354H55.75Z" fill="#E8EAED"/>
<path d="M47 86V81.3684H58.7857V76.7368C55.525 76.7368 52.7455 75.6079 50.4473 73.35C48.1491 71.0921 47 68.3614 47 65.1579C47 62.8035 47.658 60.6614 48.9741 58.7316C50.2902 56.8018 52.0679 55.393 54.3071 54.5053C54.6214 53.193 55.3187 52.1316 56.3991 51.3211C57.4795 50.5105 58.7071 50.1053 60.0821 50.1053L58.7857 46.5158L61.025 45.7053L60.2 43.6211L64.6786 42L65.3857 44.2L67.625 43.3895L74.1071 60.7579L71.8679 61.5684L72.6929 63.7684L68.2143 65.3895L67.5071 63.1895L65.2679 64L63.8536 60.1789C63.2643 60.7193 62.5866 61.1246 61.8205 61.3947C61.0545 61.6649 60.2786 61.7614 59.4929 61.6842C58.6286 61.607 57.8232 61.3465 57.0768 60.9026C56.3304 60.4588 55.6821 59.9088 55.1321 59.2526C54.0714 59.8702 53.2366 60.7 52.6277 61.7421C52.0188 62.7842 51.7143 63.9228 51.7143 65.1579C51.7143 67.0877 52.4018 68.7281 53.7768 70.0789C55.1518 71.4298 56.8214 72.1053 58.7857 72.1053H77.6429V76.7368H65.8571V81.3684H80V86H47ZM67.3893 59.4842L69.5107 58.6737L65.5036 47.7895L63.2643 48.6L67.3893 59.4842ZM59.9643 58.2105C60.6321 58.2105 61.192 57.9886 61.6438 57.5447C62.0955 57.1009 62.3214 56.5509 62.3214 55.8947C62.3214 55.2386 62.0955 54.6886 61.6438 54.2447C61.192 53.8009 60.6321 53.5789 59.9643 53.5789C59.2964 53.5789 58.7366 53.8009 58.2848 54.2447C57.833 54.6886 57.6071 55.2386 57.6071 55.8947C57.6071 56.5509 57.833 57.1009 58.2848 57.5447C58.7366 57.9886 59.2964 58.2105 59.9643 58.2105Z" fill="#E8EAED"/>
<path d="M62.375 620.556H64.625V616.444L72.5 608.667V598.333H54.5V608.667L62.375 616.444V620.556ZM57.875 625V618.333L50 610.556V598.333C50 597.111 50.4406 596.065 51.3219 595.194C52.2031 594.324 53.2625 593.889 54.5 593.889H56.75L54.5 596.111V585H59V593.889H68V585H72.5V596.111L70.25 593.889H72.5C73.7375 593.889 74.7969 594.324 75.6781 595.194C76.5594 596.065 77 597.111 77 598.333V610.556L69.125 618.333V625H57.875Z" fill="#E8EAED"/>
</svg>
