<svg width="1373" height="950" viewBox="0 0 1373 950" fill="none" xmlns="http://www.w3.org/2000/svg">
<rect width="1373" height="950" fill="white"/>
<path d="M301.114 211V193.545H307.011C308.381 193.545 309.5 193.793 310.369 194.287C311.244 194.776 311.892 195.438 312.312 196.273C312.733 197.108 312.943 198.04 312.943 199.068C312.943 200.097 312.733 201.031 312.312 201.872C311.898 202.713 311.256 203.384 310.386 203.884C309.517 204.378 308.403 204.625 307.045 204.625H302.818V202.75H306.977C307.915 202.75 308.668 202.588 309.236 202.264C309.804 201.94 310.216 201.503 310.472 200.952C310.733 200.395 310.864 199.767 310.864 199.068C310.864 198.369 310.733 197.744 310.472 197.193C310.216 196.642 309.801 196.21 309.227 195.898C308.653 195.58 307.892 195.42 306.943 195.42H303.227V211H301.114ZM319.928 211.307C319.098 211.307 318.345 211.151 317.669 210.838C316.993 210.52 316.456 210.062 316.058 209.466C315.661 208.864 315.462 208.136 315.462 207.284C315.462 206.534 315.609 205.926 315.905 205.46C316.2 204.989 316.595 204.619 317.089 204.352C317.584 204.085 318.129 203.886 318.726 203.756C319.328 203.619 319.933 203.511 320.541 203.432C321.337 203.33 321.982 203.253 322.476 203.202C322.976 203.145 323.339 203.051 323.567 202.92C323.8 202.79 323.916 202.562 323.916 202.239V202.17C323.916 201.33 323.686 200.676 323.226 200.21C322.771 199.744 322.081 199.511 321.155 199.511C320.195 199.511 319.442 199.722 318.896 200.142C318.351 200.562 317.967 201.011 317.746 201.489L315.837 200.807C316.178 200.011 316.632 199.392 317.2 198.949C317.774 198.5 318.399 198.187 319.075 198.011C319.757 197.83 320.428 197.739 321.087 197.739C321.507 197.739 321.99 197.79 322.536 197.892C323.087 197.989 323.618 198.19 324.129 198.497C324.646 198.804 325.075 199.267 325.416 199.886C325.757 200.506 325.928 201.335 325.928 202.375V211H323.916V209.227H323.814C323.678 209.511 323.45 209.815 323.132 210.139C322.814 210.463 322.391 210.739 321.862 210.966C321.334 211.193 320.689 211.307 319.928 211.307ZM320.234 209.5C321.03 209.5 321.7 209.344 322.246 209.031C322.797 208.719 323.212 208.315 323.49 207.821C323.774 207.327 323.916 206.807 323.916 206.261V204.42C323.831 204.523 323.643 204.616 323.354 204.702C323.07 204.781 322.74 204.852 322.365 204.915C321.996 204.972 321.635 205.023 321.283 205.068C320.936 205.108 320.655 205.142 320.439 205.17C319.916 205.239 319.428 205.349 318.973 205.503C318.524 205.651 318.161 205.875 317.882 206.176C317.609 206.472 317.473 206.875 317.473 207.386C317.473 208.085 317.732 208.614 318.249 208.972C318.771 209.324 319.433 209.5 320.234 209.5ZM329.599 211V197.909H331.542V199.886H331.678C331.917 199.239 332.349 198.713 332.974 198.31C333.599 197.906 334.303 197.705 335.087 197.705C335.235 197.705 335.42 197.707 335.641 197.713C335.863 197.719 336.031 197.727 336.144 197.739V199.784C336.076 199.767 335.92 199.741 335.675 199.707C335.437 199.668 335.184 199.648 334.917 199.648C334.281 199.648 333.712 199.781 333.212 200.048C332.718 200.31 332.326 200.673 332.036 201.139C331.752 201.599 331.61 202.125 331.61 202.716V211H329.599ZM345.042 197.909V199.614H338.258V197.909H345.042ZM340.235 194.773H342.246V207.25C342.246 207.818 342.329 208.244 342.494 208.528C342.664 208.807 342.88 208.994 343.141 209.091C343.408 209.182 343.69 209.227 343.985 209.227C344.207 209.227 344.388 209.216 344.531 209.193C344.673 209.165 344.786 209.142 344.871 209.125L345.281 210.932C345.144 210.983 344.954 211.034 344.71 211.085C344.465 211.142 344.156 211.17 343.781 211.17C343.212 211.17 342.656 211.048 342.11 210.804C341.57 210.56 341.121 210.188 340.763 209.688C340.411 209.188 340.235 208.557 340.235 207.795V194.773ZM348.067 211V197.909H350.079V211H348.067ZM349.09 195.727C348.698 195.727 348.36 195.594 348.076 195.327C347.798 195.06 347.658 194.739 347.658 194.364C347.658 193.989 347.798 193.668 348.076 193.401C348.36 193.134 348.698 193 349.09 193C349.482 193 349.817 193.134 350.096 193.401C350.38 193.668 350.522 193.989 350.522 194.364C350.522 194.739 350.38 195.06 350.096 195.327C349.817 195.594 349.482 195.727 349.09 195.727ZM359.081 211.273C357.854 211.273 356.797 210.983 355.911 210.403C355.024 209.824 354.342 209.026 353.865 208.009C353.388 206.991 353.149 205.83 353.149 204.523C353.149 203.193 353.393 202.02 353.882 201.003C354.376 199.98 355.064 199.182 355.945 198.608C356.831 198.028 357.865 197.739 359.047 197.739C359.967 197.739 360.797 197.909 361.536 198.25C362.274 198.591 362.879 199.068 363.351 199.682C363.822 200.295 364.115 201.011 364.229 201.83H362.217C362.064 201.233 361.723 200.705 361.195 200.244C360.672 199.778 359.967 199.545 359.081 199.545C358.297 199.545 357.609 199.75 357.018 200.159C356.433 200.562 355.976 201.134 355.646 201.872C355.322 202.605 355.161 203.466 355.161 204.455C355.161 205.466 355.32 206.347 355.638 207.097C355.962 207.847 356.416 208.429 357.001 208.844C357.592 209.259 358.286 209.466 359.081 209.466C359.604 209.466 360.078 209.375 360.504 209.193C360.93 209.011 361.291 208.75 361.587 208.409C361.882 208.068 362.092 207.659 362.217 207.182H364.229C364.115 207.955 363.834 208.651 363.385 209.27C362.942 209.884 362.354 210.372 361.621 210.736C360.893 211.094 360.047 211.273 359.081 211.273ZM369.18 193.545V211H367.169V193.545H369.18ZM378.353 211.273C377.092 211.273 376.004 210.994 375.089 210.438C374.18 209.875 373.478 209.091 372.984 208.085C372.495 207.074 372.251 205.898 372.251 204.557C372.251 203.216 372.495 202.034 372.984 201.011C373.478 199.983 374.165 199.182 375.046 198.608C375.933 198.028 376.967 197.739 378.148 197.739C378.83 197.739 379.504 197.852 380.168 198.08C380.833 198.307 381.438 198.676 381.984 199.188C382.529 199.693 382.964 200.364 383.288 201.199C383.612 202.034 383.773 203.062 383.773 204.284V205.136H373.683V203.398H381.728C381.728 202.659 381.58 202 381.285 201.42C380.995 200.841 380.58 200.384 380.04 200.048C379.506 199.713 378.876 199.545 378.148 199.545C377.347 199.545 376.654 199.744 376.069 200.142C375.489 200.534 375.043 201.045 374.731 201.676C374.418 202.307 374.262 202.983 374.262 203.705V204.864C374.262 205.852 374.433 206.69 374.773 207.378C375.12 208.06 375.6 208.58 376.214 208.938C376.827 209.29 377.54 209.466 378.353 209.466C378.881 209.466 379.359 209.392 379.785 209.244C380.217 209.091 380.589 208.864 380.901 208.562C381.214 208.256 381.455 207.875 381.626 207.42L383.569 207.966C383.364 208.625 383.021 209.205 382.538 209.705C382.055 210.199 381.458 210.585 380.748 210.864C380.038 211.136 379.239 211.273 378.353 211.273ZM396.106 200.841L394.299 201.352C394.185 201.051 394.018 200.759 393.796 200.474C393.58 200.185 393.285 199.946 392.91 199.759C392.535 199.571 392.055 199.477 391.469 199.477C390.668 199.477 390.001 199.662 389.467 200.031C388.938 200.395 388.674 200.858 388.674 201.42C388.674 201.92 388.856 202.315 389.219 202.605C389.583 202.895 390.151 203.136 390.924 203.33L392.867 203.807C394.038 204.091 394.91 204.526 395.484 205.111C396.058 205.69 396.344 206.437 396.344 207.352C396.344 208.102 396.129 208.773 395.697 209.364C395.271 209.955 394.674 210.42 393.907 210.761C393.14 211.102 392.248 211.273 391.231 211.273C389.896 211.273 388.79 210.983 387.915 210.403C387.04 209.824 386.487 208.977 386.254 207.864L388.163 207.386C388.344 208.091 388.688 208.619 389.194 208.972C389.705 209.324 390.373 209.5 391.197 209.5C392.134 209.5 392.879 209.301 393.43 208.903C393.987 208.5 394.265 208.017 394.265 207.455C394.265 207 394.106 206.619 393.788 206.312C393.469 206 392.981 205.767 392.322 205.614L390.14 205.102C388.941 204.818 388.06 204.378 387.498 203.781C386.941 203.179 386.663 202.426 386.663 201.523C386.663 200.784 386.87 200.131 387.285 199.562C387.705 198.994 388.276 198.548 388.998 198.224C389.725 197.901 390.549 197.739 391.469 197.739C392.765 197.739 393.782 198.023 394.521 198.591C395.265 199.159 395.793 199.909 396.106 200.841ZM304.693 240.307C303.864 240.307 303.111 240.151 302.435 239.838C301.759 239.52 301.222 239.062 300.824 238.466C300.426 237.864 300.227 237.136 300.227 236.284C300.227 235.534 300.375 234.926 300.67 234.46C300.966 233.989 301.361 233.619 301.855 233.352C302.349 233.085 302.895 232.886 303.491 232.756C304.094 232.619 304.699 232.511 305.307 232.432C306.102 232.33 306.747 232.253 307.241 232.202C307.741 232.145 308.105 232.051 308.332 231.92C308.565 231.79 308.682 231.562 308.682 231.239V231.17C308.682 230.33 308.452 229.676 307.991 229.21C307.537 228.744 306.847 228.511 305.92 228.511C304.96 228.511 304.207 228.722 303.662 229.142C303.116 229.562 302.733 230.011 302.511 230.489L300.602 229.807C300.943 229.011 301.398 228.392 301.966 227.949C302.54 227.5 303.165 227.187 303.841 227.011C304.523 226.83 305.193 226.739 305.852 226.739C306.273 226.739 306.756 226.79 307.301 226.892C307.852 226.989 308.384 227.19 308.895 227.497C309.412 227.804 309.841 228.267 310.182 228.886C310.523 229.506 310.693 230.335 310.693 231.375V240H308.682V238.227H308.58C308.443 238.511 308.216 238.815 307.898 239.139C307.58 239.463 307.156 239.739 306.628 239.966C306.099 240.193 305.455 240.307 304.693 240.307ZM305 238.5C305.795 238.5 306.466 238.344 307.011 238.031C307.563 237.719 307.977 237.315 308.256 236.821C308.54 236.327 308.682 235.807 308.682 235.261V233.42C308.597 233.523 308.409 233.616 308.119 233.702C307.835 233.781 307.506 233.852 307.131 233.915C306.761 233.972 306.401 234.023 306.048 234.068C305.702 234.108 305.42 234.142 305.205 234.17C304.682 234.239 304.193 234.349 303.739 234.503C303.29 234.651 302.926 234.875 302.648 235.176C302.375 235.472 302.239 235.875 302.239 236.386C302.239 237.085 302.497 237.614 303.014 237.972C303.537 238.324 304.199 238.5 305 238.5ZM319.683 240.273C318.455 240.273 317.398 239.983 316.512 239.403C315.626 238.824 314.944 238.026 314.467 237.009C313.989 235.991 313.751 234.83 313.751 233.523C313.751 232.193 313.995 231.02 314.484 230.003C314.978 228.98 315.665 228.182 316.546 227.608C317.433 227.028 318.467 226.739 319.648 226.739C320.569 226.739 321.398 226.909 322.137 227.25C322.876 227.591 323.481 228.068 323.952 228.682C324.424 229.295 324.717 230.011 324.83 230.83H322.819C322.665 230.233 322.325 229.705 321.796 229.244C321.273 228.778 320.569 228.545 319.683 228.545C318.898 228.545 318.211 228.75 317.62 229.159C317.035 229.562 316.577 230.134 316.248 230.872C315.924 231.605 315.762 232.466 315.762 233.455C315.762 234.466 315.921 235.347 316.239 236.097C316.563 236.847 317.018 237.429 317.603 237.844C318.194 238.259 318.887 238.466 319.683 238.466C320.205 238.466 320.68 238.375 321.106 238.193C321.532 238.011 321.893 237.75 322.188 237.409C322.484 237.068 322.694 236.659 322.819 236.182H324.83C324.717 236.955 324.435 237.651 323.987 238.27C323.543 238.884 322.955 239.372 322.222 239.736C321.495 240.094 320.648 240.273 319.683 240.273ZM333.089 240.273C331.862 240.273 330.805 239.983 329.918 239.403C329.032 238.824 328.35 238.026 327.873 237.009C327.396 235.991 327.157 234.83 327.157 233.523C327.157 232.193 327.401 231.02 327.89 230.003C328.384 228.98 329.072 228.182 329.952 227.608C330.839 227.028 331.873 226.739 333.055 226.739C333.975 226.739 334.805 226.909 335.543 227.25C336.282 227.591 336.887 228.068 337.359 228.682C337.83 229.295 338.123 230.011 338.237 230.83H336.225C336.072 230.233 335.731 229.705 335.202 229.244C334.68 228.778 333.975 228.545 333.089 228.545C332.305 228.545 331.617 228.75 331.026 229.159C330.441 229.562 329.984 230.134 329.654 230.872C329.33 231.605 329.168 232.466 329.168 233.455C329.168 234.466 329.327 235.347 329.646 236.097C329.969 236.847 330.424 237.429 331.009 237.844C331.6 238.259 332.293 238.466 333.089 238.466C333.612 238.466 334.086 238.375 334.512 238.193C334.938 238.011 335.299 237.75 335.594 237.409C335.89 237.068 336.1 236.659 336.225 236.182H338.237C338.123 236.955 337.842 237.651 337.393 238.27C336.95 238.884 336.362 239.372 335.629 239.736C334.901 240.094 334.055 240.273 333.089 240.273ZM346.665 240.273C345.404 240.273 344.316 239.994 343.401 239.438C342.492 238.875 341.79 238.091 341.296 237.085C340.808 236.074 340.563 234.898 340.563 233.557C340.563 232.216 340.808 231.034 341.296 230.011C341.79 228.983 342.478 228.182 343.359 227.608C344.245 227.028 345.279 226.739 346.461 226.739C347.143 226.739 347.816 226.852 348.481 227.08C349.146 227.307 349.751 227.676 350.296 228.188C350.842 228.693 351.276 229.364 351.6 230.199C351.924 231.034 352.086 232.062 352.086 233.284V234.136H341.995V232.398H350.04C350.04 231.659 349.893 231 349.597 230.42C349.308 229.841 348.893 229.384 348.353 229.048C347.819 228.713 347.188 228.545 346.461 228.545C345.66 228.545 344.967 228.744 344.381 229.142C343.802 229.534 343.356 230.045 343.043 230.676C342.731 231.307 342.575 231.983 342.575 232.705V233.864C342.575 234.852 342.745 235.69 343.086 236.378C343.433 237.06 343.913 237.58 344.526 237.938C345.14 238.29 345.853 238.466 346.665 238.466C347.194 238.466 347.671 238.392 348.097 238.244C348.529 238.091 348.901 237.864 349.214 237.562C349.526 237.256 349.768 236.875 349.938 236.42L351.881 236.966C351.677 237.625 351.333 238.205 350.85 238.705C350.367 239.199 349.771 239.585 349.06 239.864C348.35 240.136 347.552 240.273 346.665 240.273ZM357.157 222.545V240H355.146V222.545H357.157ZM366.33 240.273C365.068 240.273 363.98 239.994 363.065 239.438C362.156 238.875 361.455 238.091 360.96 237.085C360.472 236.074 360.227 234.898 360.227 233.557C360.227 232.216 360.472 231.034 360.96 230.011C361.455 228.983 362.142 228.182 363.023 227.608C363.909 227.028 364.943 226.739 366.125 226.739C366.807 226.739 367.48 226.852 368.145 227.08C368.81 227.307 369.415 227.676 369.96 228.188C370.506 228.693 370.94 229.364 371.264 230.199C371.588 231.034 371.75 232.062 371.75 233.284V234.136H361.659V232.398H369.705C369.705 231.659 369.557 231 369.261 230.42C368.972 229.841 368.557 229.384 368.017 229.048C367.483 228.713 366.852 228.545 366.125 228.545C365.324 228.545 364.631 228.744 364.045 229.142C363.466 229.534 363.02 230.045 362.707 230.676C362.395 231.307 362.239 231.983 362.239 232.705V233.864C362.239 234.852 362.409 235.69 362.75 236.378C363.097 237.06 363.577 237.58 364.19 237.938C364.804 238.29 365.517 238.466 366.33 238.466C366.858 238.466 367.335 238.392 367.761 238.244C368.193 238.091 368.565 237.864 368.878 237.562C369.19 237.256 369.432 236.875 369.602 236.42L371.545 236.966C371.341 237.625 370.997 238.205 370.514 238.705C370.031 239.199 369.435 239.585 368.724 239.864C368.014 240.136 367.216 240.273 366.33 240.273ZM374.81 240V226.909H376.753V228.886H376.889C377.128 228.239 377.56 227.713 378.185 227.31C378.81 226.906 379.514 226.705 380.298 226.705C380.446 226.705 380.631 226.707 380.852 226.713C381.074 226.719 381.241 226.727 381.355 226.739V228.784C381.287 228.767 381.131 228.741 380.886 228.707C380.648 228.668 380.395 228.648 380.128 228.648C379.491 228.648 378.923 228.781 378.423 229.048C377.929 229.31 377.537 229.673 377.247 230.139C376.963 230.599 376.821 231.125 376.821 231.716V240H374.81ZM387.592 240.307C386.762 240.307 386.009 240.151 385.333 239.838C384.657 239.52 384.12 239.062 383.722 238.466C383.325 237.864 383.126 237.136 383.126 236.284C383.126 235.534 383.273 234.926 383.569 234.46C383.864 233.989 384.259 233.619 384.754 233.352C385.248 233.085 385.793 232.886 386.39 232.756C386.992 232.619 387.597 232.511 388.205 232.432C389.001 232.33 389.646 232.253 390.14 232.202C390.64 232.145 391.004 232.051 391.231 231.92C391.464 231.79 391.58 231.562 391.58 231.239V231.17C391.58 230.33 391.35 229.676 390.89 229.21C390.435 228.744 389.745 228.511 388.819 228.511C387.859 228.511 387.106 228.722 386.56 229.142C386.015 229.562 385.631 230.011 385.41 230.489L383.501 229.807C383.842 229.011 384.296 228.392 384.864 227.949C385.438 227.5 386.063 227.187 386.739 227.011C387.421 226.83 388.092 226.739 388.751 226.739C389.171 226.739 389.654 226.79 390.2 226.892C390.751 226.989 391.282 227.19 391.793 227.497C392.31 227.804 392.739 228.267 393.08 228.886C393.421 229.506 393.592 230.335 393.592 231.375V240H391.58V238.227H391.478C391.342 238.511 391.114 238.815 390.796 239.139C390.478 239.463 390.055 239.739 389.526 239.966C388.998 240.193 388.353 240.307 387.592 240.307ZM387.898 238.5C388.694 238.5 389.364 238.344 389.91 238.031C390.461 237.719 390.876 237.315 391.154 236.821C391.438 236.327 391.58 235.807 391.58 235.261V233.42C391.495 233.523 391.308 233.616 391.018 233.702C390.734 233.781 390.404 233.852 390.029 233.915C389.66 233.972 389.299 234.023 388.947 234.068C388.6 234.108 388.319 234.142 388.103 234.17C387.58 234.239 387.092 234.349 386.637 234.503C386.188 234.651 385.825 234.875 385.546 235.176C385.273 235.472 385.137 235.875 385.137 236.386C385.137 237.085 385.396 237.614 385.913 237.972C386.435 238.324 387.097 238.5 387.898 238.5ZM402.956 226.909V228.614H396.172V226.909H402.956ZM398.149 223.773H400.161V236.25C400.161 236.818 400.243 237.244 400.408 237.528C400.578 237.807 400.794 237.994 401.055 238.091C401.322 238.182 401.604 238.227 401.899 238.227C402.121 238.227 402.303 238.216 402.445 238.193C402.587 238.165 402.7 238.142 402.786 238.125L403.195 239.932C403.058 239.983 402.868 240.034 402.624 240.085C402.379 240.142 402.07 240.17 401.695 240.17C401.126 240.17 400.57 240.048 400.024 239.804C399.484 239.56 399.036 239.188 398.678 238.688C398.325 238.188 398.149 237.557 398.149 236.795V223.773ZM411.33 240.273C410.068 240.273 408.98 239.994 408.065 239.438C407.156 238.875 406.455 238.091 405.96 237.085C405.472 236.074 405.227 234.898 405.227 233.557C405.227 232.216 405.472 231.034 405.96 230.011C406.455 228.983 407.142 228.182 408.023 227.608C408.909 227.028 409.943 226.739 411.125 226.739C411.807 226.739 412.48 226.852 413.145 227.08C413.81 227.307 414.415 227.676 414.96 228.188C415.506 228.693 415.94 229.364 416.264 230.199C416.588 231.034 416.75 232.062 416.75 233.284V234.136H406.659V232.398H414.705C414.705 231.659 414.557 231 414.261 230.42C413.972 229.841 413.557 229.384 413.017 229.048C412.483 228.713 411.852 228.545 411.125 228.545C410.324 228.545 409.631 228.744 409.045 229.142C408.466 229.534 408.02 230.045 407.707 230.676C407.395 231.307 407.239 231.983 407.239 232.705V233.864C407.239 234.852 407.409 235.69 407.75 236.378C408.097 237.06 408.577 237.58 409.19 237.938C409.804 238.29 410.517 238.466 411.33 238.466C411.858 238.466 412.335 238.392 412.761 238.244C413.193 238.091 413.565 237.864 413.878 237.562C414.19 237.256 414.432 236.875 414.602 236.42L416.545 236.966C416.341 237.625 415.997 238.205 415.514 238.705C415.031 239.199 414.435 239.585 413.724 239.864C413.014 240.136 412.216 240.273 411.33 240.273ZM424.753 240.273C423.662 240.273 422.699 239.997 421.864 239.446C421.028 238.889 420.375 238.105 419.903 237.094C419.432 236.077 419.196 234.875 419.196 233.489C419.196 232.114 419.432 230.92 419.903 229.909C420.375 228.898 421.031 228.116 421.872 227.565C422.713 227.014 423.685 226.739 424.787 226.739C425.639 226.739 426.313 226.881 426.807 227.165C427.307 227.443 427.688 227.761 427.949 228.119C428.216 228.472 428.423 228.761 428.571 228.989H428.741V222.545H430.753V240H428.81V237.989H428.571C428.423 238.227 428.213 238.528 427.94 238.892C427.668 239.25 427.278 239.571 426.773 239.855C426.267 240.134 425.594 240.273 424.753 240.273ZM425.026 238.466C425.832 238.466 426.514 238.256 427.071 237.835C427.628 237.409 428.051 236.821 428.341 236.071C428.631 235.315 428.776 234.443 428.776 233.455C428.776 232.477 428.634 231.622 428.349 230.889C428.065 230.151 427.645 229.577 427.088 229.168C426.531 228.753 425.844 228.545 425.026 228.545C424.173 228.545 423.463 228.764 422.895 229.202C422.332 229.634 421.909 230.222 421.625 230.966C421.347 231.705 421.207 232.534 421.207 233.455C421.207 234.386 421.349 235.233 421.634 235.994C421.923 236.75 422.349 237.352 422.912 237.801C423.48 238.244 424.185 238.466 425.026 238.466ZM442.932 240.136C442.511 240.136 442.151 239.986 441.849 239.685C441.548 239.384 441.398 239.023 441.398 238.602C441.398 238.182 441.548 237.821 441.849 237.52C442.151 237.219 442.511 237.068 442.932 237.068C443.352 237.068 443.713 237.219 444.014 237.52C444.315 237.821 444.466 238.182 444.466 238.602C444.466 238.881 444.395 239.136 444.253 239.369C444.116 239.602 443.932 239.79 443.699 239.932C443.472 240.068 443.216 240.136 442.932 240.136ZM442.932 230.42C442.511 230.42 442.151 230.27 441.849 229.969C441.548 229.668 441.398 229.307 441.398 228.886C441.398 228.466 441.548 228.105 441.849 227.804C442.151 227.503 442.511 227.352 442.932 227.352C443.352 227.352 443.713 227.503 444.014 227.804C444.315 228.105 444.466 228.466 444.466 228.886C444.466 229.165 444.395 229.42 444.253 229.653C444.116 229.886 443.932 230.074 443.699 230.216C443.472 230.352 443.216 230.42 442.932 230.42ZM301.114 269V251.545H303.227V259.318H312.534V251.545H314.648V269H312.534V261.193H303.227V269H301.114ZM326.107 259.335V261.21H318.47V259.335H326.107Z" fill="black"/>
<path d="M1044.28 211L1039.51 193.545H1041.66L1045.31 207.761H1045.48L1049.19 193.545H1051.58L1055.3 207.761H1055.47L1059.11 193.545H1061.26L1056.49 211H1054.31L1050.45 197.091H1050.32L1046.47 211H1044.28ZM1067.89 211.273C1066.63 211.273 1065.54 210.994 1064.63 210.438C1063.72 209.875 1063.02 209.091 1062.52 208.085C1062.03 207.074 1061.79 205.898 1061.79 204.557C1061.79 203.216 1062.03 202.034 1062.52 201.011C1063.02 199.983 1063.7 199.182 1064.59 198.608C1065.47 198.028 1066.51 197.739 1067.69 197.739C1068.37 197.739 1069.04 197.852 1069.71 198.08C1070.37 198.307 1070.98 198.676 1071.52 199.188C1072.07 199.693 1072.5 200.364 1072.83 201.199C1073.15 202.034 1073.31 203.062 1073.31 204.284V205.136H1063.22V203.398H1071.27C1071.27 202.659 1071.12 202 1070.82 201.42C1070.53 200.841 1070.12 200.384 1069.58 200.048C1069.05 199.713 1068.41 199.545 1067.69 199.545C1066.89 199.545 1066.19 199.744 1065.61 200.142C1065.03 200.534 1064.58 201.045 1064.27 201.676C1063.96 202.307 1063.8 202.983 1063.8 203.705V204.864C1063.8 205.852 1063.97 206.69 1064.31 207.378C1064.66 208.06 1065.14 208.58 1065.75 208.938C1066.37 209.29 1067.08 209.466 1067.89 209.466C1068.42 209.466 1068.9 209.392 1069.32 209.244C1069.76 209.091 1070.13 208.864 1070.44 208.562C1070.75 208.256 1070.99 207.875 1071.16 207.42L1073.11 207.966C1072.9 208.625 1072.56 209.205 1072.08 209.705C1071.59 210.199 1071 210.585 1070.29 210.864C1069.58 211.136 1068.78 211.273 1067.89 211.273ZM1076.37 211V197.909H1078.38V211H1076.37ZM1077.39 195.727C1077 195.727 1076.66 195.594 1076.38 195.327C1076.1 195.06 1075.96 194.739 1075.96 194.364C1075.96 193.989 1076.1 193.668 1076.38 193.401C1076.66 193.134 1077 193 1077.39 193C1077.79 193 1078.12 193.134 1078.4 193.401C1078.68 193.668 1078.83 193.989 1078.83 194.364C1078.83 194.739 1078.68 195.06 1078.4 195.327C1078.12 195.594 1077.79 195.727 1077.39 195.727ZM1087.35 216.182C1086.38 216.182 1085.54 216.057 1084.85 215.807C1084.15 215.562 1083.56 215.239 1083.1 214.835C1082.64 214.438 1082.27 214.011 1082 213.557L1083.6 212.432C1083.78 212.67 1084.01 212.943 1084.29 213.25C1084.57 213.562 1084.95 213.832 1085.43 214.06C1085.92 214.293 1086.56 214.409 1087.35 214.409C1088.41 214.409 1089.28 214.153 1089.97 213.642C1090.66 213.131 1091 212.33 1091 211.239V208.58H1090.83C1090.68 208.818 1090.47 209.114 1090.2 209.466C1089.93 209.812 1089.54 210.122 1089.04 210.395C1088.54 210.662 1087.86 210.795 1087.01 210.795C1085.95 210.795 1085 210.545 1084.16 210.045C1083.33 209.545 1082.67 208.818 1082.18 207.864C1081.7 206.909 1081.45 205.75 1081.45 204.386C1081.45 203.045 1081.69 201.878 1082.16 200.884C1082.63 199.884 1083.29 199.111 1084.13 198.565C1084.97 198.014 1085.94 197.739 1087.04 197.739C1087.9 197.739 1088.57 197.881 1089.07 198.165C1089.58 198.443 1089.97 198.761 1090.23 199.119C1090.5 199.472 1090.72 199.761 1090.86 199.989H1091.07V197.909H1093.01V211.375C1093.01 212.5 1092.75 213.415 1092.24 214.119C1091.74 214.83 1091.06 215.349 1090.2 215.679C1089.35 216.014 1088.4 216.182 1087.35 216.182ZM1087.28 208.989C1088.09 208.989 1088.77 208.804 1089.33 208.435C1089.89 208.065 1090.31 207.534 1090.6 206.841C1090.89 206.148 1091.03 205.318 1091.03 204.352C1091.03 203.409 1090.89 202.577 1090.61 201.855C1090.32 201.134 1089.9 200.568 1089.35 200.159C1088.79 199.75 1088.1 199.545 1087.28 199.545C1086.43 199.545 1085.72 199.761 1085.15 200.193C1084.59 200.625 1084.17 201.205 1083.88 201.932C1083.6 202.659 1083.47 203.466 1083.47 204.352C1083.47 205.261 1083.61 206.065 1083.89 206.764C1084.18 207.457 1084.61 208.003 1085.17 208.401C1085.74 208.793 1086.44 208.989 1087.28 208.989ZM1098.7 203.125V211H1096.69V193.545H1098.7V199.955H1098.87C1099.18 199.278 1099.64 198.741 1100.25 198.344C1100.87 197.94 1101.7 197.739 1102.73 197.739C1103.62 197.739 1104.4 197.918 1105.07 198.276C1105.74 198.628 1106.26 199.17 1106.63 199.903C1107 200.631 1107.19 201.557 1107.19 202.682V211H1105.18V202.818C1105.18 201.778 1104.91 200.974 1104.37 200.406C1103.84 199.832 1103.1 199.545 1102.15 199.545C1101.49 199.545 1100.9 199.685 1100.37 199.963C1099.86 200.241 1099.45 200.648 1099.15 201.182C1098.85 201.716 1098.7 202.364 1098.7 203.125ZM1116.57 197.909V199.614H1109.78V197.909H1116.57ZM1111.76 194.773H1113.77V207.25C1113.77 207.818 1113.85 208.244 1114.02 208.528C1114.19 208.807 1114.4 208.994 1114.66 209.091C1114.93 209.182 1115.21 209.227 1115.51 209.227C1115.73 209.227 1115.91 209.216 1116.05 209.193C1116.2 209.165 1116.31 209.142 1116.39 209.125L1116.8 210.932C1116.67 210.983 1116.48 211.034 1116.23 211.085C1115.99 211.142 1115.68 211.17 1115.3 211.17C1114.74 211.17 1114.18 211.048 1113.63 210.804C1113.09 210.56 1112.64 210.188 1112.29 209.688C1111.93 209.188 1111.76 208.557 1111.76 207.795V194.773ZM1127.81 211.136C1127.39 211.136 1127.03 210.986 1126.72 210.685C1126.42 210.384 1126.27 210.023 1126.27 209.602C1126.27 209.182 1126.42 208.821 1126.72 208.52C1127.03 208.219 1127.39 208.068 1127.81 208.068C1128.23 208.068 1128.59 208.219 1128.89 208.52C1129.19 208.821 1129.34 209.182 1129.34 209.602C1129.34 209.881 1129.27 210.136 1129.13 210.369C1128.99 210.602 1128.81 210.79 1128.57 210.932C1128.35 211.068 1128.09 211.136 1127.81 211.136ZM1127.81 201.42C1127.39 201.42 1127.03 201.27 1126.72 200.969C1126.42 200.668 1126.27 200.307 1126.27 199.886C1126.27 199.466 1126.42 199.105 1126.72 198.804C1127.03 198.503 1127.39 198.352 1127.81 198.352C1128.23 198.352 1128.59 198.503 1128.89 198.804C1129.19 199.105 1129.34 199.466 1129.34 199.886C1129.34 200.165 1129.27 200.42 1129.13 200.653C1128.99 200.886 1128.81 201.074 1128.57 201.216C1128.35 201.352 1128.09 201.42 1127.81 201.42ZM1046.94 222.545V240H1044.83V224.761H1044.73L1040.47 227.591V225.443L1044.83 222.545H1046.94ZM1057.86 240.239C1056.74 240.239 1055.73 240.045 1054.85 239.659C1053.98 239.273 1053.28 238.736 1052.76 238.048C1052.25 237.355 1051.97 236.551 1051.93 235.636H1054.08C1054.12 236.199 1054.32 236.685 1054.66 237.094C1055 237.497 1055.44 237.81 1055.99 238.031C1056.55 238.253 1057.16 238.364 1057.83 238.364C1058.58 238.364 1059.24 238.233 1059.82 237.972C1060.4 237.71 1060.86 237.347 1061.18 236.881C1061.51 236.415 1061.68 235.875 1061.68 235.261C1061.68 234.619 1061.52 234.054 1061.2 233.565C1060.88 233.071 1060.42 232.685 1059.8 232.406C1059.19 232.128 1058.44 231.989 1057.55 231.989H1056.16V230.114H1057.55C1058.25 230.114 1058.86 229.989 1059.38 229.739C1059.91 229.489 1060.32 229.136 1060.61 228.682C1060.91 228.227 1061.07 227.693 1061.07 227.08C1061.07 226.489 1060.93 225.974 1060.67 225.537C1060.41 225.099 1060.04 224.759 1059.57 224.514C1059.09 224.27 1058.54 224.148 1057.89 224.148C1057.29 224.148 1056.72 224.259 1056.19 224.48C1055.66 224.696 1055.23 225.011 1054.89 225.426C1054.56 225.835 1054.38 226.33 1054.35 226.909H1052.3C1052.34 225.994 1052.61 225.193 1053.13 224.506C1053.65 223.812 1054.32 223.273 1055.16 222.886C1056 222.5 1056.92 222.307 1057.93 222.307C1059.01 222.307 1059.93 222.526 1060.71 222.963C1061.48 223.395 1062.07 223.966 1062.49 224.676C1062.9 225.386 1063.11 226.153 1063.11 226.977C1063.11 227.96 1062.85 228.798 1062.34 229.491C1061.82 230.185 1061.13 230.665 1060.25 230.932V231.068C1061.35 231.25 1062.21 231.719 1062.83 232.474C1063.45 233.224 1063.76 234.153 1063.76 235.261C1063.76 236.21 1063.5 237.062 1062.98 237.818C1062.47 238.568 1061.77 239.159 1060.89 239.591C1060 240.023 1058.99 240.239 1057.86 240.239ZM1079.72 226.909V228.614H1072.94V226.909H1079.72ZM1074.91 223.773H1076.93V236.25C1076.93 236.818 1077.01 237.244 1077.17 237.528C1077.34 237.807 1077.56 237.994 1077.82 238.091C1078.09 238.182 1078.37 238.227 1078.66 238.227C1078.89 238.227 1079.07 238.216 1079.21 238.193C1079.35 238.165 1079.47 238.142 1079.55 238.125L1079.96 239.932C1079.82 239.983 1079.63 240.034 1079.39 240.085C1079.14 240.142 1078.84 240.17 1078.46 240.17C1077.89 240.17 1077.34 240.048 1076.79 239.804C1076.25 239.56 1075.8 239.188 1075.44 238.688C1075.09 238.188 1074.91 237.557 1074.91 236.795V223.773Z" fill="black"/>
<path d="M301.114 482V464.545H307.216C308.432 464.545 309.435 464.756 310.224 465.176C311.014 465.591 311.602 466.151 311.989 466.855C312.375 467.554 312.568 468.33 312.568 469.182C312.568 469.932 312.435 470.551 312.168 471.04C311.906 471.528 311.56 471.915 311.128 472.199C310.702 472.483 310.239 472.693 309.739 472.83V473C310.273 473.034 310.81 473.222 311.349 473.562C311.889 473.903 312.341 474.392 312.705 475.028C313.068 475.665 313.25 476.443 313.25 477.364C313.25 478.239 313.051 479.026 312.653 479.724C312.256 480.423 311.628 480.977 310.77 481.386C309.912 481.795 308.795 482 307.42 482H301.114ZM303.227 480.125H307.42C308.801 480.125 309.781 479.858 310.361 479.324C310.946 478.784 311.239 478.131 311.239 477.364C311.239 476.773 311.088 476.227 310.787 475.727C310.486 475.222 310.057 474.818 309.5 474.517C308.943 474.21 308.284 474.057 307.523 474.057H303.227V480.125ZM303.227 472.216H307.148C307.784 472.216 308.358 472.091 308.869 471.841C309.386 471.591 309.795 471.239 310.097 470.784C310.403 470.33 310.557 469.795 310.557 469.182C310.557 468.415 310.29 467.764 309.756 467.23C309.222 466.69 308.375 466.42 307.216 466.42H303.227V472.216ZM321.939 482.273C320.678 482.273 319.589 481.994 318.675 481.438C317.766 480.875 317.064 480.091 316.57 479.085C316.081 478.074 315.837 476.898 315.837 475.557C315.837 474.216 316.081 473.034 316.57 472.011C317.064 470.983 317.751 470.182 318.632 469.608C319.518 469.028 320.553 468.739 321.734 468.739C322.416 468.739 323.089 468.852 323.754 469.08C324.419 469.307 325.024 469.676 325.57 470.188C326.115 470.693 326.55 471.364 326.874 472.199C327.197 473.034 327.359 474.062 327.359 475.284V476.136H317.268V474.398H325.314C325.314 473.659 325.166 473 324.871 472.42C324.581 471.841 324.166 471.384 323.626 471.048C323.092 470.713 322.462 470.545 321.734 470.545C320.933 470.545 320.24 470.744 319.655 471.142C319.075 471.534 318.629 472.045 318.317 472.676C318.004 473.307 317.848 473.983 317.848 474.705V475.864C317.848 476.852 318.018 477.69 318.359 478.378C318.706 479.06 319.186 479.58 319.8 479.938C320.413 480.29 321.126 480.466 321.939 480.466C322.467 480.466 322.945 480.392 323.371 480.244C323.803 480.091 324.175 479.864 324.487 479.562C324.8 479.256 325.041 478.875 325.212 478.42L327.155 478.966C326.95 479.625 326.607 480.205 326.124 480.705C325.641 481.199 325.044 481.585 324.334 481.864C323.624 482.136 322.825 482.273 321.939 482.273ZM334.271 482.307C333.442 482.307 332.689 482.151 332.013 481.838C331.337 481.52 330.8 481.062 330.402 480.466C330.004 479.864 329.805 479.136 329.805 478.284C329.805 477.534 329.953 476.926 330.249 476.46C330.544 475.989 330.939 475.619 331.433 475.352C331.928 475.085 332.473 474.886 333.07 474.756C333.672 474.619 334.277 474.511 334.885 474.432C335.68 474.33 336.325 474.253 336.82 474.202C337.32 474.145 337.683 474.051 337.911 473.92C338.143 473.79 338.26 473.562 338.26 473.239V473.17C338.26 472.33 338.03 471.676 337.57 471.21C337.115 470.744 336.425 470.511 335.499 470.511C334.538 470.511 333.786 470.722 333.24 471.142C332.695 471.562 332.311 472.011 332.089 472.489L330.18 471.807C330.521 471.011 330.976 470.392 331.544 469.949C332.118 469.5 332.743 469.187 333.419 469.011C334.101 468.83 334.771 468.739 335.43 468.739C335.851 468.739 336.334 468.79 336.879 468.892C337.43 468.989 337.962 469.19 338.473 469.497C338.99 469.804 339.419 470.267 339.76 470.886C340.101 471.506 340.271 472.335 340.271 473.375V482H338.26V480.227H338.158C338.021 480.511 337.794 480.815 337.476 481.139C337.158 481.463 336.734 481.739 336.206 481.966C335.678 482.193 335.033 482.307 334.271 482.307ZM334.578 480.5C335.374 480.5 336.044 480.344 336.589 480.031C337.141 479.719 337.555 479.315 337.834 478.821C338.118 478.327 338.26 477.807 338.26 477.261V475.42C338.175 475.523 337.987 475.616 337.697 475.702C337.413 475.781 337.084 475.852 336.709 475.915C336.339 475.972 335.979 476.023 335.626 476.068C335.28 476.108 334.999 476.142 334.783 476.17C334.26 476.239 333.771 476.349 333.317 476.503C332.868 476.651 332.504 476.875 332.226 477.176C331.953 477.472 331.817 477.875 331.817 478.386C331.817 479.085 332.075 479.614 332.592 479.972C333.115 480.324 333.777 480.5 334.578 480.5ZM343.942 482V468.909H345.886V470.955H346.056C346.329 470.256 346.769 469.713 347.377 469.327C347.985 468.935 348.715 468.739 349.567 468.739C350.431 468.739 351.15 468.935 351.724 469.327C352.303 469.713 352.755 470.256 353.079 470.955H353.215C353.55 470.278 354.053 469.741 354.724 469.344C355.394 468.94 356.198 468.739 357.136 468.739C358.306 468.739 359.263 469.105 360.008 469.838C360.752 470.565 361.124 471.699 361.124 473.239V482H359.113V473.239C359.113 472.273 358.849 471.582 358.32 471.168C357.792 470.753 357.17 470.545 356.454 470.545C355.533 470.545 354.82 470.824 354.315 471.381C353.809 471.932 353.556 472.631 353.556 473.477V482H351.511V473.034C351.511 472.29 351.269 471.69 350.786 471.236C350.303 470.776 349.681 470.545 348.92 470.545C348.397 470.545 347.908 470.685 347.454 470.963C347.005 471.241 346.641 471.628 346.363 472.122C346.09 472.611 345.954 473.176 345.954 473.818V482H343.942ZM377.04 482.273C375.779 482.273 374.691 481.994 373.776 481.438C372.867 480.875 372.165 480.091 371.671 479.085C371.183 478.074 370.938 476.898 370.938 475.557C370.938 474.216 371.183 473.034 371.671 472.011C372.165 470.983 372.853 470.182 373.734 469.608C374.62 469.028 375.654 468.739 376.836 468.739C377.518 468.739 378.191 468.852 378.856 469.08C379.521 469.307 380.126 469.676 380.671 470.188C381.217 470.693 381.651 471.364 381.975 472.199C382.299 473.034 382.461 474.062 382.461 475.284V476.136H372.37V474.398H380.415C380.415 473.659 380.268 473 379.972 472.42C379.683 471.841 379.268 471.384 378.728 471.048C378.194 470.713 377.563 470.545 376.836 470.545C376.035 470.545 375.342 470.744 374.756 471.142C374.177 471.534 373.731 472.045 373.418 472.676C373.106 473.307 372.95 473.983 372.95 474.705V475.864C372.95 476.852 373.12 477.69 373.461 478.378C373.808 479.06 374.288 479.58 374.901 479.938C375.515 480.29 376.228 480.466 377.04 480.466C377.569 480.466 378.046 480.392 378.472 480.244C378.904 480.091 379.276 479.864 379.589 479.562C379.901 479.256 380.143 478.875 380.313 478.42L382.256 478.966C382.052 479.625 381.708 480.205 381.225 480.705C380.742 481.199 380.146 481.585 379.435 481.864C378.725 482.136 377.927 482.273 377.04 482.273ZM387.532 474.125V482H385.521V468.909H387.464V470.955H387.634C387.941 470.29 388.407 469.756 389.032 469.352C389.657 468.943 390.464 468.739 391.452 468.739C392.339 468.739 393.114 468.92 393.779 469.284C394.444 469.642 394.961 470.188 395.33 470.92C395.7 471.648 395.884 472.568 395.884 473.682V482H393.873V473.818C393.873 472.79 393.606 471.989 393.072 471.415C392.538 470.835 391.805 470.545 390.873 470.545C390.231 470.545 389.657 470.685 389.151 470.963C388.651 471.241 388.256 471.648 387.967 472.182C387.677 472.716 387.532 473.364 387.532 474.125ZM405.048 482.273C403.787 482.273 402.699 481.994 401.784 481.438C400.875 480.875 400.173 480.091 399.679 479.085C399.19 478.074 398.946 476.898 398.946 475.557C398.946 474.216 399.19 473.034 399.679 472.011C400.173 470.983 400.861 470.182 401.741 469.608C402.628 469.028 403.662 468.739 404.844 468.739C405.526 468.739 406.199 468.852 406.864 469.08C407.528 469.307 408.134 469.676 408.679 470.188C409.224 470.693 409.659 471.364 409.983 472.199C410.307 473.034 410.469 474.062 410.469 475.284V476.136H400.378V474.398H408.423C408.423 473.659 408.276 473 407.98 472.42C407.69 471.841 407.276 471.384 406.736 471.048C406.202 470.713 405.571 470.545 404.844 470.545C404.043 470.545 403.349 470.744 402.764 471.142C402.185 471.534 401.739 472.045 401.426 472.676C401.114 473.307 400.957 473.983 400.957 474.705V475.864C400.957 476.852 401.128 477.69 401.469 478.378C401.815 479.06 402.295 479.58 402.909 479.938C403.523 480.29 404.236 480.466 405.048 480.466C405.577 480.466 406.054 480.392 406.48 480.244C406.912 480.091 407.284 479.864 407.597 479.562C407.909 479.256 408.151 478.875 408.321 478.42L410.264 478.966C410.06 479.625 409.716 480.205 409.233 480.705C408.75 481.199 408.153 481.585 407.443 481.864C406.733 482.136 405.935 482.273 405.048 482.273ZM413.528 482V468.909H415.472V470.886H415.608C415.847 470.239 416.278 469.713 416.903 469.31C417.528 468.906 418.233 468.705 419.017 468.705C419.165 468.705 419.349 468.707 419.571 468.713C419.793 468.719 419.96 468.727 420.074 468.739V470.784C420.006 470.767 419.849 470.741 419.605 470.707C419.366 470.668 419.114 470.648 418.847 470.648C418.21 470.648 417.642 470.781 417.142 471.048C416.648 471.31 416.256 471.673 415.966 472.139C415.682 472.599 415.54 473.125 415.54 473.716V482H413.528ZM427.344 487.182C426.372 487.182 425.537 487.057 424.838 486.807C424.139 486.562 423.557 486.239 423.091 485.835C422.631 485.438 422.264 485.011 421.991 484.557L423.594 483.432C423.776 483.67 424.006 483.943 424.284 484.25C424.563 484.562 424.943 484.832 425.426 485.06C425.915 485.293 426.554 485.409 427.344 485.409C428.401 485.409 429.273 485.153 429.96 484.642C430.648 484.131 430.991 483.33 430.991 482.239V479.58H430.821C430.673 479.818 430.463 480.114 430.19 480.466C429.923 480.812 429.537 481.122 429.031 481.395C428.531 481.662 427.855 481.795 427.003 481.795C425.946 481.795 424.997 481.545 424.156 481.045C423.321 480.545 422.659 479.818 422.17 478.864C421.688 477.909 421.446 476.75 421.446 475.386C421.446 474.045 421.682 472.878 422.153 471.884C422.625 470.884 423.281 470.111 424.122 469.565C424.963 469.014 425.935 468.739 427.037 468.739C427.889 468.739 428.565 468.881 429.065 469.165C429.571 469.443 429.957 469.761 430.224 470.119C430.497 470.472 430.707 470.761 430.855 470.989H431.06V468.909H433.003V482.375C433.003 483.5 432.747 484.415 432.236 485.119C431.73 485.83 431.048 486.349 430.19 486.679C429.338 487.014 428.389 487.182 427.344 487.182ZM427.276 479.989C428.082 479.989 428.764 479.804 429.321 479.435C429.878 479.065 430.301 478.534 430.591 477.841C430.881 477.148 431.026 476.318 431.026 475.352C431.026 474.409 430.884 473.577 430.599 472.855C430.315 472.134 429.895 471.568 429.338 471.159C428.781 470.75 428.094 470.545 427.276 470.545C426.423 470.545 425.713 470.761 425.145 471.193C424.582 471.625 424.159 472.205 423.875 472.932C423.597 473.659 423.457 474.466 423.457 475.352C423.457 476.261 423.599 477.065 423.884 477.764C424.173 478.457 424.599 479.003 425.162 479.401C425.73 479.793 426.435 479.989 427.276 479.989ZM437.98 486.909C437.639 486.909 437.335 486.881 437.068 486.824C436.801 486.773 436.616 486.722 436.514 486.67L437.026 484.898C437.514 485.023 437.946 485.068 438.321 485.034C438.696 485 439.028 484.832 439.318 484.531C439.614 484.236 439.884 483.756 440.128 483.091L440.503 482.068L435.662 468.909H437.844L441.457 479.341H441.594L445.207 468.909H447.389L441.832 483.909C441.582 484.585 441.273 485.145 440.903 485.588C440.534 486.037 440.105 486.369 439.616 486.585C439.134 486.801 438.588 486.909 437.98 486.909ZM458.26 482.136C457.839 482.136 457.479 481.986 457.178 481.685C456.876 481.384 456.726 481.023 456.726 480.602C456.726 480.182 456.876 479.821 457.178 479.52C457.479 479.219 457.839 479.068 458.26 479.068C458.68 479.068 459.041 479.219 459.342 479.52C459.643 479.821 459.794 480.182 459.794 480.602C459.794 480.881 459.723 481.136 459.581 481.369C459.445 481.602 459.26 481.79 459.027 481.932C458.8 482.068 458.544 482.136 458.26 482.136ZM458.26 472.42C457.839 472.42 457.479 472.27 457.178 471.969C456.876 471.668 456.726 471.307 456.726 470.886C456.726 470.466 456.876 470.105 457.178 469.804C457.479 469.503 457.839 469.352 458.26 469.352C458.68 469.352 459.041 469.503 459.342 469.804C459.643 470.105 459.794 470.466 459.794 470.886C459.794 471.165 459.723 471.42 459.581 471.653C459.445 471.886 459.26 472.074 459.027 472.216C458.8 472.352 458.544 472.42 458.26 472.42ZM306.943 493.545V511H304.83V495.761H304.727L300.466 498.591V496.443L304.83 493.545H306.943ZM317.418 511.239C316.418 511.239 315.517 511.04 314.716 510.642C313.915 510.244 313.273 509.699 312.79 509.006C312.307 508.312 312.043 507.523 311.997 506.636H314.043C314.122 507.426 314.48 508.08 315.116 508.597C315.759 509.108 316.526 509.364 317.418 509.364C318.134 509.364 318.77 509.196 319.327 508.861C319.889 508.526 320.33 508.065 320.648 507.48C320.972 506.889 321.134 506.222 321.134 505.477C321.134 504.716 320.966 504.037 320.631 503.44C320.301 502.838 319.847 502.364 319.267 502.017C318.688 501.67 318.026 501.494 317.281 501.489C316.747 501.483 316.199 501.565 315.636 501.736C315.074 501.901 314.611 502.114 314.247 502.375L312.27 502.136L313.327 493.545H322.395V495.42H315.099L314.486 500.568H314.588C314.946 500.284 315.395 500.048 315.935 499.861C316.474 499.673 317.037 499.58 317.622 499.58C318.69 499.58 319.642 499.835 320.477 500.347C321.318 500.852 321.977 501.545 322.455 502.426C322.938 503.307 323.179 504.312 323.179 505.443C323.179 506.557 322.929 507.551 322.429 508.426C321.935 509.295 321.253 509.983 320.384 510.489C319.514 510.989 318.526 511.239 317.418 511.239ZM327.408 511.136C326.988 511.136 326.627 510.986 326.326 510.685C326.025 510.384 325.874 510.023 325.874 509.602C325.874 509.182 326.025 508.821 326.326 508.52C326.627 508.219 326.988 508.068 327.408 508.068C327.829 508.068 328.19 508.219 328.491 508.52C328.792 508.821 328.942 509.182 328.942 509.602C328.942 509.881 328.871 510.136 328.729 510.369C328.593 510.602 328.408 510.79 328.175 510.932C327.948 511.068 327.692 511.136 327.408 511.136ZM332.109 507.42V505.682L339.779 493.545H341.04V496.239H340.188L334.393 505.409V505.545H344.722V507.42H332.109ZM340.325 511V506.892V506.082V493.545H342.336V511H340.325ZM354.973 493.545H357.496L363.428 508.034H363.632L369.564 493.545H372.087V511H370.109V497.739H369.939L364.484 511H362.575L357.121 497.739H356.95V511H354.973V493.545ZM381.54 511.273C380.279 511.273 379.191 510.994 378.276 510.438C377.367 509.875 376.665 509.091 376.171 508.085C375.683 507.074 375.438 505.898 375.438 504.557C375.438 503.216 375.683 502.034 376.171 501.011C376.665 499.983 377.353 499.182 378.234 498.608C379.12 498.028 380.154 497.739 381.336 497.739C382.018 497.739 382.691 497.852 383.356 498.08C384.021 498.307 384.626 498.676 385.171 499.188C385.717 499.693 386.151 500.364 386.475 501.199C386.799 502.034 386.961 503.062 386.961 504.284V505.136H376.87V503.398H384.915C384.915 502.659 384.768 502 384.472 501.42C384.183 500.841 383.768 500.384 383.228 500.048C382.694 499.713 382.063 499.545 381.336 499.545C380.535 499.545 379.842 499.744 379.256 500.142C378.677 500.534 378.231 501.045 377.918 501.676C377.606 502.307 377.45 502.983 377.45 503.705V504.864C377.45 505.852 377.62 506.69 377.961 507.378C378.308 508.06 378.788 508.58 379.401 508.938C380.015 509.29 380.728 509.466 381.54 509.466C382.069 509.466 382.546 509.392 382.972 509.244C383.404 509.091 383.776 508.864 384.089 508.562C384.401 508.256 384.643 507.875 384.813 507.42L386.756 507.966C386.552 508.625 386.208 509.205 385.725 509.705C385.242 510.199 384.646 510.585 383.935 510.864C383.225 511.136 382.427 511.273 381.54 511.273ZM389.79 493.545L394.972 508.239H395.177L400.359 493.545H402.575L396.165 511H393.984L387.575 493.545H389.79Z" fill="black"/>
<path d="M1041.11 464.545H1043.64L1049.57 479.034H1049.77L1055.7 464.545H1058.23V482H1056.25V468.739H1056.08L1050.62 482H1048.72L1043.26 468.739H1043.09V482H1041.11V464.545ZM1066.04 482.307C1065.22 482.307 1064.46 482.151 1063.79 481.838C1063.11 481.52 1062.57 481.062 1062.18 480.466C1061.78 479.864 1061.58 479.136 1061.58 478.284C1061.58 477.534 1061.73 476.926 1062.02 476.46C1062.32 475.989 1062.71 475.619 1063.21 475.352C1063.7 475.085 1064.25 474.886 1064.84 474.756C1065.45 474.619 1066.05 474.511 1066.66 474.432C1067.45 474.33 1068.1 474.253 1068.59 474.202C1069.09 474.145 1069.46 474.051 1069.68 473.92C1069.92 473.79 1070.03 473.562 1070.03 473.239V473.17C1070.03 472.33 1069.8 471.676 1069.34 471.21C1068.89 470.744 1068.2 470.511 1067.27 470.511C1066.31 470.511 1065.56 470.722 1065.01 471.142C1064.47 471.562 1064.08 472.011 1063.86 472.489L1061.95 471.807C1062.29 471.011 1062.75 470.392 1063.32 469.949C1063.89 469.5 1064.52 469.187 1065.19 469.011C1065.87 468.83 1066.54 468.739 1067.2 468.739C1067.62 468.739 1068.11 468.79 1068.65 468.892C1069.2 468.989 1069.74 469.19 1070.25 469.497C1070.76 469.804 1071.19 470.267 1071.53 470.886C1071.87 471.506 1072.04 472.335 1072.04 473.375V482H1070.03V480.227H1069.93C1069.79 480.511 1069.57 480.815 1069.25 481.139C1068.93 481.463 1068.51 481.739 1067.98 481.966C1067.45 482.193 1066.81 482.307 1066.04 482.307ZM1066.35 480.5C1067.15 480.5 1067.82 480.344 1068.36 480.031C1068.91 479.719 1069.33 479.315 1069.61 478.821C1069.89 478.327 1070.03 477.807 1070.03 477.261V475.42C1069.95 475.523 1069.76 475.616 1069.47 475.702C1069.19 475.781 1068.86 475.852 1068.48 475.915C1068.11 475.972 1067.75 476.023 1067.4 476.068C1067.05 476.108 1066.77 476.142 1066.56 476.17C1066.03 476.239 1065.54 476.349 1065.09 476.503C1064.64 476.651 1064.28 476.875 1064 477.176C1063.73 477.472 1063.59 477.875 1063.59 478.386C1063.59 479.085 1063.85 479.614 1064.37 479.972C1064.89 480.324 1065.55 480.5 1066.35 480.5ZM1081 487.182C1080.03 487.182 1079.19 487.057 1078.49 486.807C1077.8 486.562 1077.21 486.239 1076.75 485.835C1076.29 485.438 1075.92 485.011 1075.65 484.557L1077.25 483.432C1077.43 483.67 1077.66 483.943 1077.94 484.25C1078.22 484.562 1078.6 484.832 1079.08 485.06C1079.57 485.293 1080.21 485.409 1081 485.409C1082.06 485.409 1082.93 485.153 1083.62 484.642C1084.3 484.131 1084.65 483.33 1084.65 482.239V479.58H1084.48C1084.33 479.818 1084.12 480.114 1083.85 480.466C1083.58 480.812 1083.19 481.122 1082.69 481.395C1082.19 481.662 1081.51 481.795 1080.66 481.795C1079.6 481.795 1078.65 481.545 1077.81 481.045C1076.98 480.545 1076.32 479.818 1075.83 478.864C1075.34 477.909 1075.1 476.75 1075.1 475.386C1075.1 474.045 1075.34 472.878 1075.81 471.884C1076.28 470.884 1076.94 470.111 1077.78 469.565C1078.62 469.014 1079.59 468.739 1080.69 468.739C1081.55 468.739 1082.22 468.881 1082.72 469.165C1083.23 469.443 1083.61 469.761 1083.88 470.119C1084.15 470.472 1084.36 470.761 1084.51 470.989H1084.72V468.909H1086.66V482.375C1086.66 483.5 1086.4 484.415 1085.89 485.119C1085.39 485.83 1084.7 486.349 1083.85 486.679C1082.99 487.014 1082.05 487.182 1081 487.182ZM1080.93 479.989C1081.74 479.989 1082.42 479.804 1082.98 479.435C1083.53 479.065 1083.96 478.534 1084.25 477.841C1084.54 477.148 1084.68 476.318 1084.68 475.352C1084.68 474.409 1084.54 473.577 1084.26 472.855C1083.97 472.134 1083.55 471.568 1082.99 471.159C1082.44 470.75 1081.75 470.545 1080.93 470.545C1080.08 470.545 1079.37 470.761 1078.8 471.193C1078.24 471.625 1077.82 472.205 1077.53 472.932C1077.25 473.659 1077.11 474.466 1077.11 475.352C1077.11 476.261 1077.26 477.065 1077.54 477.764C1077.83 478.457 1078.26 479.003 1078.82 479.401C1079.39 479.793 1080.09 479.989 1080.93 479.989ZM1092.35 474.125V482H1090.34V468.909H1092.28V470.955H1092.45C1092.76 470.29 1093.23 469.756 1093.85 469.352C1094.48 468.943 1095.28 468.739 1096.27 468.739C1097.16 468.739 1097.93 468.92 1098.6 469.284C1099.26 469.642 1099.78 470.188 1100.15 470.92C1100.52 471.648 1100.7 472.568 1100.7 473.682V482H1098.69V473.818C1098.69 472.79 1098.43 471.989 1097.89 471.415C1097.36 470.835 1096.63 470.545 1095.69 470.545C1095.05 470.545 1094.48 470.685 1093.97 470.963C1093.47 471.241 1093.08 471.648 1092.79 472.182C1092.5 472.716 1092.35 473.364 1092.35 474.125ZM1109.87 482.273C1108.61 482.273 1107.52 481.994 1106.6 481.438C1105.7 480.875 1104.99 480.091 1104.5 479.085C1104.01 478.074 1103.77 476.898 1103.77 475.557C1103.77 474.216 1104.01 473.034 1104.5 472.011C1104.99 470.983 1105.68 470.182 1106.56 469.608C1107.45 469.028 1108.48 468.739 1109.66 468.739C1110.35 468.739 1111.02 468.852 1111.68 469.08C1112.35 469.307 1112.95 469.676 1113.5 470.188C1114.04 470.693 1114.48 471.364 1114.8 472.199C1115.13 473.034 1115.29 474.062 1115.29 475.284V476.136H1105.2V474.398H1113.24C1113.24 473.659 1113.1 473 1112.8 472.42C1112.51 471.841 1112.1 471.384 1111.56 471.048C1111.02 470.713 1110.39 470.545 1109.66 470.545C1108.86 470.545 1108.17 470.744 1107.58 471.142C1107 471.534 1106.56 472.045 1106.25 472.676C1105.93 473.307 1105.78 473.983 1105.78 474.705V475.864C1105.78 476.852 1105.95 477.69 1106.29 478.378C1106.64 479.06 1107.12 479.58 1107.73 479.938C1108.34 480.29 1109.06 480.466 1109.87 480.466C1110.4 480.466 1110.87 480.392 1111.3 480.244C1111.73 480.091 1112.1 479.864 1112.42 479.562C1112.73 479.256 1112.97 478.875 1113.14 478.42L1115.08 478.966C1114.88 479.625 1114.54 480.205 1114.05 480.705C1113.57 481.199 1112.97 481.585 1112.26 481.864C1111.55 482.136 1110.75 482.273 1109.87 482.273ZM1124.04 468.909V470.614H1117.26V468.909H1124.04ZM1119.24 465.773H1121.25V478.25C1121.25 478.818 1121.33 479.244 1121.49 479.528C1121.66 479.807 1121.88 479.994 1122.14 480.091C1122.41 480.182 1122.69 480.227 1122.99 480.227C1123.21 480.227 1123.39 480.216 1123.53 480.193C1123.67 480.165 1123.79 480.142 1123.87 480.125L1124.28 481.932C1124.14 481.983 1123.95 482.034 1123.71 482.085C1123.47 482.142 1123.16 482.17 1122.78 482.17C1122.21 482.17 1121.66 482.048 1121.11 481.804C1120.57 481.56 1120.12 481.188 1119.76 480.688C1119.41 480.188 1119.24 479.557 1119.24 478.795V465.773ZM1143.09 471.841L1141.28 472.352C1141.17 472.051 1141 471.759 1140.78 471.474C1140.56 471.185 1140.27 470.946 1139.89 470.759C1139.52 470.571 1139.04 470.477 1138.45 470.477C1137.65 470.477 1136.99 470.662 1136.45 471.031C1135.92 471.395 1135.66 471.858 1135.66 472.42C1135.66 472.92 1135.84 473.315 1136.2 473.605C1136.57 473.895 1137.14 474.136 1137.91 474.33L1139.85 474.807C1141.02 475.091 1141.89 475.526 1142.47 476.111C1143.04 476.69 1143.33 477.437 1143.33 478.352C1143.33 479.102 1143.11 479.773 1142.68 480.364C1142.25 480.955 1141.66 481.42 1140.89 481.761C1140.12 482.102 1139.23 482.273 1138.22 482.273C1136.88 482.273 1135.77 481.983 1134.9 481.403C1134.02 480.824 1133.47 479.977 1133.24 478.864L1135.15 478.386C1135.33 479.091 1135.67 479.619 1136.18 479.972C1136.69 480.324 1137.36 480.5 1138.18 480.5C1139.12 480.5 1139.86 480.301 1140.41 479.903C1140.97 479.5 1141.25 479.017 1141.25 478.455C1141.25 478 1141.09 477.619 1140.77 477.312C1140.45 477 1139.97 476.767 1139.31 476.614L1137.12 476.102C1135.93 475.818 1135.04 475.378 1134.48 474.781C1133.93 474.179 1133.65 473.426 1133.65 472.523C1133.65 471.784 1133.85 471.131 1134.27 470.562C1134.69 469.994 1135.26 469.548 1135.98 469.224C1136.71 468.901 1137.53 468.739 1138.45 468.739C1139.75 468.739 1140.77 469.023 1141.5 469.591C1142.25 470.159 1142.78 470.909 1143.09 471.841ZM1146.36 482V468.909H1148.37V482H1146.36ZM1147.38 466.727C1146.99 466.727 1146.65 466.594 1146.37 466.327C1146.09 466.06 1145.95 465.739 1145.95 465.364C1145.95 464.989 1146.09 464.668 1146.37 464.401C1146.65 464.134 1146.99 464 1147.38 464C1147.77 464 1148.11 464.134 1148.38 464.401C1148.67 464.668 1148.81 464.989 1148.81 465.364C1148.81 465.739 1148.67 466.06 1148.38 466.327C1148.11 466.594 1147.77 466.727 1147.38 466.727ZM1151.68 482V480.466L1159.11 470.92V470.784H1151.92V468.909H1161.7V470.511L1154.47 479.989V480.125H1161.94V482H1151.68ZM1170.15 482.273C1168.89 482.273 1167.8 481.994 1166.89 481.438C1165.98 480.875 1165.27 480.091 1164.78 479.085C1164.29 478.074 1164.05 476.898 1164.05 475.557C1164.05 474.216 1164.29 473.034 1164.78 472.011C1165.27 470.983 1165.96 470.182 1166.84 469.608C1167.73 469.028 1168.76 468.739 1169.95 468.739C1170.63 468.739 1171.3 468.852 1171.97 469.08C1172.63 469.307 1173.24 469.676 1173.78 470.188C1174.33 470.693 1174.76 471.364 1175.08 472.199C1175.41 473.034 1175.57 474.062 1175.57 475.284V476.136H1165.48V474.398H1173.52C1173.52 473.659 1173.38 473 1173.08 472.42C1172.79 471.841 1172.38 471.384 1171.84 471.048C1171.3 470.713 1170.67 470.545 1169.95 470.545C1169.14 470.545 1168.45 470.744 1167.87 471.142C1167.29 471.534 1166.84 472.045 1166.53 472.676C1166.22 473.307 1166.06 473.983 1166.06 474.705V475.864C1166.06 476.852 1166.23 477.69 1166.57 478.378C1166.92 479.06 1167.4 479.58 1168.01 479.938C1168.62 480.29 1169.34 480.466 1170.15 480.466C1170.68 480.466 1171.16 480.392 1171.58 480.244C1172.01 480.091 1172.39 479.864 1172.7 479.562C1173.01 479.256 1173.25 478.875 1173.42 478.42L1175.37 478.966C1175.16 479.625 1174.82 480.205 1174.33 480.705C1173.85 481.199 1173.25 481.585 1172.54 481.864C1171.83 482.136 1171.04 482.273 1170.15 482.273ZM1186.85 482.136C1186.43 482.136 1186.06 481.986 1185.76 481.685C1185.46 481.384 1185.31 481.023 1185.31 480.602C1185.31 480.182 1185.46 479.821 1185.76 479.52C1186.06 479.219 1186.43 479.068 1186.85 479.068C1187.27 479.068 1187.63 479.219 1187.93 479.52C1188.23 479.821 1188.38 480.182 1188.38 480.602C1188.38 480.881 1188.31 481.136 1188.17 481.369C1188.03 481.602 1187.85 481.79 1187.61 481.932C1187.39 482.068 1187.13 482.136 1186.85 482.136ZM1186.85 472.42C1186.43 472.42 1186.06 472.27 1185.76 471.969C1185.46 471.668 1185.31 471.307 1185.31 470.886C1185.31 470.466 1185.46 470.105 1185.76 469.804C1186.06 469.503 1186.43 469.352 1186.85 469.352C1187.27 469.352 1187.63 469.503 1187.93 469.804C1188.23 470.105 1188.38 470.466 1188.38 470.886C1188.38 471.165 1188.31 471.42 1188.17 471.653C1188.03 471.886 1187.85 472.074 1187.61 472.216C1187.39 472.352 1187.13 472.42 1186.85 472.42ZM1042.68 511.716L1041.39 510.83L1053.52 492.864L1054.82 493.75L1042.68 511.716ZM1055.84 502.273C1055.84 504.114 1055.51 505.705 1054.84 507.045C1054.18 508.386 1053.27 509.42 1052.11 510.148C1050.95 510.875 1049.63 511.239 1048.14 511.239C1046.65 511.239 1045.32 510.875 1044.16 510.148C1043.01 509.42 1042.09 508.386 1041.43 507.045C1040.76 505.705 1040.43 504.114 1040.43 502.273C1040.43 500.432 1040.76 498.841 1041.43 497.5C1042.09 496.159 1043.01 495.125 1044.16 494.398C1045.32 493.67 1046.65 493.307 1048.14 493.307C1049.63 493.307 1050.95 493.67 1052.11 494.398C1053.27 495.125 1054.18 496.159 1054.84 497.5C1055.51 498.841 1055.84 500.432 1055.84 502.273ZM1053.8 502.273C1053.8 500.761 1053.54 499.486 1053.04 498.446C1052.54 497.406 1051.86 496.619 1051 496.085C1050.15 495.551 1049.19 495.284 1048.14 495.284C1047.08 495.284 1046.12 495.551 1045.26 496.085C1044.41 496.619 1043.73 497.406 1043.23 498.446C1042.73 499.486 1042.48 500.761 1042.48 502.273C1042.48 503.784 1042.73 505.06 1043.23 506.099C1043.73 507.139 1044.41 507.926 1045.26 508.46C1046.12 508.994 1047.08 509.261 1048.14 509.261C1049.19 509.261 1050.15 508.994 1051 508.46C1051.86 507.926 1052.54 507.139 1053.04 506.099C1053.54 505.06 1053.8 503.784 1053.8 502.273ZM1065.22 493.545V511H1063.11V495.761H1063.01L1058.75 498.591V496.443L1063.11 493.545H1065.22ZM1070.79 511L1078.6 495.557V495.42H1069.6V493.545H1080.78V495.523L1073.01 511H1070.79ZM1089.38 511.239C1088.66 511.227 1087.94 511.091 1087.23 510.83C1086.51 510.568 1085.86 510.128 1085.27 509.509C1084.68 508.884 1084.2 508.04 1083.84 506.977C1083.49 505.909 1083.31 504.568 1083.31 502.955C1083.31 501.409 1083.45 500.04 1083.74 498.847C1084.03 497.648 1084.45 496.639 1085 495.821C1085.55 494.997 1086.22 494.372 1087 493.946C1087.78 493.52 1088.67 493.307 1089.65 493.307C1090.63 493.307 1091.5 493.503 1092.26 493.895C1093.02 494.281 1093.65 494.821 1094.13 495.514C1094.61 496.207 1094.93 497.006 1095.07 497.909H1092.99C1092.8 497.125 1092.42 496.474 1091.86 495.957C1091.31 495.44 1090.57 495.182 1089.65 495.182C1088.3 495.182 1087.23 495.77 1086.45 496.946C1085.68 498.122 1085.29 499.773 1085.28 501.898H1085.42C1085.74 501.415 1086.12 501.003 1086.55 500.662C1087 500.315 1087.49 500.048 1088.02 499.861C1088.55 499.673 1089.12 499.58 1089.72 499.58C1090.72 499.58 1091.63 499.83 1092.46 500.33C1093.29 500.824 1093.96 501.509 1094.46 502.384C1094.96 503.253 1095.21 504.25 1095.21 505.375C1095.21 506.455 1094.96 507.443 1094.48 508.341C1094 509.233 1093.32 509.943 1092.44 510.472C1091.57 510.994 1090.55 511.25 1089.38 511.239ZM1089.38 509.364C1090.09 509.364 1090.73 509.185 1091.3 508.827C1091.88 508.469 1092.33 507.989 1092.66 507.386C1092.99 506.784 1093.16 506.114 1093.16 505.375C1093.16 504.653 1093 503.997 1092.67 503.406C1092.36 502.81 1091.92 502.335 1091.35 501.983C1090.8 501.631 1090.16 501.455 1089.44 501.455C1088.9 501.455 1088.4 501.562 1087.94 501.778C1087.47 501.989 1087.06 502.278 1086.71 502.648C1086.36 503.017 1086.09 503.44 1085.89 503.918C1085.69 504.389 1085.59 504.886 1085.59 505.409C1085.59 506.102 1085.75 506.75 1086.08 507.352C1086.41 507.955 1086.86 508.44 1087.42 508.81C1088 509.179 1088.65 509.364 1089.38 509.364ZM1115.57 507.864L1105.95 498.25L1107.25 496.955L1116.86 506.568L1115.57 507.864ZM1107.25 507.864L1105.95 506.568L1115.57 496.955L1116.86 498.25L1107.25 507.864ZM1133.43 493.307C1134.15 493.312 1134.87 493.449 1135.58 493.716C1136.3 493.983 1136.95 494.426 1137.54 495.045C1138.13 495.659 1138.61 496.497 1138.97 497.56C1139.32 498.622 1139.5 499.955 1139.5 501.557C1139.5 503.108 1139.35 504.486 1139.06 505.69C1138.77 506.889 1138.35 507.901 1137.8 508.724C1137.25 509.548 1136.59 510.173 1135.8 510.599C1135.02 511.026 1134.14 511.239 1133.16 511.239C1132.18 511.239 1131.31 511.045 1130.54 510.659C1129.78 510.267 1129.16 509.724 1128.67 509.031C1128.19 508.332 1127.88 507.523 1127.74 506.602H1129.82C1130.01 507.403 1130.38 508.065 1130.94 508.588C1131.5 509.105 1132.24 509.364 1133.16 509.364C1134.51 509.364 1135.57 508.776 1136.35 507.599C1137.13 506.423 1137.52 504.761 1137.52 502.614H1137.39C1137.07 503.091 1136.69 503.503 1136.25 503.849C1135.82 504.196 1135.33 504.463 1134.8 504.651C1134.26 504.838 1133.7 504.932 1133.09 504.932C1132.09 504.932 1131.18 504.685 1130.34 504.19C1129.51 503.69 1128.85 503.006 1128.35 502.136C1127.85 501.261 1127.6 500.261 1127.6 499.136C1127.6 498.068 1127.84 497.091 1128.32 496.205C1128.8 495.312 1129.48 494.602 1130.35 494.074C1131.22 493.545 1132.25 493.29 1133.43 493.307ZM1133.43 495.182C1132.72 495.182 1132.07 495.361 1131.5 495.719C1130.93 496.071 1130.48 496.548 1130.14 497.151C1129.81 497.747 1129.65 498.409 1129.65 499.136C1129.65 499.864 1129.81 500.526 1130.13 501.122C1130.45 501.713 1130.89 502.185 1131.45 502.537C1132.01 502.884 1132.65 503.057 1133.37 503.057C1133.91 503.057 1134.41 502.952 1134.87 502.741C1135.34 502.526 1135.75 502.233 1136.09 501.864C1136.45 501.489 1136.72 501.065 1136.92 500.594C1137.12 500.116 1137.22 499.619 1137.22 499.102C1137.22 498.42 1137.05 497.781 1136.72 497.185C1136.4 496.588 1135.95 496.105 1135.38 495.736C1134.81 495.366 1134.16 495.182 1133.43 495.182ZM1148.55 511.239C1147.26 511.239 1146.17 510.889 1145.27 510.19C1144.36 509.486 1143.67 508.466 1143.19 507.131C1142.72 505.79 1142.48 504.17 1142.48 502.273C1142.48 500.386 1142.72 498.776 1143.19 497.44C1143.68 496.099 1144.37 495.077 1145.27 494.372C1146.18 493.662 1147.27 493.307 1148.55 493.307C1149.82 493.307 1150.91 493.662 1151.81 494.372C1152.72 495.077 1153.41 496.099 1153.89 497.44C1154.37 498.776 1154.62 500.386 1154.62 502.273C1154.62 504.17 1154.38 505.79 1153.9 507.131C1153.42 508.466 1152.73 509.486 1151.83 510.19C1150.92 510.889 1149.83 511.239 1148.55 511.239ZM1148.55 509.364C1149.82 509.364 1150.81 508.75 1151.51 507.523C1152.22 506.295 1152.57 504.545 1152.57 502.273C1152.57 500.761 1152.41 499.474 1152.08 498.412C1151.77 497.349 1151.31 496.54 1150.7 495.983C1150.11 495.426 1149.39 495.148 1148.55 495.148C1147.29 495.148 1146.3 495.77 1145.59 497.014C1144.88 498.253 1144.52 500.006 1144.52 502.273C1144.52 503.784 1144.68 505.068 1145 506.125C1145.32 507.182 1145.78 507.986 1146.37 508.537C1146.98 509.088 1147.7 509.364 1148.55 509.364ZM1169.96 511.273C1168.73 511.273 1167.67 510.983 1166.79 510.403C1165.9 509.824 1165.22 509.026 1164.74 508.009C1164.26 506.991 1164.02 505.83 1164.02 504.523C1164.02 503.193 1164.27 502.02 1164.76 501.003C1165.25 499.98 1165.94 499.182 1166.82 498.608C1167.71 498.028 1168.74 497.739 1169.92 497.739C1170.84 497.739 1171.67 497.909 1172.41 498.25C1173.15 498.591 1173.75 499.068 1174.23 499.682C1174.7 500.295 1174.99 501.011 1175.1 501.83H1173.09C1172.94 501.233 1172.6 500.705 1172.07 500.244C1171.55 499.778 1170.84 499.545 1169.96 499.545C1169.17 499.545 1168.48 499.75 1167.89 500.159C1167.31 500.562 1166.85 501.134 1166.52 501.872C1166.2 502.605 1166.04 503.466 1166.04 504.455C1166.04 505.466 1166.19 506.347 1166.51 507.097C1166.84 507.847 1167.29 508.429 1167.88 508.844C1168.47 509.259 1169.16 509.466 1169.96 509.466C1170.48 509.466 1170.95 509.375 1171.38 509.193C1171.81 509.011 1172.17 508.75 1172.46 508.409C1172.76 508.068 1172.97 507.659 1173.09 507.182H1175.1C1174.99 507.955 1174.71 508.651 1174.26 509.27C1173.82 509.884 1173.23 510.372 1172.5 510.736C1171.77 511.094 1170.92 511.273 1169.96 511.273ZM1178.04 511V497.909H1179.99V499.955H1180.16C1180.43 499.256 1180.87 498.713 1181.48 498.327C1182.09 497.935 1182.82 497.739 1183.67 497.739C1184.53 497.739 1185.25 497.935 1185.83 498.327C1186.4 498.713 1186.86 499.256 1187.18 499.955H1187.32C1187.65 499.278 1188.15 498.741 1188.83 498.344C1189.5 497.94 1190.3 497.739 1191.24 497.739C1192.41 497.739 1193.37 498.105 1194.11 498.838C1194.85 499.565 1195.23 500.699 1195.23 502.239V511H1193.21V502.239C1193.21 501.273 1192.95 500.582 1192.42 500.168C1191.89 499.753 1191.27 499.545 1190.56 499.545C1189.63 499.545 1188.92 499.824 1188.42 500.381C1187.91 500.932 1187.66 501.631 1187.66 502.477V511H1185.61V502.034C1185.61 501.29 1185.37 500.69 1184.89 500.236C1184.4 499.776 1183.78 499.545 1183.02 499.545C1182.5 499.545 1182.01 499.685 1181.56 499.963C1181.11 500.241 1180.74 500.628 1180.46 501.122C1180.19 501.611 1180.06 502.176 1180.06 502.818V511H1178.04Z" fill="black"/>
<path d="M301.114 753V735.545H307.216C308.432 735.545 309.435 735.756 310.224 736.176C311.014 736.591 311.602 737.151 311.989 737.855C312.375 738.554 312.568 739.33 312.568 740.182C312.568 740.932 312.435 741.551 312.168 742.04C311.906 742.528 311.56 742.915 311.128 743.199C310.702 743.483 310.239 743.693 309.739 743.83V744C310.273 744.034 310.81 744.222 311.349 744.562C311.889 744.903 312.341 745.392 312.705 746.028C313.068 746.665 313.25 747.443 313.25 748.364C313.25 749.239 313.051 750.026 312.653 750.724C312.256 751.423 311.628 751.977 310.77 752.386C309.912 752.795 308.795 753 307.42 753H301.114ZM303.227 751.125H307.42C308.801 751.125 309.781 750.858 310.361 750.324C310.946 749.784 311.239 749.131 311.239 748.364C311.239 747.773 311.088 747.227 310.787 746.727C310.486 746.222 310.057 745.818 309.5 745.517C308.943 745.21 308.284 745.057 307.523 745.057H303.227V751.125ZM303.227 743.216H307.148C307.784 743.216 308.358 743.091 308.869 742.841C309.386 742.591 309.795 742.239 310.097 741.784C310.403 741.33 310.557 740.795 310.557 740.182C310.557 739.415 310.29 738.764 309.756 738.23C309.222 737.69 308.375 737.42 307.216 737.42H303.227V743.216ZM321.939 753.273C320.678 753.273 319.589 752.994 318.675 752.438C317.766 751.875 317.064 751.091 316.57 750.085C316.081 749.074 315.837 747.898 315.837 746.557C315.837 745.216 316.081 744.034 316.57 743.011C317.064 741.983 317.751 741.182 318.632 740.608C319.518 740.028 320.553 739.739 321.734 739.739C322.416 739.739 323.089 739.852 323.754 740.08C324.419 740.307 325.024 740.676 325.57 741.188C326.115 741.693 326.55 742.364 326.874 743.199C327.197 744.034 327.359 745.062 327.359 746.284V747.136H317.268V745.398H325.314C325.314 744.659 325.166 744 324.871 743.42C324.581 742.841 324.166 742.384 323.626 742.048C323.092 741.713 322.462 741.545 321.734 741.545C320.933 741.545 320.24 741.744 319.655 742.142C319.075 742.534 318.629 743.045 318.317 743.676C318.004 744.307 317.848 744.983 317.848 745.705V746.864C317.848 747.852 318.018 748.69 318.359 749.378C318.706 750.06 319.186 750.58 319.8 750.938C320.413 751.29 321.126 751.466 321.939 751.466C322.467 751.466 322.945 751.392 323.371 751.244C323.803 751.091 324.175 750.864 324.487 750.562C324.8 750.256 325.041 749.875 325.212 749.42L327.155 749.966C326.95 750.625 326.607 751.205 326.124 751.705C325.641 752.199 325.044 752.585 324.334 752.864C323.624 753.136 322.825 753.273 321.939 753.273ZM334.271 753.307C333.442 753.307 332.689 753.151 332.013 752.838C331.337 752.52 330.8 752.062 330.402 751.466C330.004 750.864 329.805 750.136 329.805 749.284C329.805 748.534 329.953 747.926 330.249 747.46C330.544 746.989 330.939 746.619 331.433 746.352C331.928 746.085 332.473 745.886 333.07 745.756C333.672 745.619 334.277 745.511 334.885 745.432C335.68 745.33 336.325 745.253 336.82 745.202C337.32 745.145 337.683 745.051 337.911 744.92C338.143 744.79 338.26 744.562 338.26 744.239V744.17C338.26 743.33 338.03 742.676 337.57 742.21C337.115 741.744 336.425 741.511 335.499 741.511C334.538 741.511 333.786 741.722 333.24 742.142C332.695 742.562 332.311 743.011 332.089 743.489L330.18 742.807C330.521 742.011 330.976 741.392 331.544 740.949C332.118 740.5 332.743 740.187 333.419 740.011C334.101 739.83 334.771 739.739 335.43 739.739C335.851 739.739 336.334 739.79 336.879 739.892C337.43 739.989 337.962 740.19 338.473 740.497C338.99 740.804 339.419 741.267 339.76 741.886C340.101 742.506 340.271 743.335 340.271 744.375V753H338.26V751.227H338.158C338.021 751.511 337.794 751.815 337.476 752.139C337.158 752.463 336.734 752.739 336.206 752.966C335.678 753.193 335.033 753.307 334.271 753.307ZM334.578 751.5C335.374 751.5 336.044 751.344 336.589 751.031C337.141 750.719 337.555 750.315 337.834 749.821C338.118 749.327 338.26 748.807 338.26 748.261V746.42C338.175 746.523 337.987 746.616 337.697 746.702C337.413 746.781 337.084 746.852 336.709 746.915C336.339 746.972 335.979 747.023 335.626 747.068C335.28 747.108 334.999 747.142 334.783 747.17C334.26 747.239 333.771 747.349 333.317 747.503C332.868 747.651 332.504 747.875 332.226 748.176C331.953 748.472 331.817 748.875 331.817 749.386C331.817 750.085 332.075 750.614 332.592 750.972C333.115 751.324 333.777 751.5 334.578 751.5ZM343.942 753V739.909H345.886V741.955H346.056C346.329 741.256 346.769 740.713 347.377 740.327C347.985 739.935 348.715 739.739 349.567 739.739C350.431 739.739 351.15 739.935 351.724 740.327C352.303 740.713 352.755 741.256 353.079 741.955H353.215C353.55 741.278 354.053 740.741 354.724 740.344C355.394 739.94 356.198 739.739 357.136 739.739C358.306 739.739 359.263 740.105 360.008 740.838C360.752 741.565 361.124 742.699 361.124 744.239V753H359.113V744.239C359.113 743.273 358.849 742.582 358.32 742.168C357.792 741.753 357.17 741.545 356.454 741.545C355.533 741.545 354.82 741.824 354.315 742.381C353.809 742.932 353.556 743.631 353.556 744.477V753H351.511V744.034C351.511 743.29 351.269 742.69 350.786 742.236C350.303 741.776 349.681 741.545 348.92 741.545C348.397 741.545 347.908 741.685 347.454 741.963C347.005 742.241 346.641 742.628 346.363 743.122C346.09 743.611 345.954 744.176 345.954 744.818V753H343.942ZM376.87 753.273C375.643 753.273 374.586 752.983 373.7 752.403C372.813 751.824 372.131 751.026 371.654 750.009C371.177 748.991 370.938 747.83 370.938 746.523C370.938 745.193 371.183 744.02 371.671 743.003C372.165 741.98 372.853 741.182 373.734 740.608C374.62 740.028 375.654 739.739 376.836 739.739C377.756 739.739 378.586 739.909 379.325 740.25C380.063 740.591 380.668 741.068 381.14 741.682C381.612 742.295 381.904 743.011 382.018 743.83H380.006C379.853 743.233 379.512 742.705 378.984 742.244C378.461 741.778 377.756 741.545 376.87 741.545C376.086 741.545 375.398 741.75 374.808 742.159C374.222 742.562 373.765 743.134 373.435 743.872C373.112 744.605 372.95 745.466 372.95 746.455C372.95 747.466 373.109 748.347 373.427 749.097C373.751 749.847 374.205 750.429 374.79 750.844C375.381 751.259 376.075 751.466 376.87 751.466C377.393 751.466 377.867 751.375 378.293 751.193C378.719 751.011 379.08 750.75 379.376 750.409C379.671 750.068 379.881 749.659 380.006 749.182H382.018C381.904 749.955 381.623 750.651 381.174 751.27C380.731 751.884 380.143 752.372 379.41 752.736C378.683 753.094 377.836 753.273 376.87 753.273ZM393.208 747.648V739.909H395.219V753H393.208V750.784H393.072C392.765 751.449 392.288 752.014 391.64 752.48C390.992 752.94 390.174 753.17 389.185 753.17C388.367 753.17 387.64 752.991 387.004 752.634C386.367 752.27 385.867 751.724 385.504 750.997C385.14 750.264 384.958 749.341 384.958 748.227V739.909H386.969V748.091C386.969 749.045 387.237 749.807 387.771 750.375C388.31 750.943 388.998 751.227 389.833 751.227C390.333 751.227 390.842 751.099 391.359 750.844C391.881 750.588 392.319 750.196 392.671 749.668C393.029 749.139 393.208 748.466 393.208 747.648ZM398.903 753V739.909H400.847V741.886H400.983C401.222 741.239 401.653 740.713 402.278 740.31C402.903 739.906 403.608 739.705 404.392 739.705C404.54 739.705 404.724 739.707 404.946 739.713C405.168 739.719 405.335 739.727 405.449 739.739V741.784C405.381 741.767 405.224 741.741 404.98 741.707C404.741 741.668 404.489 741.648 404.222 741.648C403.585 741.648 403.017 741.781 402.517 742.048C402.023 742.31 401.631 742.673 401.341 743.139C401.057 743.599 400.915 744.125 400.915 744.716V753H398.903ZM407.833 753V739.909H409.776V741.886H409.913C410.151 741.239 410.583 740.713 411.208 740.31C411.833 739.906 412.538 739.705 413.322 739.705C413.469 739.705 413.654 739.707 413.876 739.713C414.097 739.719 414.265 739.727 414.379 739.739V741.784C414.31 741.767 414.154 741.741 413.91 741.707C413.671 741.668 413.418 741.648 413.151 741.648C412.515 741.648 411.947 741.781 411.447 742.048C410.952 742.31 410.56 742.673 410.271 743.139C409.987 743.599 409.844 744.125 409.844 744.716V753H407.833ZM421.853 753.273C420.592 753.273 419.504 752.994 418.589 752.438C417.68 751.875 416.978 751.091 416.484 750.085C415.995 749.074 415.751 747.898 415.751 746.557C415.751 745.216 415.995 744.034 416.484 743.011C416.978 741.983 417.665 741.182 418.546 740.608C419.433 740.028 420.467 739.739 421.648 739.739C422.33 739.739 423.004 739.852 423.668 740.08C424.333 740.307 424.938 740.676 425.484 741.188C426.029 741.693 426.464 742.364 426.788 743.199C427.112 744.034 427.273 745.062 427.273 746.284V747.136H417.183V745.398H425.228C425.228 744.659 425.08 744 424.785 743.42C424.495 742.841 424.08 742.384 423.54 742.048C423.006 741.713 422.376 741.545 421.648 741.545C420.847 741.545 420.154 741.744 419.569 742.142C418.989 742.534 418.543 743.045 418.231 743.676C417.918 744.307 417.762 744.983 417.762 745.705V746.864C417.762 747.852 417.933 748.69 418.273 749.378C418.62 750.06 419.1 750.58 419.714 750.938C420.327 751.29 421.04 751.466 421.853 751.466C422.381 751.466 422.859 751.392 423.285 751.244C423.717 751.091 424.089 750.864 424.401 750.562C424.714 750.256 424.955 749.875 425.126 749.42L427.069 749.966C426.864 750.625 426.521 751.205 426.038 751.705C425.555 752.199 424.958 752.585 424.248 752.864C423.538 753.136 422.739 753.273 421.853 753.273ZM432.344 745.125V753H430.333V739.909H432.276V741.955H432.447C432.754 741.29 433.219 740.756 433.844 740.352C434.469 739.943 435.276 739.739 436.265 739.739C437.151 739.739 437.927 739.92 438.592 740.284C439.256 740.642 439.773 741.188 440.143 741.92C440.512 742.648 440.697 743.568 440.697 744.682V753H438.685V744.818C438.685 743.79 438.418 742.989 437.884 742.415C437.35 741.835 436.617 741.545 435.685 741.545C435.043 741.545 434.469 741.685 433.964 741.963C433.464 742.241 433.069 742.648 432.779 743.182C432.489 743.716 432.344 744.364 432.344 745.125ZM450.065 739.909V741.614H443.281V739.909H450.065ZM445.259 736.773H447.27V749.25C447.27 749.818 447.352 750.244 447.517 750.528C447.688 750.807 447.903 750.994 448.165 751.091C448.432 751.182 448.713 751.227 449.009 751.227C449.23 751.227 449.412 751.216 449.554 751.193C449.696 751.165 449.81 751.142 449.895 751.125L450.304 752.932C450.168 752.983 449.977 753.034 449.733 753.085C449.489 753.142 449.179 753.17 448.804 753.17C448.236 753.17 447.679 753.048 447.134 752.804C446.594 752.56 446.145 752.188 445.787 751.688C445.435 751.188 445.259 750.557 445.259 749.795V736.773ZM461.307 753.136C460.886 753.136 460.526 752.986 460.224 752.685C459.923 752.384 459.773 752.023 459.773 751.602C459.773 751.182 459.923 750.821 460.224 750.52C460.526 750.219 460.886 750.068 461.307 750.068C461.727 750.068 462.088 750.219 462.389 750.52C462.69 750.821 462.841 751.182 462.841 751.602C462.841 751.881 462.77 752.136 462.628 752.369C462.491 752.602 462.307 752.79 462.074 752.932C461.847 753.068 461.591 753.136 461.307 753.136ZM461.307 743.42C460.886 743.42 460.526 743.27 460.224 742.969C459.923 742.668 459.773 742.307 459.773 741.886C459.773 741.466 459.923 741.105 460.224 740.804C460.526 740.503 460.886 740.352 461.307 740.352C461.727 740.352 462.088 740.503 462.389 740.804C462.69 741.105 462.841 741.466 462.841 741.886C462.841 742.165 462.77 742.42 462.628 742.653C462.491 742.886 462.307 743.074 462.074 743.216C461.847 743.352 461.591 743.42 461.307 743.42ZM306.398 782.239C305.227 782.239 304.193 782.031 303.295 781.616C302.403 781.196 301.707 780.619 301.207 779.886C300.707 779.148 300.46 778.307 300.466 777.364C300.46 776.625 300.605 775.943 300.901 775.318C301.196 774.687 301.599 774.162 302.111 773.741C302.628 773.315 303.205 773.045 303.841 772.932V772.83C303.006 772.614 302.341 772.145 301.847 771.423C301.352 770.696 301.108 769.869 301.114 768.943C301.108 768.057 301.332 767.264 301.787 766.565C302.241 765.866 302.866 765.315 303.662 764.912C304.463 764.509 305.375 764.307 306.398 764.307C307.409 764.307 308.313 764.509 309.108 764.912C309.903 765.315 310.528 765.866 310.983 766.565C311.443 767.264 311.676 768.057 311.682 768.943C311.676 769.869 311.423 770.696 310.923 771.423C310.429 772.145 309.773 772.614 308.955 772.83V772.932C309.585 773.045 310.153 773.315 310.659 773.741C311.165 774.162 311.568 774.687 311.869 775.318C312.17 775.943 312.324 776.625 312.33 777.364C312.324 778.307 312.068 779.148 311.562 779.886C311.062 780.619 310.366 781.196 309.474 781.616C308.588 782.031 307.563 782.239 306.398 782.239ZM306.398 780.364C307.188 780.364 307.869 780.236 308.443 779.98C309.017 779.724 309.46 779.364 309.773 778.898C310.085 778.432 310.244 777.886 310.25 777.261C310.244 776.602 310.074 776.02 309.739 775.514C309.403 775.009 308.946 774.611 308.366 774.321C307.793 774.031 307.136 773.886 306.398 773.886C305.653 773.886 304.989 774.031 304.403 774.321C303.824 774.611 303.366 775.009 303.031 775.514C302.702 776.02 302.54 776.602 302.545 777.261C302.54 777.886 302.69 778.432 302.997 778.898C303.31 779.364 303.756 779.724 304.335 779.98C304.915 780.236 305.602 780.364 306.398 780.364ZM306.398 772.08C307.023 772.08 307.577 771.955 308.06 771.705C308.548 771.455 308.932 771.105 309.21 770.656C309.489 770.207 309.631 769.682 309.636 769.08C309.631 768.489 309.491 767.974 309.219 767.537C308.946 767.094 308.568 766.753 308.085 766.514C307.602 766.27 307.04 766.148 306.398 766.148C305.744 766.148 305.173 766.27 304.685 766.514C304.196 766.753 303.818 767.094 303.551 767.537C303.284 767.974 303.153 768.489 303.159 769.08C303.153 769.682 303.287 770.207 303.56 770.656C303.838 771.105 304.222 771.455 304.71 771.705C305.199 771.955 305.761 772.08 306.398 772.08ZM321.05 782.239C320.05 782.239 319.15 782.04 318.349 781.642C317.548 781.244 316.906 780.699 316.423 780.006C315.94 779.312 315.675 778.523 315.63 777.636H317.675C317.755 778.426 318.113 779.08 318.749 779.597C319.391 780.108 320.158 780.364 321.05 780.364C321.766 780.364 322.403 780.196 322.96 779.861C323.522 779.526 323.962 779.065 324.281 778.48C324.604 777.889 324.766 777.222 324.766 776.477C324.766 775.716 324.599 775.037 324.263 774.44C323.934 773.838 323.479 773.364 322.9 773.017C322.32 772.67 321.658 772.494 320.914 772.489C320.38 772.483 319.832 772.565 319.269 772.736C318.707 772.901 318.244 773.114 317.88 773.375L315.903 773.136L316.96 764.545H326.028V766.42H318.732L318.119 771.568H318.221C318.579 771.284 319.028 771.048 319.567 770.861C320.107 770.673 320.67 770.58 321.255 770.58C322.323 770.58 323.275 770.835 324.11 771.347C324.951 771.852 325.61 772.545 326.087 773.426C326.57 774.307 326.812 775.312 326.812 776.443C326.812 777.557 326.562 778.551 326.062 779.426C325.567 780.295 324.886 780.983 324.016 781.489C323.147 781.989 322.158 782.239 321.05 782.239ZM336.982 786.909V768.909H338.993V776.648C338.993 777.358 339.141 777.983 339.436 778.523C339.737 779.057 340.158 779.474 340.697 779.776C341.243 780.077 341.879 780.227 342.607 780.227C343.334 780.227 343.967 780.077 344.507 779.776C345.053 779.469 345.473 779.048 345.768 778.514C346.07 777.974 346.22 777.352 346.22 776.648V768.909H348.232V782H346.22V780.057H346.118C345.766 780.744 345.274 781.27 344.643 781.634C344.013 781.991 343.334 782.17 342.607 782.17C341.879 782.17 341.2 781.991 340.57 781.634C339.945 781.27 339.453 780.744 339.095 780.057H338.993V786.909H336.982ZM352.9 782H350.684L357.093 764.545H359.275L365.684 782H363.468L358.252 767.307H358.116L352.9 782ZM353.718 775.182H362.65V777.057H353.718V775.182Z" fill="black"/>
<path d="M1040.16 737.42V735.545H1053.25V737.42H1047.76V753H1045.65V737.42H1040.16ZM1058.31 753.307C1057.48 753.307 1056.73 753.151 1056.05 752.838C1055.38 752.52 1054.84 752.062 1054.44 751.466C1054.04 750.864 1053.84 750.136 1053.84 749.284C1053.84 748.534 1053.99 747.926 1054.29 747.46C1054.58 746.989 1054.98 746.619 1055.47 746.352C1055.97 746.085 1056.51 745.886 1057.11 745.756C1057.71 745.619 1058.32 745.511 1058.92 745.432C1059.72 745.33 1060.36 745.253 1060.86 745.202C1061.36 745.145 1061.72 745.051 1061.95 744.92C1062.18 744.79 1062.3 744.562 1062.3 744.239V744.17C1062.3 743.33 1062.07 742.676 1061.61 742.21C1061.15 741.744 1060.46 741.511 1059.54 741.511C1058.58 741.511 1057.82 741.722 1057.28 742.142C1056.73 742.562 1056.35 743.011 1056.13 743.489L1054.22 742.807C1054.56 742.011 1055.01 741.392 1055.58 740.949C1056.16 740.5 1056.78 740.187 1057.46 740.011C1058.14 739.83 1058.81 739.739 1059.47 739.739C1059.89 739.739 1060.37 739.79 1060.92 739.892C1061.47 739.989 1062 740.19 1062.51 740.497C1063.03 740.804 1063.46 741.267 1063.8 741.886C1064.14 742.506 1064.31 743.335 1064.31 744.375V753H1062.3V751.227H1062.2C1062.06 751.511 1061.83 751.815 1061.51 752.139C1061.2 752.463 1060.77 752.739 1060.25 752.966C1059.72 753.193 1059.07 753.307 1058.31 753.307ZM1058.62 751.5C1059.41 751.5 1060.08 751.344 1060.63 751.031C1061.18 750.719 1061.59 750.315 1061.87 749.821C1062.16 749.327 1062.3 748.807 1062.3 748.261V746.42C1062.21 746.523 1062.03 746.616 1061.74 746.702C1061.45 746.781 1061.12 746.852 1060.75 746.915C1060.38 746.972 1060.02 747.023 1059.67 747.068C1059.32 747.108 1059.04 747.142 1058.82 747.17C1058.3 747.239 1057.81 747.349 1057.36 747.503C1056.91 747.651 1056.54 747.875 1056.26 748.176C1055.99 748.472 1055.86 748.875 1055.86 749.386C1055.86 750.085 1056.11 750.614 1056.63 750.972C1057.15 751.324 1057.82 751.5 1058.62 751.5ZM1067.98 753V739.909H1069.92V741.886H1070.06C1070.3 741.239 1070.73 740.713 1071.36 740.31C1071.98 739.906 1072.69 739.705 1073.47 739.705C1073.62 739.705 1073.8 739.707 1074.02 739.713C1074.25 739.719 1074.41 739.727 1074.53 739.739V741.784C1074.46 741.767 1074.3 741.741 1074.06 741.707C1073.82 741.668 1073.57 741.648 1073.3 741.648C1072.66 741.648 1072.1 741.781 1071.6 742.048C1071.1 742.31 1070.71 742.673 1070.42 743.139C1070.13 743.599 1069.99 744.125 1069.99 744.716V753H1067.98ZM1081.8 758.182C1080.83 758.182 1079.99 758.057 1079.29 757.807C1078.59 757.562 1078.01 757.239 1077.54 756.835C1077.08 756.438 1076.72 756.011 1076.44 755.557L1078.05 754.432C1078.23 754.67 1078.46 754.943 1078.74 755.25C1079.02 755.562 1079.4 755.832 1079.88 756.06C1080.37 756.293 1081.01 756.409 1081.8 756.409C1082.85 756.409 1083.73 756.153 1084.41 755.642C1085.1 755.131 1085.44 754.33 1085.44 753.239V750.58H1085.27C1085.13 750.818 1084.92 751.114 1084.64 751.466C1084.38 751.812 1083.99 752.122 1083.48 752.395C1082.98 752.662 1082.31 752.795 1081.46 752.795C1080.4 752.795 1079.45 752.545 1078.61 752.045C1077.77 751.545 1077.11 750.818 1076.62 749.864C1076.14 748.909 1075.9 747.75 1075.9 746.386C1075.9 745.045 1076.13 743.878 1076.61 742.884C1077.08 741.884 1077.73 741.111 1078.58 740.565C1079.42 740.014 1080.39 739.739 1081.49 739.739C1082.34 739.739 1083.02 739.881 1083.52 740.165C1084.02 740.443 1084.41 740.761 1084.68 741.119C1084.95 741.472 1085.16 741.761 1085.31 741.989H1085.51V739.909H1087.46V753.375C1087.46 754.5 1087.2 755.415 1086.69 756.119C1086.18 756.83 1085.5 757.349 1084.64 757.679C1083.79 758.014 1082.84 758.182 1081.8 758.182ZM1081.73 750.989C1082.54 750.989 1083.22 750.804 1083.77 750.435C1084.33 750.065 1084.75 749.534 1085.04 748.841C1085.33 748.148 1085.48 747.318 1085.48 746.352C1085.48 745.409 1085.34 744.577 1085.05 743.855C1084.77 743.134 1084.35 742.568 1083.79 742.159C1083.23 741.75 1082.55 741.545 1081.73 741.545C1080.88 741.545 1080.17 741.761 1079.6 742.193C1079.04 742.625 1078.61 743.205 1078.33 743.932C1078.05 744.659 1077.91 745.466 1077.91 746.352C1077.91 747.261 1078.05 748.065 1078.34 748.764C1078.63 749.457 1079.05 750.003 1079.62 750.401C1080.18 750.793 1080.89 750.989 1081.73 750.989ZM1096.63 753.273C1095.37 753.273 1094.28 752.994 1093.36 752.438C1092.45 751.875 1091.75 751.091 1091.26 750.085C1090.77 749.074 1090.52 747.898 1090.52 746.557C1090.52 745.216 1090.77 744.034 1091.26 743.011C1091.75 741.983 1092.44 741.182 1093.32 740.608C1094.21 740.028 1095.24 739.739 1096.42 739.739C1097.1 739.739 1097.78 739.852 1098.44 740.08C1099.11 740.307 1099.71 740.676 1100.26 741.188C1100.8 741.693 1101.24 742.364 1101.56 743.199C1101.88 744.034 1102.05 745.062 1102.05 746.284V747.136H1091.96V745.398H1100C1100 744.659 1099.85 744 1099.56 743.42C1099.27 742.841 1098.85 742.384 1098.31 742.048C1097.78 741.713 1097.15 741.545 1096.42 741.545C1095.62 741.545 1094.93 741.744 1094.34 742.142C1093.76 742.534 1093.32 743.045 1093 743.676C1092.69 744.307 1092.54 744.983 1092.54 745.705V746.864C1092.54 747.852 1092.71 748.69 1093.05 749.378C1093.39 750.06 1093.87 750.58 1094.49 750.938C1095.1 751.29 1095.81 751.466 1096.63 751.466C1097.15 751.466 1097.63 751.392 1098.06 751.244C1098.49 751.091 1098.86 750.864 1099.17 750.562C1099.49 750.256 1099.73 749.875 1099.9 749.42L1101.84 749.966C1101.64 750.625 1101.29 751.205 1100.81 751.705C1100.33 752.199 1099.73 752.585 1099.02 752.864C1098.31 753.136 1097.51 753.273 1096.63 753.273ZM1110.8 739.909V741.614H1104.02V739.909H1110.8ZM1105.99 736.773H1108V749.25C1108 749.818 1108.09 750.244 1108.25 750.528C1108.42 750.807 1108.64 750.994 1108.9 751.091C1109.17 751.182 1109.45 751.227 1109.74 751.227C1109.96 751.227 1110.15 751.216 1110.29 751.193C1110.43 751.165 1110.54 751.142 1110.63 751.125L1111.04 752.932C1110.9 752.983 1110.71 753.034 1110.47 753.085C1110.22 753.142 1109.91 753.17 1109.54 753.17C1108.97 753.17 1108.41 753.048 1107.87 752.804C1107.33 752.56 1106.88 752.188 1106.52 751.688C1106.17 751.188 1105.99 750.557 1105.99 749.795V736.773ZM1122.04 753.136C1121.62 753.136 1121.26 752.986 1120.96 752.685C1120.66 752.384 1120.51 752.023 1120.51 751.602C1120.51 751.182 1120.66 750.821 1120.96 750.52C1121.26 750.219 1121.62 750.068 1122.04 750.068C1122.46 750.068 1122.82 750.219 1123.12 750.52C1123.42 750.821 1123.58 751.182 1123.58 751.602C1123.58 751.881 1123.5 752.136 1123.36 752.369C1123.23 752.602 1123.04 752.79 1122.81 752.932C1122.58 753.068 1122.33 753.136 1122.04 753.136ZM1122.04 743.42C1121.62 743.42 1121.26 743.27 1120.96 742.969C1120.66 742.668 1120.51 742.307 1120.51 741.886C1120.51 741.466 1120.66 741.105 1120.96 740.804C1121.26 740.503 1121.62 740.352 1122.04 740.352C1122.46 740.352 1122.82 740.503 1123.12 740.804C1123.42 741.105 1123.58 741.466 1123.58 741.886C1123.58 742.165 1123.5 742.42 1123.36 742.653C1123.23 742.886 1123.04 743.074 1122.81 743.216C1122.58 743.352 1122.33 743.42 1122.04 743.42ZM1041.11 782V764.545H1043.23V772.318H1052.53V764.545H1054.65V782H1052.53V774.193H1043.23V782H1041.11ZM1058.57 782V780.466L1064.33 774.159C1065.01 773.42 1065.57 772.778 1066 772.233C1066.44 771.682 1066.77 771.165 1066.98 770.682C1067.19 770.193 1067.3 769.682 1067.3 769.148C1067.3 768.534 1067.15 768.003 1066.86 767.554C1066.57 767.105 1066.17 766.759 1065.66 766.514C1065.16 766.27 1064.59 766.148 1063.96 766.148C1063.29 766.148 1062.7 766.287 1062.2 766.565C1061.71 766.838 1061.33 767.222 1061.05 767.716C1060.79 768.21 1060.65 768.79 1060.65 769.455H1058.64C1058.64 768.432 1058.88 767.534 1059.35 766.761C1059.82 765.989 1060.46 765.386 1061.27 764.955C1062.09 764.523 1063.01 764.307 1064.03 764.307C1065.05 764.307 1065.96 764.523 1066.75 764.955C1067.54 765.386 1068.15 765.969 1068.6 766.702C1069.05 767.435 1069.28 768.25 1069.28 769.148C1069.28 769.79 1069.16 770.418 1068.93 771.031C1068.7 771.639 1068.3 772.318 1067.73 773.068C1067.17 773.812 1066.39 774.722 1065.39 775.795L1061.47 779.989V780.125H1069.58V782H1058.57ZM1088.14 773.273C1088.14 775.114 1087.81 776.705 1087.14 778.045C1086.48 779.386 1085.56 780.42 1084.4 781.148C1083.25 781.875 1081.92 782.239 1080.43 782.239C1078.94 782.239 1077.62 781.875 1076.46 781.148C1075.3 780.42 1074.39 779.386 1073.73 778.045C1073.06 776.705 1072.73 775.114 1072.73 773.273C1072.73 771.432 1073.06 769.841 1073.73 768.5C1074.39 767.159 1075.3 766.125 1076.46 765.398C1077.62 764.67 1078.94 764.307 1080.43 764.307C1081.92 764.307 1083.25 764.67 1084.4 765.398C1085.56 766.125 1086.48 767.159 1087.14 768.5C1087.81 769.841 1088.14 771.432 1088.14 773.273ZM1086.09 773.273C1086.09 771.761 1085.84 770.486 1085.33 769.446C1084.83 768.406 1084.15 767.619 1083.3 767.085C1082.44 766.551 1081.49 766.284 1080.43 766.284C1079.38 766.284 1078.42 766.551 1077.56 767.085C1076.71 767.619 1076.03 768.406 1075.52 769.446C1075.02 770.486 1074.77 771.761 1074.77 773.273C1074.77 774.784 1075.02 776.06 1075.52 777.099C1076.03 778.139 1076.71 778.926 1077.56 779.46C1078.42 779.994 1079.38 780.261 1080.43 780.261C1081.49 780.261 1082.44 779.994 1083.3 779.46C1084.15 778.926 1084.83 778.139 1085.33 777.099C1085.84 776.06 1086.09 774.784 1086.09 773.273ZM1097.52 764.545V782H1095.41V766.761H1095.31L1091.04 769.591V767.443L1095.41 764.545H1097.52ZM1108.13 782.239C1106.96 782.239 1105.93 782.031 1105.03 781.616C1104.14 781.196 1103.44 780.619 1102.94 779.886C1102.44 779.148 1102.19 778.307 1102.2 777.364C1102.19 776.625 1102.34 775.943 1102.63 775.318C1102.93 774.687 1103.33 774.162 1103.85 773.741C1104.36 773.315 1104.94 773.045 1105.58 772.932V772.83C1104.74 772.614 1104.08 772.145 1103.58 771.423C1103.09 770.696 1102.84 769.869 1102.85 768.943C1102.84 768.057 1103.07 767.264 1103.52 766.565C1103.98 765.866 1104.6 765.315 1105.4 764.912C1106.2 764.509 1107.11 764.307 1108.13 764.307C1109.14 764.307 1110.05 764.509 1110.84 764.912C1111.64 765.315 1112.26 765.866 1112.72 766.565C1113.18 767.264 1113.41 768.057 1113.42 768.943C1113.41 769.869 1113.16 770.696 1112.66 771.423C1112.16 772.145 1111.51 772.614 1110.69 772.83V772.932C1111.32 773.045 1111.89 773.315 1112.39 773.741C1112.9 774.162 1113.3 774.687 1113.6 775.318C1113.9 775.943 1114.06 776.625 1114.06 777.364C1114.06 778.307 1113.8 779.148 1113.3 779.886C1112.8 780.619 1112.1 781.196 1111.21 781.616C1110.32 782.031 1109.3 782.239 1108.13 782.239ZM1108.13 780.364C1108.92 780.364 1109.6 780.236 1110.18 779.98C1110.75 779.724 1111.19 779.364 1111.51 778.898C1111.82 778.432 1111.98 777.886 1111.98 777.261C1111.98 776.602 1111.81 776.02 1111.47 775.514C1111.14 775.009 1110.68 774.611 1110.1 774.321C1109.53 774.031 1108.87 773.886 1108.13 773.886C1107.39 773.886 1106.72 774.031 1106.14 774.321C1105.56 774.611 1105.1 775.009 1104.77 775.514C1104.44 776.02 1104.27 776.602 1104.28 777.261C1104.27 777.886 1104.42 778.432 1104.73 778.898C1105.04 779.364 1105.49 779.724 1106.07 779.98C1106.65 780.236 1107.34 780.364 1108.13 780.364ZM1108.13 772.08C1108.76 772.08 1109.31 771.955 1109.79 771.705C1110.28 771.455 1110.67 771.105 1110.94 770.656C1111.22 770.207 1111.37 769.682 1111.37 769.08C1111.37 768.489 1111.23 767.974 1110.95 767.537C1110.68 767.094 1110.3 766.753 1109.82 766.514C1109.34 766.27 1108.77 766.148 1108.13 766.148C1107.48 766.148 1106.91 766.27 1106.42 766.514C1105.93 766.753 1105.55 767.094 1105.29 767.537C1105.02 767.974 1104.89 768.489 1104.89 769.08C1104.89 769.682 1105.02 770.207 1105.29 770.656C1105.57 771.105 1105.96 771.455 1106.44 771.705C1106.93 771.955 1107.5 772.08 1108.13 772.08ZM1124.83 773.273C1124.83 771.125 1125.11 769.151 1125.67 767.349C1126.23 765.543 1127.03 763.881 1128.07 762.364H1129.84C1129.43 762.926 1129.05 763.619 1128.69 764.443C1128.34 765.261 1128.03 766.162 1127.76 767.145C1127.5 768.122 1127.28 769.134 1127.13 770.179C1126.98 771.224 1126.91 772.256 1126.91 773.273C1126.91 774.625 1127.04 775.997 1127.3 777.389C1127.56 778.781 1127.92 780.074 1128.36 781.267C1128.8 782.46 1129.3 783.432 1129.84 784.182H1128.07C1127.03 782.665 1126.23 781.006 1125.67 779.205C1125.11 777.398 1124.83 775.42 1124.83 773.273ZM1132.78 782V780.466L1138.54 774.159C1139.21 773.42 1139.77 772.778 1140.21 772.233C1140.64 771.682 1140.97 771.165 1141.18 770.682C1141.39 770.193 1141.5 769.682 1141.5 769.148C1141.5 768.534 1141.36 768.003 1141.06 767.554C1140.77 767.105 1140.37 766.759 1139.87 766.514C1139.36 766.27 1138.79 766.148 1138.16 766.148C1137.49 766.148 1136.91 766.287 1136.41 766.565C1135.91 766.838 1135.53 767.222 1135.26 767.716C1134.99 768.21 1134.86 768.79 1134.86 769.455H1132.84C1132.84 768.432 1133.08 767.534 1133.55 766.761C1134.02 765.989 1134.66 765.386 1135.48 764.955C1136.3 764.523 1137.21 764.307 1138.23 764.307C1139.25 764.307 1140.16 764.523 1140.95 764.955C1141.74 765.386 1142.36 765.969 1142.81 766.702C1143.26 767.435 1143.48 768.25 1143.48 769.148C1143.48 769.79 1143.36 770.418 1143.13 771.031C1142.9 771.639 1142.51 772.318 1141.94 773.068C1141.38 773.812 1140.59 774.722 1139.59 775.795L1135.67 779.989V780.125H1143.79V782H1132.78ZM1154.09 782V768.909H1156.03V770.955H1156.2C1156.48 770.256 1156.92 769.713 1157.53 769.327C1158.13 768.935 1158.86 768.739 1159.72 768.739C1160.58 768.739 1161.3 768.935 1161.87 769.327C1162.45 769.713 1162.9 770.256 1163.23 770.955H1163.36C1163.7 770.278 1164.2 769.741 1164.87 769.344C1165.54 768.94 1166.35 768.739 1167.28 768.739C1168.45 768.739 1169.41 769.105 1170.16 769.838C1170.9 770.565 1171.27 771.699 1171.27 773.239V782H1169.26V773.239C1169.26 772.273 1169 771.582 1168.47 771.168C1167.94 770.753 1167.32 770.545 1166.6 770.545C1165.68 770.545 1164.97 770.824 1164.46 771.381C1163.96 771.932 1163.7 772.631 1163.7 773.477V782H1161.66V773.034C1161.66 772.29 1161.42 771.69 1160.93 771.236C1160.45 770.776 1159.83 770.545 1159.07 770.545C1158.55 770.545 1158.06 770.685 1157.6 770.963C1157.15 771.241 1156.79 771.628 1156.51 772.122C1156.24 772.611 1156.1 773.176 1156.1 773.818V782H1154.09ZM1175.22 782V764.545H1177.34V780.125H1185.45V782H1175.22ZM1192.75 773.273C1192.75 775.42 1192.46 777.398 1191.9 779.205C1191.35 781.006 1190.55 782.665 1189.51 784.182H1187.73C1188.14 783.619 1188.52 782.926 1188.88 782.102C1189.23 781.284 1189.55 780.386 1189.81 779.409C1190.08 778.426 1190.29 777.412 1190.44 776.366C1190.59 775.315 1190.67 774.284 1190.67 773.273C1190.67 771.92 1190.54 770.548 1190.27 769.156C1190.01 767.764 1189.66 766.472 1189.22 765.278C1188.77 764.085 1188.28 763.114 1187.73 762.364H1189.51C1190.55 763.881 1191.35 765.543 1191.9 767.349C1192.46 769.151 1192.75 771.125 1192.75 773.273Z" fill="black"/>
<path d="M171 134L171 879" stroke="#5E031F" stroke-width="10" stroke-linecap="round"/>
<path d="M858 134L858 879" stroke="#5E031F" stroke-width="10" stroke-linecap="round"/>
<path d="M857.5 193C889.852 193 916 166.541 916 134C916 101.459 889.852 75 857.5 75C825.148 75 799 101.459 799 134C799 166.541 825.148 193 857.5 193Z" fill="#5E031F" stroke="white" stroke-width="10"/>
<path d="M170.5 193C202.852 193 229 166.541 229 134C229 101.459 202.852 75 170.5 75C138.148 75 112 101.459 112 134C112 166.541 138.148 193 170.5 193Z" fill="#5E031F" stroke="white" stroke-width="10"/>
<path d="M857.5 464C889.852 464 916 437.541 916 405C916 372.459 889.852 346 857.5 346C825.148 346 799 372.459 799 405C799 437.541 825.148 464 857.5 464Z" fill="#5E031F" stroke="white" stroke-width="10"/>
<path d="M170.5 464C202.852 464 229 437.541 229 405C229 372.459 202.852 346 170.5 346C138.148 346 112 372.459 112 405C112 437.541 138.148 464 170.5 464Z" fill="#5E031F" stroke="white" stroke-width="10"/>
<path d="M857.5 735C889.852 735 916 708.541 916 676C916 643.459 889.852 617 857.5 617C825.148 617 799 643.459 799 676C799 708.541 825.148 735 857.5 735Z" fill="#5E031F" stroke="white" stroke-width="10"/>
<path d="M170.5 735C202.852 735 229 708.541 229 676C229 643.459 202.852 617 170.5 617C138.148 617 112 643.459 112 676C112 708.541 138.148 735 170.5 735Z" fill="#5E031F" stroke="white" stroke-width="10"/>
<path d="M845.245 145.667H870.755L867.726 124H848.274L845.245 145.667ZM858 119.667C858.602 119.667 859.107 119.459 859.515 119.044C859.922 118.628 860.126 118.114 860.126 117.5C860.126 116.886 859.922 116.372 859.515 115.956C859.107 115.541 858.602 115.333 858 115.333C857.398 115.333 856.893 115.541 856.485 115.956C856.078 116.372 855.874 116.886 855.874 117.5C855.874 118.114 856.078 118.628 856.485 119.044C856.893 119.459 857.398 119.667 858 119.667ZM864.005 119.667H867.726C868.789 119.667 869.71 120.028 870.489 120.75C871.269 121.472 871.747 122.357 871.924 123.404L874.953 145.071C875.131 146.371 874.803 147.517 873.97 148.51C873.138 149.503 872.066 150 870.755 150H845.245C843.934 150 842.862 149.503 842.03 148.51C841.197 147.517 840.869 146.371 841.047 145.071L844.076 123.404C844.253 122.357 844.731 121.472 845.511 120.75C846.29 120.028 847.211 119.667 848.274 119.667H851.995C851.888 119.306 851.8 118.953 851.729 118.61C851.658 118.267 851.623 117.897 851.623 117.5C851.623 115.694 852.243 114.16 853.483 112.896C854.723 111.632 856.228 111 858 111C859.772 111 861.277 111.632 862.517 112.896C863.757 114.16 864.377 115.694 864.377 117.5C864.377 117.897 864.342 118.267 864.271 118.61C864.2 118.953 864.112 119.306 864.005 119.667Z" fill="white"/>
<path d="M842.222 418L830 405L842.222 392L846.576 396.55L841.688 401.75H873.312L868.5 396.55L872.778 392L885 405L872.778 418L868.5 413.45L873.312 408.25H841.688L846.5 413.45L842.222 418Z" fill="#E8EAED"/>
<path d="M857.5 701C853.834 701 850.389 700.304 847.165 698.913C843.941 697.522 841.136 695.634 838.751 693.249C836.366 690.864 834.478 688.059 833.087 684.835C831.696 681.611 831 678.166 831 674.5C831 670.834 831.696 667.389 833.087 664.165C834.478 660.941 836.366 658.136 838.751 655.751C841.136 653.366 843.941 651.478 847.165 650.087C850.389 648.696 853.834 648 857.5 648C861.166 648 864.611 648.696 867.835 650.087C871.059 651.478 873.864 653.366 876.249 655.751C878.634 658.136 880.522 660.941 881.913 664.165C883.304 667.389 884 670.834 884 674.5C884 678.166 883.304 681.611 881.913 684.835C880.522 688.059 878.634 690.864 876.249 693.249C873.864 695.634 871.059 697.522 867.835 698.913C864.611 700.304 861.166 701 857.5 701ZM857.5 695.7C863.418 695.7 868.431 693.646 872.539 689.539C876.646 685.431 878.7 680.418 878.7 674.5C878.7 668.582 876.646 663.569 872.539 659.461C868.431 655.354 863.418 653.3 857.5 653.3C851.582 653.3 846.569 655.354 842.461 659.461C838.354 663.569 836.3 668.582 836.3 674.5C836.3 680.418 838.354 685.431 842.461 689.539C846.569 693.646 851.582 695.7 857.5 695.7ZM857.5 690.4C853.083 690.4 849.329 688.854 846.237 685.762C843.146 682.671 841.6 678.917 841.6 674.5C841.6 670.083 843.146 666.329 846.237 663.237C849.329 660.146 853.083 658.6 857.5 658.6C861.917 658.6 865.671 660.146 868.762 663.237C871.854 666.329 873.4 670.083 873.4 674.5C873.4 678.917 871.854 682.671 868.762 685.762C865.671 688.854 861.917 690.4 857.5 690.4ZM857.5 685.1C860.415 685.1 862.91 684.062 864.986 681.986C867.062 679.91 868.1 677.415 868.1 674.5C868.1 671.585 867.062 669.09 864.986 667.014C862.91 664.938 860.415 663.9 857.5 663.9C854.585 663.9 852.09 664.938 850.014 667.014C847.938 669.09 846.9 671.585 846.9 674.5C846.9 677.415 847.938 679.91 850.014 681.986C852.09 684.062 854.585 685.1 857.5 685.1ZM857.5 679.8C856.042 679.8 854.795 679.281 853.757 678.243C852.719 677.205 852.2 675.957 852.2 674.5C852.2 673.042 852.719 671.795 853.757 670.757C854.795 669.719 856.042 669.2 857.5 669.2C858.957 669.2 860.205 669.719 861.243 670.757C862.281 671.795 862.8 673.042 862.8 674.5C862.8 675.957 862.281 677.205 861.243 678.243C860.205 679.281 858.957 679.8 857.5 679.8Z" fill="#E8EAED"/>
<path d="M167.691 416.97L177.717 405.5H169.967L171.372 395.001L162.411 407.35H169.144L167.691 416.97ZM162.75 424L164.688 411.05H155L172.438 387H176.312L174.375 401.8H186L166.625 424H162.75Z" fill="#E8EAED"/>
<path d="M154 156V151.368H165.786V146.737C162.525 146.737 159.746 145.608 157.447 143.35C155.149 141.092 154 138.361 154 135.158C154 132.804 154.658 130.661 155.974 128.732C157.29 126.802 159.068 125.393 161.307 124.505C161.621 123.193 162.319 122.132 163.399 121.321C164.479 120.511 165.707 120.105 167.082 120.105L165.786 116.516L168.025 115.705L167.2 113.621L171.679 112L172.386 114.2L174.625 113.389L181.107 130.758L178.868 131.568L179.693 133.768L175.214 135.389L174.507 133.189L172.268 134L170.854 130.179C170.264 130.719 169.587 131.125 168.821 131.395C168.054 131.665 167.279 131.761 166.493 131.684C165.629 131.607 164.823 131.346 164.077 130.903C163.33 130.459 162.682 129.909 162.132 129.253C161.071 129.87 160.237 130.7 159.628 131.742C159.019 132.784 158.714 133.923 158.714 135.158C158.714 137.088 159.402 138.728 160.777 140.079C162.152 141.43 163.821 142.105 165.786 142.105H184.643V146.737H172.857V151.368H187V156H154ZM174.389 129.484L176.511 128.674L172.504 117.789L170.264 118.6L174.389 129.484ZM166.964 128.211C167.632 128.211 168.192 127.989 168.644 127.545C169.096 127.101 169.321 126.551 169.321 125.895C169.321 125.239 169.096 124.689 168.644 124.245C168.192 123.801 167.632 123.579 166.964 123.579C166.296 123.579 165.737 123.801 165.285 124.245C164.833 124.689 164.607 125.239 164.607 125.895C164.607 126.551 164.833 127.101 165.285 127.545C165.737 127.989 166.296 128.211 166.964 128.211Z" fill="#E8EAED"/>
<path d="M169.375 690.556H171.625V686.444L179.5 678.667V668.333H161.5V678.667L169.375 686.444V690.556ZM164.875 695V688.333L157 680.556V668.333C157 667.111 157.441 666.065 158.322 665.194C159.203 664.324 160.262 663.889 161.5 663.889H163.75L161.5 666.111V655H166V663.889H175V655H179.5V666.111L177.25 663.889H179.5C180.737 663.889 181.797 664.324 182.678 665.194C183.559 666.065 184 667.111 184 668.333V680.556L176.125 688.333V695H164.875Z" fill="#E8EAED"/>
</svg>
